{
DisplayStrings = (
nanbncndnenfngnhninjnknlnmnnonpnqnrnsntnunvnwnxnynzn
);
classes = (
{
automatic = 1;
code = "A B C D E F G H I J K L M N O P Q R S T U V W X Y Z Agrave Aacute Acircumflex Atilde Adieresis Aring AE Ccedilla Egrave Eacute Ecircumflex Edieresis Igrave Iacute Icircumflex Idieresis Eth Ntilde Ograve Oacute Ocircumflex Otilde Odieresis Oslash Ugrave Uacute Ucircumflex Udieresis Yacute Thorn Cacute Ccaron Gbreve Idotaccent Lslash OE Scedilla Scaron Ydieresis Zcaron Omega Delta";
name = Uppercase;
}
);
copyright = "OpenDyslexic(open-dyslexic) by Abelardo Gonzalez is licensed under a Creative Commons Attribution 3.0 Unported License.\012Based on a work at dyslexicfonts.com.\012Permissions beyond the scope of this license may be available at http://dyslexicfonts.com/license.php.";
customParameters = (
{
name = glyphOrder;
value = (
    ".notdef",
    uni0000,
    uni000D,
    NULL,
    space,
    exclam,
    quotedbl,
    numbersign,
    dollar,
    percent,
    ampersand,
    quotesingle,
    parenleft,
    parenright,
    asterisk,
    plus,
    comma,
    hyphen,
    period,
    slash,
    zero,
    one,
    two,
    three,
    four,
    five,
    six,
    seven,
    eight,
    nine,
    colon,
    semicolon,
    less,
    equal,
    greater,
    question,
    at,
    A,
    B,
    C,
    D,
    E,
    F,
    G,
    H,
    I,
    J,
    K,
    L,
    M,
    N,
    O,
    P,
    Q,
    R,
    S,
    T,
    U,
    V,
    W,
    X,
    Y,
    Z,
    bracketleft,
    backslash,
    bracketright,
    asciicircum,
    underscore,
    grave,
    a,
    b,
    c,
    d,
    e,
    f,
    g,
    h,
    i,
    j,
    k,
    l,
    m,
    n,
    o,
    p,
    q,
    r,
    s,
    t,
    u,
    v,
    w,
    x,
    y,
    z,
    braceleft,
    bar,
    braceright,
    asciitilde,
    uni00A0,
    exclamdown,
    cent,
    sterling,
    currency,
    yen,
    brokenbar,
    section,
    dieresis,
    copyright,
    ordfeminine,
    guillemotleft,
    logicalnot,

glyphs = (
{
glyphname = .notdef;
lastChange = "2012-06-10 13:53:25 +0000";
layers = (
{
layerId = "16808965-E153-4B2B-ADB3-00196C646C32";
name = Regular;
paths = (
{
closed = 1;
nodes = (
"164 245 OFFCURVE",
"214 837 OFFCURVE",
"225 1434 CURVE",
"386 1409 OFFCURVE",
"546 1397 OFFCURVE",
"713 1397 CURVE SMOOTH",
"886 1397 OFFCURVE",
"1056 1410 OFFCURVE",
"1229 1434 CURVE",
"1133 837 OFFCURVE",
"1078 245 OFFCURVE",
"1073 -352 CURVE",
"908 -329 OFFCURVE",
"743 -318 OFFCURVE",
"574 -318 CURVE SMOOTH",
"405 -318 OFFCURVE",
"238 -329 OFFCURVE",
"69 -352 CURVE"
);
},
{
closed = 1;
nodes = (
"334 -59 OFFCURVE",
"467 -54 OFFCURVE",
"600 -54 CURVE SMOOTH",
"729 -54 OFFCURVE",
"858 -59 OFFCURVE",
"987 -69 CURVE",
"1010 399 OFFCURVE",
"1052 858 OFFCURVE",
"1120 1326 CURVE",
"981 1312 OFFCURVE",
"842 1305 OFFCURVE",
"705 1305 CURVE SMOOTH",
"573 1305 OFFCURVE",
"444 1310 OFFCURVE",
"315 1325 CURVE",
"298 860 OFFCURVE",
"260 396 OFFCURVE",
"201 -69 CURVE"
);
}
);
width = 1298;
}
);
},
{
glyphname = exclam;
lastChange = "2012-06-10 13:53:25 +0000";
layers = (
{
layerId = "16808965-E153-4B2B-ADB3-00196C646C32";
name = Regular;
paths = (
{
closed = 1;
nodes = (
"262 260 OFFCURVE",
"294 264 OFFCURVE",
"325 264 CURVE SMOOTH",
"355 264 OFFCURVE",
"386 260 OFFCURVE",
"417 253 CURVE",
"417 219 LINE SMOOTH",
"417 185 OFFCURVE",
"417 151 OFFCURVE",
"418 117 CURVE SMOOTH",
"419 83 OFFCURVE",
"419 49 OFFCURVE",
"420 14 CURVE",
"385 30 OFFCURVE",
"346 38 OFFCURVE",
"305 38 CURVE SMOOTH",
"264 38 OFFCURVE",
"224 30 OFFCURVE",
"186 14 CURVE",
"193 54 OFFCURVE",
"201 94 OFFCURVE",
"208 134 CURVE SMOOTH",
"215 173 OFFCURVE",
"222 213 OFFCURVE",
"229 253 CURVE"
);
},
{
closed = 1;
nodes = (
"368 1458 OFFCURVE",
"395 1454 OFFCURVE",
"424 1454 CURVE SMOOTH",
"455 1454 OFFCURVE",
"486 1457 OFFCURVE",
"517 1468 CURVE",
"497 1256 OFFCURVE",
"482 1048 OFFCURVE",
"466 836 CURVE",
"466 786 OFFCURVE",
"466 737 OFFCURVE",
"465 688 CURVE SMOOTH",
"464 639 OFFCURVE",
"464 590 OFFCURVE",
"464 541 CURVE SMOOTH",
"464 492 LINE",
"426 498 OFFCURVE",
"387 501 OFFCURVE",
"348 501 CURVE SMOOTH",
"307 501 OFFCURVE",
"267 498 OFFCURVE",
"226 492 CURVE",
"274 817 OFFCURVE",
"307 1139 OFFCURVE",
"342 1466 CURVE"
);
}
);
width = 629;
}
);
unicode = 0021;
},
{
glyphname = quotedbl;
lastChange = "2012-06-10 13:53:25 +0000";
layers = (
{
layerId = "16808965-E153-4B2B-ADB3-00196C646C32";
name = Regular;
paths = (
{
closed = 1;
nodes = (
"480 1291 OFFCURVE",
"471 1110 OFFCURVE",
"448 926 CURVE",
"387 923 OFFCURVE",
"326 921 OFFCURVE",
"266 916 CURVE",
"307 1091 OFFCURVE",
"326 1268 OFFCURVE",
"326 1445 CURVE SMOOTH",
"326 1483 LINE",
"353 1480 OFFCURVE",
"379 1479 OFFCURVE",
"405 1478 CURVE SMOOTH",
"431 1477 OFFCURVE",
"457 1475 OFFCURVE",
"483 1474 CURVE"
);
},
{
closed = 1;
nodes = (
"858 1342 OFFCURVE",
"843 1199 OFFCURVE",
"843 1056 CURVE SMOOTH",
"843 1009 OFFCURVE",
"844 963 OFFCURVE",
"848 916 CURVE",
"818 919 OFFCURVE",
"788 921 OFFCURVE",
"758 922 CURVE SMOOTH",
"728 923 OFFCURVE",
"698 925 OFFCURVE",
"668 926 CURVE",
"676 1110 OFFCURVE",
"695 1291 OFFCURVE",
"726 1475 CURVE",
"753 1475 OFFCURVE",
"779 1476 OFFCURVE",
"806 1478 CURVE SMOOTH",
"833 1480 OFFCURVE",
"859 1482 OFFCURVE",
"886 1483 CURVE"
);
}
);
width = 1133;
}
);
unicode = 0022;
},
{
glyphname = numbersign;
lastChange = "2012-06-10 13:53:25 +0000";
layers = (
{
layerId = "16808965-E153-4B2B-ADB3-00196C646C32";
name = Regular;
paths = (
{
closed = 1;
nodes = (
"893 903 OFFCURVE",
"844 903 OFFCURVE",
"795 903 CURVE SMOOTH",
"746 903 OFFCURVE",
"697 903 OFFCURVE",
"647 902 CURVE",
"610 789 OFFCURVE",
"573 675 OFFCURVE",
"534 562 CURVE",
"574 562 OFFCURVE",
"614 562 OFFCURVE",
"653 563 CURVE SMOOTH",
"692 563 OFFCURVE",
"731 563 OFFCURVE",
"771 563 CURVE SMOOTH",
"830 563 LINE",
"848 620 OFFCURVE",
"867 677 OFFCURVE",
"886 734 CURVE SMOOTH",
"905 790 OFFCURVE",
"923 846 OFFCURVE",
"942 903 CURVE"
);
},
{
closed = 1;
nodes = (
"825 1431 LINE",
"778 1298 OFFCURVE",
"732 1166 OFFCURVE",
"689 1031 CURVE",
"739 1031 OFFCURVE",
"789 1031 OFFCURVE",
"838 1031 CURVE SMOOTH",
"887 1031 OFFCURVE",
"936 1031 OFFCURVE",
"986 1032 CURVE",
"1034 1169 OFFCURVE",
"1084 1302 OFFCURVE",
"1140 1437 CURVE",
"1163 1438 OFFCURVE",
"1187 1440 OFFCURVE",
"1210 1441 CURVE SMOOTH",
"1233 1442 OFFCURVE",
"1257 1443 OFFCURVE",
"1280 1444 CURVE",
"1223 1308 OFFCURVE",
"1168 1173 OFFCURVE",
"1120 1034 CURVE",
"1220 1036 OFFCURVE",
"1320 1039 OFFCURVE",
"1419 1043 CURVE",
"1416 1021 OFFCURVE",
"1413 999 OFFCURVE",
"1410 977 CURVE SMOOTH",
"1407 954 OFFCURVE",
"1404 932 OFFCURVE",
"1401 910 CURVE",
"1292 907 OFFCURVE",
"1182 906 OFFCURVE",
"1073 905 CURVE",
"1035 791 OFFCURVE",
"998 677 OFFCURVE",
"962 563 CURVE",
"1062 562 OFFCURVE",
"1162 560 OFFCURVE",
"1262 559 CURVE",
"1261 538 OFFCURVE",
"1259 516 OFFCURVE",
"1258 494 CURVE SMOOTH",
"1257 472 OFFCURVE",
"1255 450 OFFCURVE",
"1254 429 CURVE",
"1197 430 OFFCURVE",
"1142 431 OFFCURVE",
"1087 432 CURVE SMOOTH",
"1032 433 OFFCURVE",
"976 434 OFFCURVE",
"920 435 CURVE",
"899 368 OFFCURVE",
"878 301 OFFCURVE",
"857 236 CURVE SMOOTH",
"835 170 OFFCURVE",
"814 103 OFFCURVE",
"795 36 CURVE",
"784 37 OFFCURVE",
"772 37 OFFCURVE",
"761 37 CURVE SMOOTH",
"749 37 OFFCURVE",
"737 37 OFFCURVE",
"725 37 CURVE SMOOTH",
"656 37 LINE",
"677 104 OFFCURVE",
"699 170 OFFCURVE",
"722 237 CURVE SMOOTH",
"744 303 OFFCURVE",
"766 369 OFFCURVE",
"787 436 CURVE",
"737 436 OFFCURVE",
"687 436 OFFCURVE",
"638 436 CURVE SMOOTH",
"589 436 OFFCURVE",
"539 435 OFFCURVE",
"489 434 CURVE",
"442 297 OFFCURVE",
"391 166 OFFCURVE",
"339 31 CURVE",
"316 30 OFFCURVE",
"292 29 OFFCURVE",
"269 28 CURVE SMOOTH",
"246 27 OFFCURVE",
"222 26 OFFCURVE",
"199 25 CURVE",
"256 160 OFFCURVE",
"308 296 OFFCURVE",
"356 433 CURVE",
"306 432 OFFCURVE",
"256 430 OFFCURVE",
"207 429 CURVE SMOOTH",
"157 428 OFFCURVE",
"107 426 OFFCURVE",
"57 425 CURVE",
"60 447 OFFCURVE",
"63 469 OFFCURVE",
"65 491 CURVE SMOOTH",
"67 513 OFFCURVE",
"70 535 OFFCURVE",
"73 557 CURVE",
"128 558 OFFCURVE",
"182 559 OFFCURVE",
"237 559 CURVE SMOOTH",
"291 559 OFFCURVE",
"346 560 OFFCURVE",
"401 561 CURVE",
"440 676 OFFCURVE",
"478 789 OFFCURVE",
"515 904 CURVE",
"412 904 OFFCURVE",
"313 905 OFFCURVE",
"210 908 CURVE",
"211 930 OFFCURVE",
"213 952 OFFCURVE",
"214 974 CURVE SMOOTH",
"215 995 OFFCURVE",
"216 1017 OFFCURVE",
"217 1039 CURVE",
"274 1036 OFFCURVE",
"330 1035 OFFCURVE",
"387 1034 CURVE SMOOTH",
"444 1033 OFFCURVE",
"500 1033 OFFCURVE",
"557 1032 CURVE",
"578 1099 OFFCURVE",
"599 1165 OFFCURVE",
"620 1232 CURVE SMOOTH",
"641 1298 OFFCURVE",
"663 1364 OFFCURVE",
"684 1431 CURVE"
);
}
);
width = 1516;
}
);
unicode = 0023;
},
{
glyphname = dollar;
lastChange = "2012-06-10 13:53:25 +0000";
layers = (
{
layerId = "16808965-E153-4B2B-ADB3-00196C646C32";
name = Regular;
paths = (
{
closed = 1;
nodes = (
"496 -247 OFFCURVE",
"443 -247 OFFCURVE",
"390 -247 CURVE",
"407 -150 OFFCURVE",
"424 -54 OFFCURVE",
"440 43 CURVE",
"307 47 OFFCURVE",
"177 67 OFFCURVE",
"57 116 CURVE",
"62 152 OFFCURVE",
"67 188 OFFCURVE",
"72 224 CURVE SMOOTH",
"77 259 OFFCURVE",
"81 295 OFFCURVE",
"84 331 CURVE",
"193 258 OFFCURVE",
"324 221 OFFCURVE",
"461 218 CURVE",
"468 285 OFFCURVE",
"475 351 OFFCURVE",
"482 416 CURVE SMOOTH",
"489 481 OFFCURVE",
"495 547 OFFCURVE",
"502 614 CURVE",
"451 623 OFFCURVE",
"400 636 OFFCURVE",
"352 656 CURVE SMOOTH",
"304 675 OFFCURVE",
"260 701 OFFCURVE",
"224 738 CURVE SMOOTH",
"167 798 OFFCURVE",
"150 886 OFFCURVE",
"150 970 CURVE",
"153 1022 OFFCURVE",
"170 1076 OFFCURVE",
"199 1122 CURVE SMOOTH",
"227 1168 OFFCURVE",
"267 1206 OFFCURVE",
"318 1230 CURVE SMOOTH",
"413 1274 OFFCURVE",
"497 1285 OFFCURVE",
"581 1290 CURVE",
"585 1328 OFFCURVE",
"589 1366 OFFCURVE",
"594 1405 CURVE SMOOTH",
"598 1443 OFFCURVE",
"602 1481 OFFCURVE",
"605 1519 CURVE",
"618 1519 OFFCURVE",
"632 1519 OFFCURVE",
"645 1518 CURVE SMOOTH",
"658 1517 OFFCURVE",
"672 1517 OFFCURVE",
"685 1517 CURVE",
"660 1292 LINE",
"773 1288 OFFCURVE",
"884 1277 OFFCURVE",
"992 1248 CURVE",
"989 1226 OFFCURVE",
"986 1204 OFFCURVE",
"983 1182 CURVE SMOOTH",
"980 1160 OFFCURVE",
"976 1138 OFFCURVE",
"973 1116 CURVE",
"874 1167 OFFCURVE",
"761 1186 OFFCURVE",
"648 1191 CURVE",
"631 1035 OFFCURVE",
"615 881 OFFCURVE",
"599 725 CURVE",
"651 714 OFFCURVE",
"706 704 OFFCURVE",
"758 687 CURVE SMOOTH",
"810 670 OFFCURVE",
"859 647 OFFCURVE",
"899 611 CURVE SMOOTH",
"958 558 OFFCURVE",
"978 473 OFFCURVE",
"978 393 CURVE SMOOTH",
"978 346 OFFCURVE",
"967 296 OFFCURVE",
"945 251 CURVE SMOOTH",
"923 206 OFFCURVE",
"892 163 OFFCURVE",
"853 134 CURVE SMOOTH",
"765 71 OFFCURVE",
"659 47 OFFCURVE",
"556 42 CURVE",
"555 -7 OFFCURVE",
"553 -55 OFFCURVE",
"552 -104 CURVE SMOOTH",
"551 -153 OFFCURVE",
"550 -201 OFFCURVE",
"549 -250 CURVE"
);
},
{
closed = 1;
nodes = (
"509 743 LINE",
"516 818 OFFCURVE",
"524 892 OFFCURVE",
"532 965 CURVE SMOOTH",
"540 1038 OFFCURVE",
"548 1111 OFFCURVE",
"555 1185 CURVE",
"482 1177 OFFCURVE",
"404 1162 OFFCURVE",
"344 1113 CURVE SMOOTH",
"289 1069 OFFCURVE",
"263 1008 OFFCURVE",
"263 941 CURVE SMOOTH",
"263 880 OFFCURVE",
"293 831 OFFCURVE",
"338 796 CURVE SMOOTH",
"382 761 OFFCURVE",
"440 739 OFFCURVE",
"496 734 CURVE"
);
},
{
closed = 1;
nodes = (
"578 579 LINE",
"573 517 OFFCURVE",
"570 456 OFFCURVE",
"567 395 CURVE SMOOTH",
"564 334 OFFCURVE",
"560 272 OFFCURVE",
"556 210 CURVE",
"616 219 OFFCURVE",
"676 230 OFFCURVE",
"733 251 CURVE",
"765 260 OFFCURVE",
"785 283 OFFCURVE",
"797 310 CURVE SMOOTH",
"808 337 OFFCURVE",
"812 367 OFFCURVE",
"812 394 CURVE SMOOTH",
"812 451 OFFCURVE",
"783 496 OFFCURVE",
"740 529 CURVE SMOOTH",
"697 561 OFFCURVE",
"642 580 OFFCURVE",
"590 588 CURVE"
);
}
);
width = 1069;
}
);
unicode = 0024;
},
{
glyphname = percent;
lastChange = "2012-06-10 13:53:25 +0000";
layers = (
{
layerId = "16808965-E153-4B2B-ADB3-00196C646C32";
name = Regular;
paths = (
{
closed = 1;
nodes = (
"1326 669 OFFCURVE",
"1275 625 OFFCURVE",
"1244 566 CURVE SMOOTH",
"1212 506 OFFCURVE",
"1200 432 OFFCURVE",
"1200 372 CURVE SMOOTH",
"1200 313 OFFCURVE",
"1215 256 OFFCURVE",
"1247 213 CURVE SMOOTH",
"1278 170 OFFCURVE",
"1326 143 OFFCURVE",
"1391 143 CURVE SMOOTH",
"1467 143 OFFCURVE",
"1511 190 OFFCURVE",
"1538 250 CURVE SMOOTH",
"1565 310 OFFCURVE",
"1572 383 OFFCURVE",
"1572 435 CURVE SMOOTH",
"1572 488 OFFCURVE",
"1562 548 OFFCURVE",
"1535 593 CURVE SMOOTH",
"1508 637 OFFCURVE",
"1466 669 OFFCURVE",
"1405 669 CURVE SMOOTH"
);
},
{
closed = 1;
nodes = (
"1501 774 OFFCURVE",
"1585 741 OFFCURVE",
"1632 670 CURVE",
"1688 594 OFFCURVE",
"1702 495 OFFCURVE",
"1702 398 CURVE SMOOTH",
"1702 347 OFFCURVE",
"1698 293 OFFCURVE",
"1686 240 CURVE SMOOTH",
"1674 187 OFFCURVE",
"1652 136 OFFCURVE",
"1616 93 CURVE",
"1591 58 OFFCURVE",
"1556 35 OFFCURVE",
"1518 20 CURVE SMOOTH",
"1480 5 OFFCURVE",
"1439 -1 OFFCURVE",
"1400 -1 CURVE SMOOTH",
"1351 -1 OFFCURVE",
"1300 8 OFFCURVE",
"1256 26 CURVE SMOOTH",
"1211 44 OFFCURVE",
"1169 71 OFFCURVE",
"1140 110 CURVE",
"1085 174 OFFCURVE",
"1066 260 OFFCURVE",
"1066 348 CURVE SMOOTH",
"1066 404 OFFCURVE",
"1073 462 OFFCURVE",
"1090 518 CURVE SMOOTH",
"1107 573 OFFCURVE",
"1135 626 OFFCURVE",
"1176 671 CURVE",
"1176 670 LINE",
"1239 741 OFFCURVE",
"1326 774 OFFCURVE",
"1414 774 CURVE SMOOTH"
);
},
{
closed = 1;
nodes = (
"466 1385 LINE SMOOTH",
"401 1385 OFFCURVE",
"355 1347 OFFCURVE",
"326 1296 CURVE SMOOTH",
"297 1244 OFFCURVE",
"283 1179 OFFCURVE",
"283 1124 CURVE SMOOTH",
"283 1113 LINE",
"282 1108 OFFCURVE",
"282 1104 OFFCURVE",
"282 1100 CURVE SMOOTH",
"282 1095 OFFCURVE",
"282 1091 OFFCURVE",
"282 1086 CURVE SMOOTH",
"282 1029 OFFCURVE",
"291 965 OFFCURVE",
"318 917 CURVE SMOOTH",
"345 868 OFFCURVE",
"387 833 OFFCURVE",
"455 833 CURVE SMOOTH",
"508 833 OFFCURVE",
"548 856 OFFCURVE",
"578 890 CURVE SMOOTH",
"608 924 OFFCURVE",
"627 969 OFFCURVE",
"639 1015 CURVE SMOOTH",
"651 1061 OFFCURVE",
"656 1108 OFFCURVE",
"656 1144 CURVE SMOOTH",
"656 1200 OFFCURVE",
"642 1259 OFFCURVE",
"613 1305 CURVE SMOOTH",
"584 1351 OFFCURVE",
"538 1382 OFFCURVE",
"477 1385 CURVE"
);
},
{
closed = 1;
nodes = (
"1421 1487 OFFCURVE",
"1444 1488 OFFCURVE",
"1467 1489 CURVE SMOOTH",
"1489 1490 OFFCURVE",
"1512 1491 OFFCURVE",
"1535 1492 CURVE",
"1346 1252 OFFCURVE",
"1172 1001 OFFCURVE",
"1000 750 CURVE SMOOTH",
"828 498 OFFCURVE",
"656 245 OFFCURVE",
"471 4 CURVE",
"424 3 OFFCURVE",
"380 2 OFFCURVE",
"333 -1 CURVE",
"521 239 OFFCURVE",
"694 491 OFFCURVE",
"866 743 CURVE SMOOTH",
"1038 994 OFFCURVE",
"1210 1245 OFFCURVE",
"1398 1486 CURVE"
);
},
{
closed = 1;
nodes = (
"572 1487 OFFCURVE",
"657 1450 OFFCURVE",
"716 1378 CURVE SMOOTH",
"769 1313 OFFCURVE",
"789 1227 OFFCURVE",
"789 1139 CURVE SMOOTH",
"789 1084 OFFCURVE",
"781 1026 OFFCURVE",
"764 971 CURVE SMOOTH",
"747 915 OFFCURVE",
"719 862 OFFCURVE",
"679 818 CURVE SMOOTH",
"619 753 OFFCURVE",
"535 717 OFFCURVE",
"451 717 CURVE SMOOTH",
"406 717 OFFCURVE",
"361 724 OFFCURVE",
"321 741 CURVE SMOOTH",
"281 757 OFFCURVE",
"247 784 OFFCURVE",
"222 821 CURVE SMOOTH",
"169 900 OFFCURVE",
"154 999 OFFCURVE",
"154 1095 CURVE SMOOTH",
"154 1146 OFFCURVE",
"158 1200 OFFCURVE",
"171 1253 CURVE SMOOTH",
"183 1305 OFFCURVE",
"204 1355 OFFCURVE",
"239 1398 CURVE SMOOTH",
"292 1462 OFFCURVE",
"375 1490 OFFCURVE",
"454 1491 CURVE SMOOTH",
"458 1491 OFFCURVE",
"462 1491 OFFCURVE",
"466 1491 CURVE",
"469 1490 OFFCURVE",
"473 1490 OFFCURVE",
"477 1490 CURVE SMOOTH"
);
}
);
width = 2030;
}
);
unicode = 0025;
},
{
glyphname = ampersand;
lastChange = "2012-06-10 13:53:25 +0000";
layers = (
{
layerId = "16808965-E153-4B2B-ADB3-00196C646C32";
name = Regular;
paths = (
{
closed = 1;
nodes = (
"435 803 OFFCURVE",
"382 746 OFFCURVE",
"345 682 CURVE SMOOTH",
"308 617 OFFCURVE",
"285 545 OFFCURVE",
"285 466 CURVE SMOOTH",
"285 367 OFFCURVE",
"324 296 OFFCURVE",
"385 249 CURVE SMOOTH",
"445 201 OFFCURVE",
"527 178 OFFCURVE",
"615 178 CURVE SMOOTH",
"740 178 OFFCURVE",
"867 227 OFFCURVE",
"967 311 CURVE",
"887 401 OFFCURVE",
"808 491 OFFCURVE",
"730 581 CURVE SMOOTH",
"652 671 OFFCURVE",
"574 761 OFFCURVE",
"495 852 CURVE"
);
},
{
closed = 1;
nodes = (
"689 851 OFFCURVE",
"769 763 OFFCURVE",
"848 675 CURVE SMOOTH",
"927 587 OFFCURVE",
"1006 499 OFFCURVE",
"1087 411 CURVE",
"1130 468 OFFCURVE",
"1158 529 OFFCURVE",
"1178 593 CURVE SMOOTH",
"1198 657 OFFCURVE",
"1211 722 OFFCURVE",
"1220 790 CURVE",
"1245 790 OFFCURVE",
"1271 790 OFFCURVE",
"1297 790 CURVE SMOOTH",
"1323 790 OFFCURVE",
"1349 790 OFFCURVE",
"1375 791 CURVE",
"1360 708 OFFCURVE",
"1343 627 OFFCURVE",
"1323 546 CURVE SMOOTH",
"1300 455 OFFCURVE",
"1255 372 OFFCURVE",
"1198 296 CURVE",
"1241 247 OFFCURVE",
"1285 200 OFFCURVE",
"1328 153 CURVE SMOOTH",
"1371 106 OFFCURVE",
"1414 58 OFFCURVE",
"1457 10 CURVE",
"1384 17 OFFCURVE",
"1310 22 OFFCURVE",
"1235 26 CURVE",
"1212 51 OFFCURVE",
"1188 77 OFFCURVE",
"1165 103 CURVE",
"1141 128 OFFCURVE",
"1117 154 OFFCURVE",
"1094 180 CURVE",
"951 63 OFFCURVE",
"782 9 OFFCURVE",
"605 9 CURVE SMOOTH",
"541 9 OFFCURVE",
"477 17 OFFCURVE",
"418 35 CURVE SMOOTH",
"358 53 OFFCURVE",
"304 82 OFFCURVE",
"260 126 CURVE SMOOTH",
"192 195 OFFCURVE",
"162 292 OFFCURVE",
"162 392 CURVE SMOOTH",
"162 497 OFFCURVE",
"194 596 OFFCURVE",
"247 684 CURVE SMOOTH",
"300 771 OFFCURVE",
"375 845 OFFCURVE",
"462 905 CURVE",
"418 976 OFFCURVE",
"380 1053 OFFCURVE",
"380 1141 CURVE SMOOTH",
"380 1186 OFFCURVE",
"389 1234 OFFCURVE",
"408 1279 CURVE SMOOTH",
"427 1323 OFFCURVE",
"454 1363 OFFCURVE",
"493 1394 CURVE SMOOTH",
"577 1462 OFFCURVE",
"683 1481 OFFCURVE",
"784 1481 CURVE SMOOTH",
"893 1481 OFFCURVE",
"999 1455 OFFCURVE",
"1096 1416 CURVE",
"1071 1376 OFFCURVE",
"1046 1336 OFFCURVE",
"1022 1296 CURVE",
"929 1345 OFFCURVE",
"829 1386 OFFCURVE",
"716 1386 CURVE SMOOTH",
"653 1386 OFFCURVE",
"594 1367 OFFCURVE",
"550 1332 CURVE SMOOTH",
"506 1296 OFFCURVE",
"477 1244 OFFCURVE",
"477 1176 CURVE SMOOTH",
"477 1129 OFFCURVE",
"495 1088 OFFCURVE",
"520 1049 CURVE SMOOTH",
"545 1009 OFFCURVE",
"579 972 OFFCURVE",
"608 939 CURVE SMOOTH"
);
}
);
width = 1620;
}
);
unicode = 0026;
},
{
glyphname = quotesingle;
lastChange = "2012-06-10 13:53:25 +0000";
layers = (
{
layerId = "16808965-E153-4B2B-ADB3-00196C646C32";
name = Regular;
paths = (
{
closed = 1;
nodes = (
"448 1304 OFFCURVE",
"433 1128 OFFCURVE",
"424 948 CURVE",
"401 955 OFFCURVE",
"378 958 OFFCURVE",
"354 958 CURVE SMOOTH",
"327 958 OFFCURVE",
"301 955 OFFCURVE",
"274 948 CURVE",
"297 1128 OFFCURVE",
"312 1304 OFFCURVE",
"321 1484 CURVE",
"342 1477 OFFCURVE",
"366 1473 OFFCURVE",
"393 1473 CURVE SMOOTH",
"419 1473 OFFCURVE",
"445 1477 OFFCURVE",
"471 1484 CURVE"
);
}
);
width = 713;
}
);
unicode = 0027;
},
{
glyphname = parenleft;
lastChange = "2012-06-10 13:53:25 +0000";
layers = (
{
layerId = "16808965-E153-4B2B-ADB3-00196C646C32";
name = Regular;
paths = (
{
closed = 1;
nodes = (
"576 1405 OFFCURVE",
"485 1266 OFFCURVE",
"413 1120 CURVE SMOOTH",
"341 974 OFFCURVE",
"288 820 OFFCURVE",
"271 660 CURVE",
"268 589 OFFCURVE",
"266 519 OFFCURVE",
"266 450 CURVE SMOOTH",
"266 370 OFFCURVE",
"270 295 OFFCURVE",
"275 216 CURVE SMOOTH",
"286 59 OFFCURVE",
"323 -88 OFFCURVE",
"378 -231 CURVE",
"317 -220 OFFCURVE",
"256 -215 OFFCURVE",
"192 -214 CURVE",
"120 -3 OFFCURVE",
"92 220 OFFCURVE",
"92 448 CURVE SMOOTH",
"92 524 OFFCURVE",
"95 601 OFFCURVE",
"101 678 CURVE",
"125 834 OFFCURVE",
"181 984 OFFCURVE",
"257 1125 CURVE SMOOTH",
"333 1266 OFFCURVE",
"428 1399 OFFCURVE",
"532 1522 CURVE",
"579 1522 OFFCURVE",
"622 1530 OFFCURVE",
"669 1538 CURVE"
);
}
);
width = 668;
}
);
unicode = 0028;
},
{
glyphname = parenright;
lastChange = "2012-06-10 13:53:25 +0000";
layers = (
{
layerId = "16808965-E153-4B2B-ADB3-00196C646C32";
name = Regular;
paths = (
{
closed = 1;
nodes = (
"324 1547 LINE",
"375 1536 OFFCURVE",
"426 1531 OFFCURVE",
"478 1528 CURVE",
"571 1319 OFFCURVE",
"607 1100 OFFCURVE",
"607 855 CURVE SMOOTH",
"607 742 OFFCURVE",
"600 632 OFFCURVE",
"581 525 CURVE SMOOTH",
"561 418 OFFCURVE",
"529 313 OFFCURVE",
"477 212 CURVE SMOOTH",
"405 69 OFFCURVE",
"325 -68 OFFCURVE",
"237 -201 CURVE",
"169 -201 OFFCURVE",
"99 -206 OFFCURVE",
"31 -221 CURVE",
"126 -88 OFFCURVE",
"215 52 OFFCURVE",
"287 198 CURVE SMOOTH",
"358 344 OFFCURVE",
"413 496 OFFCURVE",
"437 655 CURVE",
"445 743 OFFCURVE",
"448 829 OFFCURVE",
"448 917 CURVE SMOOTH",
"448 1150 OFFCURVE",
"415 1356 OFFCURVE",
"335 1560 CURVE",
"328 1551 LINE"
);
}
);
width = 670;
}
);
unicode = 0029;
},
{
glyphname = asterisk;
lastChange = "2012-06-10 13:53:25 +0000";
layers = (
{
layerId = "16808965-E153-4B2B-ADB3-00196C646C32";
name = Regular;
paths = (
{
closed = 1;
nodes = (
"783 1182 OFFCURVE",
"661 1117 OFFCURVE",
"540 1052 CURVE",
"652 987 OFFCURVE",
"761 923 OFFCURVE",
"869 854 CURVE",
"854 827 OFFCURVE",
"838 802 OFFCURVE",
"821 777 CURVE",
"718 846 OFFCURVE",
"616 915 OFFCURVE",
"512 983 CURVE",
"507 921 OFFCURVE",
"501 859 OFFCURVE",
"496 798 CURVE SMOOTH",
"491 737 OFFCURVE",
"486 675 OFFCURVE",
"483 613 CURVE",
"389 613 LINE",
"394 675 OFFCURVE",
"400 737 OFFCURVE",
"406 798 CURVE SMOOTH",
"412 859 OFFCURVE",
"418 921 OFFCURVE",
"423 983 CURVE",
"364 949 OFFCURVE",
"307 915 OFFCURVE",
"250 880 CURVE SMOOTH",
"193 845 OFFCURVE",
"135 811 OFFCURVE",
"76 777 CURVE",
"71 790 OFFCURVE",
"65 803 OFFCURVE",
"60 816 CURVE SMOOTH",
"55 829 OFFCURVE",
"49 841 OFFCURVE",
"43 854 CURVE",
"164 923 OFFCURVE",
"284 987 OFFCURVE",
"408 1052 CURVE",
"296 1115 OFFCURVE",
"186 1181 OFFCURVE",
"78 1250 CURVE",
"87 1263 OFFCURVE",
"94 1276 OFFCURVE",
"101 1289 CURVE SMOOTH",
"108 1302 OFFCURVE",
"116 1315 OFFCURVE",
"125 1328 CURVE",
"176 1292 OFFCURVE",
"227 1257 OFFCURVE",
"280 1224 CURVE SMOOTH",
"332 1190 OFFCURVE",
"384 1156 OFFCURVE",
"436 1122 CURVE",
"441 1184 OFFCURVE",
"446 1246 OFFCURVE",
"451 1307 CURVE SMOOTH",
"456 1368 OFFCURVE",
"461 1430 OFFCURVE",
"466 1492 CURVE",
"560 1492 LINE",
"547 1368 OFFCURVE",
"535 1246 OFFCURVE",
"524 1122 CURVE",
"641 1190 OFFCURVE",
"755 1258 OFFCURVE",
"871 1329 CURVE",
"882 1302 OFFCURVE",
"892 1277 OFFCURVE",
"904 1250 CURVE"
);
}
);
width = 985;
}
);
unicode = 002A;
},
{
glyphname = plus;
lastChange = "2012-06-10 13:53:25 +0000";
layers = (
{
layerId = "16808965-E153-4B2B-ADB3-00196C646C32";
name = Regular;
paths = (
{
closed = 1;
nodes = (
"728 1248 LINE",
"707 1069 OFFCURVE",
"691 892 OFFCURVE",
"675 712 CURVE",
"850 712 OFFCURVE",
"1021 713 OFFCURVE",
"1196 716 CURVE",
"1183 567 LINE",
"1096 568 OFFCURVE",
"1009 569 OFFCURVE",
"923 569 CURVE SMOOTH",
"836 569 OFFCURVE",
"749 569 OFFCURVE",
"662 569 CURVE",
"655 480 OFFCURVE",
"647 391 OFFCURVE",
"640 302 CURVE SMOOTH",
"633 213 OFFCURVE",
"626 123 OFFCURVE",
"621 34 CURVE",
"473 34 LINE",
"482 123 OFFCURVE",
"490 213 OFFCURVE",
"499 302 CURVE SMOOTH",
"508 391 OFFCURVE",
"516 480 OFFCURVE",
"523 569 CURVE",
"436 569 OFFCURVE",
"349 569 OFFCURVE",
"263 568 CURVE SMOOTH",
"176 567 OFFCURVE",
"89 567 OFFCURVE",
"2 567 CURVE",
"15 717 LINE",
"190 713 OFFCURVE",
"361 713 OFFCURVE",
"536 713 CURVE",
"544 803 OFFCURVE",
"552 892 OFFCURVE",
"559 981 CURVE SMOOTH",
"566 1070 OFFCURVE",
"573 1159 OFFCURVE",
"580 1248 CURVE"
);
}
);
width = 1286;
}
);
unicode = 002B;
},
{
glyphname = comma;
lastChange = "2012-06-10 13:53:25 +0000";
layers = (
{
layerId = "16808965-E153-4B2B-ADB3-00196C646C32";
name = Regular;
paths = (
{
closed = 1;
nodes = (
"256 224 OFFCURVE",
"266 224 OFFCURVE",
"276 224 CURVE SMOOTH",
"286 224 OFFCURVE",
"296 224 OFFCURVE",
"307 224 CURVE SMOOTH",
"364 224 OFFCURVE",
"420 227 OFFCURVE",
"479 234 CURVE",
"467 167 OFFCURVE",
"458 102 OFFCURVE",
"451 35 CURVE",
"412 -16 OFFCURVE",
"374 -67 OFFCURVE",
"336 -118 CURVE SMOOTH",
"297 -169 OFFCURVE",
"257 -220 OFFCURVE",
"215 -269 CURVE",
"197 -270 OFFCURVE",
"179 -271 OFFCURVE",
"161 -272 CURVE SMOOTH",
"143 -273 OFFCURVE",
"125 -275 OFFCURVE",
"106 -278 CURVE",
"129 -228 OFFCURVE",
"151 -177 OFFCURVE",
"172 -126 CURVE SMOOTH",
"192 -75 OFFCURVE",
"212 -24 OFFCURVE",
"233 27 CURVE",
"238 94 OFFCURVE",
"242 158 OFFCURVE",
"246 225 CURVE"
);
}
);
width = 543;
}
);
unicode = 002C;
},
{
glyphname = hyphen;
lastChange = "2012-06-10 13:53:25 +0000";
layers = (
{
layerId = "16808965-E153-4B2B-ADB3-00196C646C32";
name = Regular;
paths = (
{
closed = 1;
nodes = (
"295 633 OFFCURVE",
"307 633 OFFCURVE",
"319 633 CURVE",
"330 632 OFFCURVE",
"342 632 OFFCURVE",
"353 632 CURVE SMOOTH",
"502 632 OFFCURVE",
"649 638 OFFCURVE",
"800 643 CURVE",
"781 612 OFFCURVE",
"770 576 OFFCURVE",
"770 541 CURVE SMOOTH",
"770 526 OFFCURVE",
"772 512 OFFCURVE",
"776 498 CURVE",
"603 498 OFFCURVE",
"435 496 OFFCURVE",
"260 489 CURVE",
"279 521 OFFCURVE",
"288 557 OFFCURVE",
"288 592 CURVE SMOOTH",
"288 607 OFFCURVE",
"287 620 OFFCURVE",
"284 633 CURVE"
);
}
);
width = 1059;
}
);
unicode = 002D;
},
{
glyphname = period;
lastChange = "2012-06-10 13:53:25 +0000";
layers = (
{
layerId = "16808965-E153-4B2B-ADB3-00196C646C32";
name = Regular;
paths = (
{
closed = 1;
nodes = (
"301 314 LINE",
"344 310 OFFCURVE",
"387 308 OFFCURVE",
"431 308 CURVE SMOOTH",
"481 308 OFFCURVE",
"531 310 OFFCURVE",
"581 314 CURVE",
"562 227 OFFCURVE",
"553 140 OFFCURVE",
"553 51 CURVE SMOOTH",
"553 44 OFFCURVE",
"553 37 OFFCURVE",
"553 30 CURVE SMOOTH",
"553 23 OFFCURVE",
"553 17 OFFCURVE",
"554 10 CURVE",
"508 14 OFFCURVE",
"462 16 OFFCURVE",
"415 16 CURVE SMOOTH",
"368 16 OFFCURVE",
"321 14 OFFCURVE",
"274 10 CURVE",
"292 98 OFFCURVE",
"301 187 OFFCURVE",
"301 276 CURVE SMOOTH"
);
}
);
width = 846;
}
);
unicode = 002E;
},
{
glyphname = slash;
lastChange = "2012-06-10 13:53:25 +0000";
layers = (
{
layerId = "16808965-E153-4B2B-ADB3-00196C646C32";
name = Regular;
paths = (
{
closed = 1;
nodes = (
"759 1447 OFFCURVE",
"803 1452 OFFCURVE",
"846 1459 CURVE",
"733 1191 OFFCURVE",
"629 921 OFFCURVE",
"526 650 CURVE SMOOTH",
"423 378 OFFCURVE",
"321 106 OFFCURVE",
"210 -162 CURVE",
"141 -165 OFFCURVE",
"71 -169 OFFCURVE",
"2 -180 CURVE",
"126 88 OFFCURVE",
"242 360 OFFCURVE",
"359 632 CURVE SMOOTH",
"475 903 OFFCURVE",
"592 1175 OFFCURVE",
"716 1443 CURVE"
);
}
);
width = 741;
}
);
unicode = 002F;
},
{
glyphname = zero;
lastChange = "2012-06-10 13:53:25 +0000";
layers = (
{
layerId = "16808965-E153-4B2B-ADB3-00196C646C32";
name = Regular;
paths = (
{
closed = 1;
nodes = (
"717 1421 LINE SMOOTH",
"658 1421 OFFCURVE",
"602 1400 OFFCURVE",
"555 1365 CURVE SMOOTH",
"508 1330 OFFCURVE",
"471 1281 OFFCURVE",
"451 1225 CURVE",
"416 1138 OFFCURVE",
"397 1051 OFFCURVE",
"386 965 CURVE SMOOTH",
"375 879 OFFCURVE",
"373 795 OFFCURVE",
"373 716 CURVE SMOOTH",
"373 632 OFFCURVE",
"380 551 OFFCURVE",
"408 475 CURVE SMOOTH",
"423 435 OFFCURVE",
"450 403 OFFCURVE",
"486 381 CURVE SMOOTH",
"521 359 OFFCURVE",
"563 347 OFFCURVE",
"607 347 CURVE SMOOTH",
"618 347 LINE SMOOTH",
"620 347 OFFCURVE",
"622 347 OFFCURVE",
"625 347 CURVE",
"627 346 OFFCURVE",
"629 346 OFFCURVE",
"631 346 CURVE SMOOTH",
"716 346 OFFCURVE",
"782 384 OFFCURVE",
"832 443 CURVE SMOOTH",
"882 502 OFFCURVE",
"917 582 OFFCURVE",
"942 664 CURVE SMOOTH",
"966 746 OFFCURVE",
"980 831 OFFCURVE",
"988 900 CURVE SMOOTH",
"995 969 OFFCURVE",
"997 1024 OFFCURVE",
"997 1047 CURVE SMOOTH",
"997 1100 OFFCURVE",
"994 1154 OFFCURVE",
"983 1206 CURVE",
"974 1267 OFFCURVE",
"946 1323 OFFCURVE",
"905 1361 CURVE SMOOTH",
"864 1399 OFFCURVE",
"811 1422 OFFCURVE",
"751 1422 CURVE SMOOTH",
"748 1422 OFFCURVE",
"745 1422 OFFCURVE",
"742 1422 CURVE",
"739 1421 OFFCURVE",
"736 1421 OFFCURVE",
"733 1421 CURVE SMOOTH"
);
},
{
closed = 1;
nodes = (
"738 1480 LINE",
"754 1480 LINE SMOOTH",
"818 1480 OFFCURVE",
"884 1466 OFFCURVE",
"940 1438 CURVE SMOOTH",
"996 1409 OFFCURVE",
"1043 1366 OFFCURVE",
"1071 1309 CURVE SMOOTH",
"1130 1188 OFFCURVE",
"1144 1056 OFFCURVE",
"1144 927 CURVE SMOOTH",
"1144 866 OFFCURVE",
"1141 806 OFFCURVE",
"1137 746 CURVE",
"1124 654 OFFCURVE",
"1110 560 OFFCURVE",
"1086 468 CURVE SMOOTH",
"1062 376 OFFCURVE",
"1028 287 OFFCURVE",
"975 206 CURVE SMOOTH",
"930 139 OFFCURVE",
"871 91 OFFCURVE",
"807 59 CURVE SMOOTH",
"743 26 OFFCURVE",
"672 10 OFFCURVE",
"604 10 CURVE SMOOTH",
"589 10 LINE",
"572 10 LINE SMOOTH",
"508 10 OFFCURVE",
"443 24 OFFCURVE",
"387 52 CURVE SMOOTH",
"331 80 OFFCURVE",
"283 123 OFFCURVE",
"254 180 CURVE SMOOTH",
"195 299 OFFCURVE",
"182 425 OFFCURVE",
"182 553 CURVE SMOOTH",
"182 618 OFFCURVE",
"185 681 OFFCURVE",
"189 745 CURVE",
"202 836 OFFCURVE",
"215 930 OFFCURVE",
"239 1022 CURVE SMOOTH",
"263 1114 OFFCURVE",
"296 1203 OFFCURVE",
"351 1284 CURVE SMOOTH",
"395 1351 OFFCURVE",
"455 1400 OFFCURVE",
"520 1432 CURVE SMOOTH",
"585 1464 OFFCURVE",
"657 1480 OFFCURVE",
"725 1480 CURVE SMOOTH"
);
}
);
width = 1397;
}
);
unicode = 0030;
},
{
glyphname = one;
lastChange = "2012-06-10 13:53:25 +0000";
layers = (
{
layerId = "16808965-E153-4B2B-ADB3-00196C646C32";
name = Regular;
paths = (
{
closed = 1;
nodes = (
"374 281 OFFCURVE",
"479 287 OFFCURVE",
"586 288 CURVE",
"617 627 OFFCURVE",
"645 958 OFFCURVE",
"672 1297 CURVE",
"556 1275 OFFCURVE",
"440 1259 OFFCURVE",
"323 1249 CURVE",
"324 1277 OFFCURVE",
"325 1304 OFFCURVE",
"326 1331 CURVE",
"326 1358 OFFCURVE",
"326 1385 OFFCURVE",
"327 1413 CURVE",
"444 1418 OFFCURVE",
"558 1436 OFFCURVE",
"675 1455 CURVE",
"691 1454 OFFCURVE",
"707 1454 OFFCURVE",
"723 1454 CURVE SMOOTH",
"739 1454 OFFCURVE",
"755 1454 OFFCURVE",
"770 1454 CURVE SMOOTH",
"786 1454 OFFCURVE",
"802 1454 OFFCURVE",
"818 1454 CURVE SMOOTH",
"834 1454 OFFCURVE",
"850 1455 OFFCURVE",
"866 1456 CURVE",
"823 1064 OFFCURVE",
"788 680 OFFCURVE",
"759 288 CURVE",
"864 285 OFFCURVE",
"970 282 OFFCURVE",
"1074 271 CURVE",
"1071 195 OFFCURVE",
"1069 121 OFFCURVE",
"1069 45 CURVE SMOOTH",
"1069 10 LINE",
"928 29 OFFCURVE",
"787 39 OFFCURVE",
"643 39 CURVE SMOOTH",
"504 39 OFFCURVE",
"368 30 OFFCURVE",
"229 14 CURVE",
"244 101 OFFCURVE",
"255 185 OFFCURVE",
"267 273 CURVE"
);
}
);
width = 1206;
}
);
unicode = 0031;
},
{
glyphname = two;
lastChange = "2012-06-10 13:53:25 +0000";
layers = (
{
layerId = "16808965-E153-4B2B-ADB3-00196C646C32";
name = Regular;
paths = (
{
closed = 1;
nodes = (
"867 299 OFFCURVE",
"1019 296 OFFCURVE",
"1174 281 CURVE",
"1170 190 OFFCURVE",
"1170 101 OFFCURVE",
"1170 10 CURVE",
"1019 29 OFFCURVE",
"868 38 OFFCURVE",
"715 38 CURVE SMOOTH",
"558 38 OFFCURVE",
"401 29 OFFCURVE",
"242 10 CURVE",
"257 102 OFFCURVE",
"271 194 OFFCURVE",
"286 286 CURVE",
"395 381 OFFCURVE",
"510 468 OFFCURVE",
"626 555 CURVE",
"709 612 OFFCURVE",
"788 670 OFFCURVE",
"860 741 CURVE",
"859 741 LINE",
"912 797 OFFCURVE",
"964 853 OFFCURVE",
"1003 921 CURVE",
"1003 920 LINE",
"1036 976 OFFCURVE",
"1058 1037 OFFCURVE",
"1058 1100 CURVE SMOOTH",
"1058 1180 OFFCURVE",
"1025 1238 OFFCURVE",
"974 1277 CURVE SMOOTH",
"923 1316 OFFCURVE",
"855 1334 OFFCURVE",
"784 1334 CURVE SMOOTH",
"644 1334 OFFCURVE",
"508 1292 OFFCURVE",
"377 1232 CURVE",
"380 1292 OFFCURVE",
"382 1351 OFFCURVE",
"382 1411 CURVE",
"519 1446 OFFCURVE",
"654 1480 OFFCURVE",
"793 1480 CURVE SMOOTH",
"856 1480 OFFCURVE",
"919 1475 OFFCURVE",
"979 1460 CURVE SMOOTH",
"1039 1444 OFFCURVE",
"1095 1420 OFFCURVE",
"1142 1380 CURVE SMOOTH",
"1209 1324 OFFCURVE",
"1235 1241 OFFCURVE",
"1235 1153 CURVE SMOOTH",
"1235 1072 OFFCURVE",
"1215 998 OFFCURVE",
"1182 929 CURVE SMOOTH",
"1149 860 OFFCURVE",
"1102 795 OFFCURVE",
"1047 731 CURVE",
"1049 732 LINE",
"994 677 OFFCURVE",
"941 623 OFFCURVE",
"885 570 CURVE SMOOTH",
"809 497 OFFCURVE",
"737 411 OFFCURVE",
"702 311 CURVE",
"703 309 OFFCURVE",
"705 307 OFFCURVE",
"707 305 CURVE",
"708 303 OFFCURVE",
"710 301 OFFCURVE",
"711 299 CURVE"
);
}
);
width = 1399;
}
);
unicode = 0032;
},
{
glyphname = three;
lastChange = "2012-06-10 13:53:25 +0000";
layers = (
{
layerId = "16808965-E153-4B2B-ADB3-00196C646C32";
name = Regular;
paths = (
{
closed = 1;
nodes = (
"974 788 OFFCURVE",
"1048 756 OFFCURVE",
"1091 692 CURVE SMOOTH",
"1130 632 OFFCURVE",
"1149 564 OFFCURVE",
"1149 491 CURVE SMOOTH",
"1149 427 OFFCURVE",
"1141 356 OFFCURVE",
"1118 291 CURVE SMOOTH",
"1095 226 OFFCURVE",
"1057 165 OFFCURVE",
"1000 121 CURVE",
"928 70 OFFCURVE",
"848 42 OFFCURVE",
"767 27 CURVE SMOOTH",
"686 11 OFFCURVE",
"605 8 OFFCURVE",
"529 8 CURVE SMOOTH",
"411 8 OFFCURVE",
"296 23 OFFCURVE",
"184 52 CURVE",
"200 149 OFFCURVE",
"214 246 OFFCURVE",
"226 343 CURVE",
"326 287 OFFCURVE",
"444 270 OFFCURVE",
"563 270 CURVE SMOOTH",
"615 270 OFFCURVE",
"671 273 OFFCURVE",
"724 285 CURVE SMOOTH",
"777 296 OFFCURVE",
"829 316 OFFCURVE",
"873 352 CURVE",
"872 352 LINE",
"897 372 OFFCURVE",
"925 394 OFFCURVE",
"946 419 CURVE SMOOTH",
"967 444 OFFCURVE",
"982 474 OFFCURVE",
"982 509 CURVE SMOOTH",
"982 574 OFFCURVE",
"949 631 OFFCURVE",
"904 671 CURVE SMOOTH",
"859 711 OFFCURVE",
"802 730 OFFCURVE",
"742 738 CURVE SMOOTH",
"712 742 OFFCURVE",
"682 744 OFFCURVE",
"651 744 CURVE SMOOTH",
"620 744 OFFCURVE",
"590 744 OFFCURVE",
"561 744 CURVE SMOOTH",
"509 744 LINE",
"511 767 OFFCURVE",
"513 791 OFFCURVE",
"516 815 CURVE",
"518 838 OFFCURVE",
"520 862 OFFCURVE",
"521 885 CURVE",
"553 885 OFFCURVE",
"585 885 OFFCURVE",
"616 884 CURVE SMOOTH",
"647 883 OFFCURVE",
"678 883 OFFCURVE",
"710 883 CURVE SMOOTH",
"787 883 OFFCURVE",
"862 908 OFFCURVE",
"917 954 CURVE SMOOTH",
"972 1000 OFFCURVE",
"1008 1066 OFFCURVE",
"1008 1153 CURVE SMOOTH",
"1008 1238 OFFCURVE",
"963 1289 OFFCURVE",
"904 1318 CURVE SMOOTH",
"844 1346 OFFCURVE",
"771 1354 OFFCURVE",
"715 1354 CURVE SMOOTH",
"590 1354 OFFCURVE",
"468 1333 OFFCURVE",
"345 1304 CURVE",
"346 1327 OFFCURVE",
"347 1350 OFFCURVE",
"348 1373 CURVE",
"348 1395 OFFCURVE",
"348 1418 OFFCURVE",
"349 1441 CURVE",
"481 1462 OFFCURVE",
"611 1480 OFFCURVE",
"743 1480 CURVE SMOOTH",
"842 1480 OFFCURVE",
"952 1466 OFFCURVE",
"1037 1422 CURVE SMOOTH",
"1122 1378 OFFCURVE",
"1183 1303 OFFCURVE",
"1183 1182 CURVE SMOOTH",
"1183 1098 OFFCURVE",
"1155 1014 OFFCURVE",
"1105 947 CURVE SMOOTH",
"1055 880 OFFCURVE",
"983 830 OFFCURVE",
"896 813 CURVE",
"896 810 OFFCURVE",
"896 806 OFFCURVE",
"896 803 CURVE",
"895 800 OFFCURVE",
"895 796 OFFCURVE",
"895 793 CURVE"
);
}
);
width = 1343;
}
);
unicode = 0033;
},
{
glyphname = four;
lastChange = "2012-06-10 13:53:25 +0000";
layers = (
{
layerId = "16808965-E153-4B2B-ADB3-00196C646C32";
name = Regular;
paths = (
{
closed = 1;
nodes = (
"534 1127 OFFCURVE",
"345 857 OFFCURVE",
"152 582 CURVE",
"319 585 OFFCURVE",
"482 586 OFFCURVE",
"649 586 CURVE",
"674 858 OFFCURVE",
"702 1123 OFFCURVE",
"737 1395 CURVE"
);
},
{
closed = 1;
nodes = (
"766 1456 OFFCURVE",
"845 1460 OFFCURVE",
"926 1464 CURVE",
"883 1169 OFFCURVE",
"858 879 OFFCURVE",
"838 584 CURVE",
"870 584 OFFCURVE",
"902 584 OFFCURVE",
"933 583 CURVE SMOOTH",
"964 582 OFFCURVE",
"995 582 OFFCURVE",
"1027 581 CURVE",
"1026 556 OFFCURVE",
"1024 532 OFFCURVE",
"1023 507 CURVE",
"1021 482 OFFCURVE",
"1019 458 OFFCURVE",
"1018 433 CURVE",
"986 434 OFFCURVE",
"954 436 OFFCURVE",
"923 437 CURVE SMOOTH",
"891 438 OFFCURVE",
"859 439 OFFCURVE",
"827 440 CURVE",
"826 393 OFFCURVE",
"825 349 OFFCURVE",
"825 302 CURVE SMOOTH",
"825 210 OFFCURVE",
"827 119 OFFCURVE",
"830 27 CURVE",
"746 34 OFFCURVE",
"664 36 OFFCURVE",
"580 37 CURVE",
"588 106 OFFCURVE",
"596 174 OFFCURVE",
"603 241 CURVE SMOOTH",
"610 308 OFFCURVE",
"618 376 OFFCURVE",
"627 444 CURVE",
"523 444 LINE SMOOTH",
"351 444 OFFCURVE",
"181 440 OFFCURVE",
"8 433 CURVE",
"13 472 OFFCURVE",
"17 507 OFFCURVE",
"21 546 CURVE",
"240 854 OFFCURVE",
"457 1154 OFFCURVE",
"686 1455 CURVE"
);
}
);
width = 1198;
}
);
unicode = 0034;
},
{
glyphname = five;
lastChange = "2012-06-10 13:53:25 +0000";
layers = (
{
layerId = "16808965-E153-4B2B-ADB3-00196C646C32";
name = Regular;
paths = (
{
closed = 1;
nodes = (
"536 1459 OFFCURVE",
"668 1452 OFFCURVE",
"803 1452 CURVE SMOOTH",
"927 1452 OFFCURVE",
"1052 1458 OFFCURVE",
"1177 1470 CURVE",
"1174 1449 OFFCURVE",
"1170 1427 OFFCURVE",
"1167 1405 CURVE SMOOTH",
"1164 1383 OFFCURVE",
"1160 1361 OFFCURVE",
"1157 1340 CURVE",
"1037 1329 OFFCURVE",
"919 1326 OFFCURVE",
"800 1326 CURVE SMOOTH",
"713 1326 OFFCURVE",
"627 1328 OFFCURVE",
"541 1332 CURVE",
"534 1199 OFFCURVE",
"527 1068 OFFCURVE",
"516 935 CURVE",
"581 950 OFFCURVE",
"646 965 OFFCURVE",
"713 965 CURVE SMOOTH",
"778 965 OFFCURVE",
"845 957 OFFCURVE",
"906 937 CURVE SMOOTH",
"967 917 OFFCURVE",
"1023 886 OFFCURVE",
"1068 839 CURVE SMOOTH",
"1145 756 OFFCURVE",
"1174 645 OFFCURVE",
"1174 529 CURVE SMOOTH",
"1174 460 OFFCURVE",
"1165 384 OFFCURVE",
"1141 312 CURVE SMOOTH",
"1117 240 OFFCURVE",
"1077 174 OFFCURVE",
"1014 125 CURVE SMOOTH",
"951 76 OFFCURVE",
"879 46 OFFCURVE",
"804 30 CURVE SMOOTH",
"728 13 OFFCURVE",
"650 8 OFFCURVE",
"577 8 CURVE SMOOTH",
"456 8 OFFCURVE",
"338 17 OFFCURVE",
"221 44 CURVE",
"230 92 OFFCURVE",
"237 140 OFFCURVE",
"244 188 CURVE SMOOTH",
"251 236 OFFCURVE",
"257 284 OFFCURVE",
"264 332 CURVE",
"365 277 OFFCURVE",
"481 259 OFFCURVE",
"600 259 CURVE SMOOTH",
"648 259 OFFCURVE",
"701 264 OFFCURVE",
"751 277 CURVE SMOOTH",
"801 290 OFFCURVE",
"848 312 OFFCURVE",
"888 348 CURVE SMOOTH",
"919 376 OFFCURVE",
"945 404 OFFCURVE",
"965 437 CURVE SMOOTH",
"984 469 OFFCURVE",
"995 506 OFFCURVE",
"995 551 CURVE SMOOTH",
"995 630 OFFCURVE",
"971 708 OFFCURVE",
"910 756 CURVE",
"834 811 OFFCURVE",
"748 822 OFFCURVE",
"668 822 CURVE SMOOTH",
"565 822 OFFCURVE",
"462 801 OFFCURVE",
"366 758 CURVE",
"387 998 OFFCURVE",
"400 1234 OFFCURVE",
"403 1474 CURVE"
);
}
);
width = 1298;
}
);
unicode = 0035;
},
{
glyphname = six;
lastChange = "2012-06-10 13:53:25 +0000";
layers = (
{
layerId = "16808965-E153-4B2B-ADB3-00196C646C32";
name = Regular;
paths = (
{
closed = 1;
nodes = (
"595 832 OFFCURVE",
"517 803 OFFCURVE",
"458 739 CURVE SMOOTH",
"425 702 OFFCURVE",
"398 655 OFFCURVE",
"381 607 CURVE SMOOTH",
"364 558 OFFCURVE",
"355 507 OFFCURVE",
"355 460 CURVE SMOOTH",
"355 385 OFFCURVE",
"394 338 OFFCURVE",
"448 309 CURVE SMOOTH",
"502 280 OFFCURVE",
"572 270 OFFCURVE",
"636 270 CURVE SMOOTH",
"701 270 OFFCURVE",
"775 285 OFFCURVE",
"832 320 CURVE SMOOTH",
"889 355 OFFCURVE",
"931 409 OFFCURVE",
"934 486 CURVE",
"934 493 OFFCURVE",
"934 501 OFFCURVE",
"935 509 CURVE",
"935 517 OFFCURVE",
"935 525 OFFCURVE",
"935 532 CURVE SMOOTH",
"935 608 OFFCURVE",
"922 680 OFFCURVE",
"878 740 CURVE",
"835 804 OFFCURVE",
"755 832 OFFCURVE",
"676 832 CURVE SMOOTH"
);
},
{
closed = 1;
nodes = (
"1120 1450 LINE",
"1111 1394 OFFCURVE",
"1103 1339 OFFCURVE",
"1096 1283 CURVE",
"1013 1316 OFFCURVE",
"924 1335 OFFCURVE",
"832 1335 CURVE SMOOTH",
"773 1335 OFFCURVE",
"712 1327 OFFCURVE",
"655 1307 CURVE SMOOTH",
"598 1287 OFFCURVE",
"545 1253 OFFCURVE",
"505 1204 CURVE SMOOTH",
"452 1139 OFFCURVE",
"419 1067 OFFCURVE",
"396 993 CURVE SMOOTH",
"372 919 OFFCURVE",
"360 843 OFFCURVE",
"348 770 CURVE",
"391 830 OFFCURVE",
"446 879 OFFCURVE",
"508 913 CURVE SMOOTH",
"570 947 OFFCURVE",
"638 966 OFFCURVE",
"709 966 CURVE SMOOTH",
"766 966 OFFCURVE",
"826 957 OFFCURVE",
"879 937 CURVE SMOOTH",
"932 917 OFFCURVE",
"979 885 OFFCURVE",
"1015 841 CURVE SMOOTH",
"1051 800 OFFCURVE",
"1073 751 OFFCURVE",
"1088 699 CURVE SMOOTH",
"1103 647 OFFCURVE",
"1108 592 OFFCURVE",
"1108 537 CURVE SMOOTH",
"1108 468 OFFCURVE",
"1100 392 OFFCURVE",
"1079 321 CURVE SMOOTH",
"1058 249 OFFCURVE",
"1020 182 OFFCURVE",
"963 129 CURVE SMOOTH",
"912 80 OFFCURVE",
"852 50 OFFCURVE",
"788 33 CURVE SMOOTH",
"724 16 OFFCURVE",
"656 10 OFFCURVE",
"592 10 CURVE SMOOTH",
"521 10 OFFCURVE",
"451 23 OFFCURVE",
"390 52 CURVE SMOOTH",
"329 80 OFFCURVE",
"277 123 OFFCURVE",
"244 186 CURVE SMOOTH",
"185 295 OFFCURVE",
"170 418 OFFCURVE",
"170 546 CURVE SMOOTH",
"170 659 OFFCURVE",
"175 793 OFFCURVE",
"203 925 CURVE SMOOTH",
"231 1056 OFFCURVE",
"281 1185 OFFCURVE",
"370 1288 CURVE SMOOTH",
"431 1361 OFFCURVE",
"508 1410 OFFCURVE",
"591 1440 CURVE SMOOTH",
"674 1470 OFFCURVE",
"764 1481 OFFCURVE",
"851 1481 CURVE SMOOTH",
"946 1481 OFFCURVE",
"1038 1465 OFFCURVE",
"1127 1442 CURVE",
"1120 1449 LINE"
);
}
);
width = 1370;
}
);
unicode = 0036;
},
{
glyphname = seven;
lastChange = "2012-06-10 13:53:25 +0000";
layers = (
{
layerId = "16808965-E153-4B2B-ADB3-00196C646C32";
name = Regular;
paths = (
{
closed = 1;
nodes = (
"189 1463 OFFCURVE",
"339 1453 OFFCURVE",
"491 1453 CURVE SMOOTH",
"652 1453 OFFCURVE",
"810 1464 OFFCURVE",
"970 1484 CURVE",
"968 1471 OFFCURVE",
"966 1459 OFFCURVE",
"964 1447 CURVE",
"961 1435 OFFCURVE",
"959 1423 OFFCURVE",
"958 1410 CURVE",
"863 1185 OFFCURVE",
"782 956 OFFCURVE",
"704 727 CURVE SMOOTH",
"665 612 OFFCURVE",
"626 497 OFFCURVE",
"589 382 CURVE SMOOTH",
"551 267 OFFCURVE",
"513 152 OFFCURVE",
"474 37 CURVE",
"457 38 OFFCURVE",
"440 38 OFFCURVE",
"423 38 CURVE SMOOTH",
"406 38 OFFCURVE",
"389 38 OFFCURVE",
"372 38 CURVE SMOOTH",
"292 38 OFFCURVE",
"214 36 OFFCURVE",
"134 31 CURVE",
"250 246 OFFCURVE",
"358 465 OFFCURVE",
"466 685 CURVE SMOOTH",
"573 904 OFFCURVE",
"678 1123 OFFCURVE",
"793 1339 CURVE",
"685 1332 OFFCURVE",
"578 1327 OFFCURVE",
"470 1327 CURVE SMOOTH",
"325 1327 OFFCURVE",
"182 1334 OFFCURVE",
"39 1353 CURVE",
"40 1375 OFFCURVE",
"40 1397 OFFCURVE",
"40 1419 CURVE SMOOTH",
"40 1440 OFFCURVE",
"40 1462 OFFCURVE",
"40 1484 CURVE"
);
}
);
width = 1077;
}
);
unicode = 0037;
},
{
glyphname = eight;
lastChange = "2012-06-10 13:53:25 +0000";
layers = (
{
layerId = "16808965-E153-4B2B-ADB3-00196C646C32";
name = Regular;
paths = (
{
closed = 1;
nodes = (
"615 738 OFFCURVE",
"532 716 OFFCURVE",
"468 660 CURVE SMOOTH",
"403 603 OFFCURVE",
"366 512 OFFCURVE",
"367 429 CURVE SMOOTH",
"367 377 OFFCURVE",
"396 334 OFFCURVE",
"432 299 CURVE SMOOTH",
"460 272 OFFCURVE",
"495 255 OFFCURVE",
"533 245 CURVE SMOOTH",
"571 235 OFFCURVE",
"611 231 OFFCURVE",
"651 231 CURVE SMOOTH",
"690 231 OFFCURVE",
"731 235 OFFCURVE",
"771 245 CURVE SMOOTH",
"811 255 OFFCURVE",
"849 272 OFFCURVE",
"881 299 CURVE SMOOTH",
"937 346 OFFCURVE",
"972 399 OFFCURVE",
"973 474 CURVE SMOOTH",
"973 545 OFFCURVE",
"954 610 OFFCURVE",
"907 661 CURVE SMOOTH",
"852 718 OFFCURVE",
"775 739 OFFCURVE",
"695 738 CURVE SMOOTH"
);
},
{
closed = 1;
nodes = (
"513 801 LINE",
"445 814 OFFCURVE",
"392 852 OFFCURVE",
"356 904 CURVE SMOOTH",
"320 956 OFFCURVE",
"300 1020 OFFCURVE",
"300 1087 CURVE SMOOTH",
"300 1140 OFFCURVE",
"308 1193 OFFCURVE",
"327 1242 CURVE SMOOTH",
"346 1291 OFFCURVE",
"377 1335 OFFCURVE",
"422 1371 CURVE",
"423 1370 LINE",
"471 1407 OFFCURVE",
"527 1430 OFFCURVE",
"585 1443 CURVE SMOOTH",
"643 1456 OFFCURVE",
"702 1461 OFFCURVE",
"759 1461 CURVE SMOOTH",
"816 1461 OFFCURVE",
"875 1458 OFFCURVE",
"930 1445 CURVE SMOOTH",
"985 1432 OFFCURVE",
"1036 1409 OFFCURVE",
"1079 1372 CURVE SMOOTH",
"1135 1323 OFFCURVE",
"1159 1251 OFFCURVE",
"1159 1175 CURVE SMOOTH",
"1159 1095 OFFCURVE",
"1135 1009 OFFCURVE",
"1088 940 CURVE SMOOTH",
"1041 871 OFFCURVE",
"974 817 OFFCURVE",
"886 801 CURVE",
"884 784 LINE",
"964 765 OFFCURVE",
"1034 725 OFFCURVE",
"1083 669 CURVE SMOOTH",
"1131 612 OFFCURVE",
"1161 538 OFFCURVE",
"1161 450 CURVE SMOOTH",
"1161 390 OFFCURVE",
"1153 324 OFFCURVE",
"1130 264 CURVE SMOOTH",
"1107 203 OFFCURVE",
"1072 148 OFFCURVE",
"1016 108 CURVE SMOOTH",
"960 68 OFFCURVE",
"897 43 OFFCURVE",
"831 28 CURVE SMOOTH",
"765 13 OFFCURVE",
"697 9 OFFCURVE",
"632 9 CURVE SMOOTH",
"565 9 OFFCURVE",
"499 14 OFFCURVE",
"436 28 CURVE SMOOTH",
"373 42 OFFCURVE",
"314 67 OFFCURVE",
"263 107 CURVE SMOOTH",
"192 164 OFFCURVE",
"168 255 OFFCURVE",
"168 347 CURVE SMOOTH",
"168 400 OFFCURVE",
"176 457 OFFCURVE",
"194 510 CURVE SMOOTH",
"212 563 OFFCURVE",
"240 614 OFFCURVE",
"281 655 CURVE",
"342 722 OFFCURVE",
"426 763 OFFCURVE",
"511 782 CURVE"
);
},
{
closed = 1;
nodes = (
"456 1147 OFFCURVE",
"455 1135 OFFCURVE",
"455 1124 CURVE SMOOTH",
"455 1061 OFFCURVE",
"482 1008 OFFCURVE",
"526 970 CURVE SMOOTH",
"569 932 OFFCURVE",
"627 908 OFFCURVE",
"688 908 CURVE SMOOTH",
"691 908 OFFCURVE",
"695 908 OFFCURVE",
"699 908 CURVE SMOOTH",
"702 908 OFFCURVE",
"706 908 OFFCURVE",
"710 909 CURVE",
"713 908 OFFCURVE",
"717 908 OFFCURVE",
"721 908 CURVE SMOOTH",
"725 908 OFFCURVE",
"729 908 OFFCURVE",
"732 908 CURVE SMOOTH",
"807 908 OFFCURVE",
"875 939 OFFCURVE",
"926 989 CURVE SMOOTH",
"977 1039 OFFCURVE",
"1008 1108 OFFCURVE",
"1008 1184 CURVE SMOOTH",
"1008 1257 OFFCURVE",
"975 1308 OFFCURVE",
"925 1339 CURVE SMOOTH",
"875 1370 OFFCURVE",
"810 1383 OFFCURVE",
"746 1383 CURVE SMOOTH",
"679 1383 OFFCURVE",
"610 1364 OFFCURVE",
"555 1328 CURVE SMOOTH",
"499 1291 OFFCURVE",
"461 1235 OFFCURVE",
"458 1159 CURVE"
);
}
);
width = 1399;
}
);
unicode = 0038;
},
{
glyphname = nine;
lastChange = "2012-06-10 13:53:25 +0000";
layers = (
{
layerId = "16808965-E153-4B2B-ADB3-00196C646C32";
name = Regular;
paths = (
{
closed = 1;
nodes = (
"183 40 LINE",
"199 136 OFFCURVE",
"211 229 OFFCURVE",
"223 325 CURVE",
"306 288 OFFCURVE",
"394 270 OFFCURVE",
"487 270 CURVE SMOOTH",
"539 270 OFFCURVE",
"595 272 OFFCURVE",
"650 283 CURVE SMOOTH",
"705 294 OFFCURVE",
"757 310 OFFCURVE",
"805 341 CURVE",
"862 388 OFFCURVE",
"893 450 OFFCURVE",
"913 518 CURVE SMOOTH",
"923 551 OFFCURVE",
"931 585 OFFCURVE",
"937 620 CURVE SMOOTH",
"942 655 OFFCURVE",
"948 688 OFFCURVE",
"954 721 CURVE",
"911 661 OFFCURVE",
"858 612 OFFCURVE",
"796 578 CURVE SMOOTH",
"734 544 OFFCURVE",
"665 524 OFFCURVE",
"593 524 CURVE SMOOTH",
"534 524 OFFCURVE",
"476 533 OFFCURVE",
"423 553 CURVE SMOOTH",
"370 573 OFFCURVE",
"323 604 OFFCURVE",
"287 649 CURVE SMOOTH",
"252 690 OFFCURVE",
"230 740 OFFCURVE",
"216 793 CURVE SMOOTH",
"202 845 OFFCURVE",
"196 902 OFFCURVE",
"196 958 CURVE SMOOTH",
"196 1026 OFFCURVE",
"204 1100 OFFCURVE",
"226 1171 CURVE SMOOTH",
"248 1242 OFFCURVE",
"283 1308 OFFCURVE",
"340 1360 CURVE SMOOTH",
"392 1408 OFFCURVE",
"452 1438 OFFCURVE",
"516 1456 CURVE SMOOTH",
"579 1474 OFFCURVE",
"646 1480 OFFCURVE",
"711 1480 CURVE SMOOTH",
"779 1480 OFFCURVE",
"847 1468 OFFCURVE",
"908 1441 CURVE SMOOTH",
"968 1413 OFFCURVE",
"1020 1372 OFFCURVE",
"1053 1313 CURVE SMOOTH",
"1116 1194 OFFCURVE",
"1132 1062 OFFCURVE",
"1132 933 CURVE SMOOTH",
"1132 818 OFFCURVE",
"1125 686 OFFCURVE",
"1097 558 CURVE SMOOTH",
"1069 429 OFFCURVE",
"1019 301 OFFCURVE",
"931 200 CURVE SMOOTH",
"871 128 OFFCURVE",
"796 80 OFFCURVE",
"714 50 CURVE SMOOTH",
"632 20 OFFCURVE",
"542 8 OFFCURVE",
"457 8 CURVE SMOOTH",
"361 8 OFFCURVE",
"269 22 OFFCURVE",
"178 49 CURVE",
"181 46 OFFCURVE",
"183 44 OFFCURVE",
"183 41 CURVE SMOOTH"
);
},
{
closed = 1;
nodes = (
"707 793 OFFCURVE",
"795 800 OFFCURVE",
"875 832 CURVE SMOOTH",
"927 852 OFFCURVE",
"957 899 OFFCURVE",
"974 949 CURVE SMOOTH",
"991 999 OFFCURVE",
"995 1053 OFFCURVE",
"995 1093 CURVE SMOOTH",
"995 1166 OFFCURVE",
"977 1237 OFFCURVE",
"926 1286 CURVE",
"893 1321 OFFCURVE",
"851 1344 OFFCURVE",
"806 1357 CURVE SMOOTH",
"761 1370 OFFCURVE",
"711 1375 OFFCURVE",
"662 1375 CURVE SMOOTH",
"570 1375 OFFCURVE",
"476 1351 OFFCURVE",
"403 1287 CURVE SMOOTH",
"363 1252 OFFCURVE",
"334 1207 OFFCURVE",
"317 1159 CURVE SMOOTH",
"300 1110 OFFCURVE",
"292 1058 OFFCURVE",
"292 1009 CURVE SMOOTH",
"292 974 OFFCURVE",
"296 936 OFFCURVE",
"308 904 CURVE SMOOTH",
"320 872 OFFCURVE",
"340 844 OFFCURVE",
"375 831 CURVE",
"452 799 OFFCURVE",
"538 794 OFFCURVE",
"623 793 CURVE SMOOTH"
);
}
);
width = 1378;
}
);
unicode = 0039;
},
{
glyphname = colon;
lastChange = "2012-06-10 13:53:25 +0000";
layers = (
{
layerId = "16808965-E153-4B2B-ADB3-00196C646C32";
name = Regular;
paths = (
{
closed = 1;
nodes = (
"344 302 OFFCURVE",
"384 306 OFFCURVE",
"424 306 CURVE SMOOTH",
"462 306 OFFCURVE",
"499 303 OFFCURVE",
"535 297 CURVE",
"532 249 OFFCURVE",
"529 201 OFFCURVE",
"526 154 CURVE SMOOTH",
"523 106 OFFCURVE",
"519 58 OFFCURVE",
"516 10 CURVE",
"480 25 OFFCURVE",
"440 30 OFFCURVE",
"400 30 CURVE SMOOTH",
"358 30 OFFCURVE",
"316 23 OFFCURVE",
"274 10 CURVE",
"286 106 OFFCURVE",
"296 201 OFFCURVE",
"305 297 CURVE"
);
},
{
closed = 1;
nodes = (
"406 1077 OFFCURVE",
"445 1069 OFFCURVE",
"486 1069 CURVE SMOOTH",
"529 1069 OFFCURVE",
"570 1077 OFFCURVE",
"611 1092 CURVE",
"600 1003 OFFCURVE",
"590 914 OFFCURVE",
"582 825 CURVE",
"542 817 OFFCURVE",
"502 813 OFFCURVE",
"463 813 CURVE SMOOTH",
"424 813 OFFCURVE",
"387 817 OFFCURVE",
"351 826 CURVE",
"355 871 OFFCURVE",
"358 915 OFFCURVE",
"361 959 CURVE SMOOTH",
"363 1003 OFFCURVE",
"366 1047 OFFCURVE",
"369 1092 CURVE"
);
}
);
width = 807;
}
);
unicode = 003A;
},
{
glyphname = semicolon;
lastChange = "2012-06-10 13:53:25 +0000";
layers = (
{
layerId = "16808965-E153-4B2B-ADB3-00196C646C32";
name = Regular;
paths = (
{
closed = 1;
nodes = (
"322 1059 OFFCURVE",
"343 1058 OFFCURVE",
"366 1058 CURVE SMOOTH",
"419 1058 OFFCURVE",
"473 1066 OFFCURVE",
"525 1086 CURVE",
"520 1040 OFFCURVE",
"514 994 OFFCURVE",
"509 949 CURVE SMOOTH",
"504 903 OFFCURVE",
"499 857 OFFCURVE",
"494 811 CURVE",
"443 798 OFFCURVE",
"395 794 OFFCURVE",
"344 794 CURVE SMOOTH",
"333 794 OFFCURVE",
"322 794 OFFCURVE",
"311 794 CURVE SMOOTH",
"300 794 OFFCURVE",
"290 795 OFFCURVE",
"279 796 CURVE",
"284 841 OFFCURVE",
"287 885 OFFCURVE",
"290 929 CURVE SMOOTH",
"293 973 OFFCURVE",
"296 1017 OFFCURVE",
"299 1062 CURVE"
);
},
{
closed = 1;
nodes = (
"247 213 OFFCURVE",
"259 213 OFFCURVE",
"272 214 CURVE",
"284 214 OFFCURVE",
"297 214 OFFCURVE",
"310 214 CURVE SMOOTH",
"351 214 OFFCURVE",
"391 213 OFFCURVE",
"434 209 CURVE",
"433 179 OFFCURVE",
"431 150 OFFCURVE",
"428 121 CURVE SMOOTH",
"425 92 OFFCURVE",
"422 62 OFFCURVE",
"420 32 CURVE",
"387 -23 OFFCURVE",
"353 -77 OFFCURVE",
"320 -130 CURVE SMOOTH",
"287 -184 OFFCURVE",
"254 -238 OFFCURVE",
"221 -293 CURVE",
"178 -296 OFFCURVE",
"136 -303 OFFCURVE",
"96 -318 CURVE",
"116 -258 OFFCURVE",
"136 -199 OFFCURVE",
"157 -140 CURVE SMOOTH",
"177 -82 OFFCURVE",
"197 -23 OFFCURVE",
"218 37 CURVE",
"220 67 OFFCURVE",
"223 96 OFFCURVE",
"226 125 CURVE SMOOTH",
"229 154 OFFCURVE",
"232 183 OFFCURVE",
"234 213 CURVE"
);
}
);
width = 555;
}
);
unicode = 003B;
},
{
glyphname = less;
lastChange = "2012-06-10 13:53:25 +0000";
layers = (
{
layerId = "16808965-E153-4B2B-ADB3-00196C646C32";
name = Regular;
paths = (
{
closed = 1;
nodes = (
"922 885 OFFCURVE",
"572 798 OFFCURVE",
"216 710 CURVE",
"371 633 OFFCURVE",
"525 558 OFFCURVE",
"680 485 CURVE SMOOTH",
"834 411 OFFCURVE",
"988 335 OFFCURVE",
"1141 256 CURVE",
"1134 183 OFFCURVE",
"1131 111 OFFCURVE",
"1131 38 CURVE",
"944 134 OFFCURVE",
"755 225 OFFCURVE",
"566 317 CURVE SMOOTH",
"377 408 OFFCURVE",
"187 500 OFFCURVE",
"2 597 CURVE",
"14 668 OFFCURVE",
"26 736 OFFCURVE",
"33 807 CURVE",
"249 860 OFFCURVE",
"466 914 OFFCURVE",
"682 970 CURVE SMOOTH",
"897 1026 OFFCURVE",
"1112 1086 OFFCURVE",
"1325 1154 CURVE",
"1307 1100 OFFCURVE",
"1290 1046 OFFCURVE",
"1275 992 CURVE"
);
}
);
width = 1569;
}
);
unicode = 003C;
},
{
glyphname = equal;
lastChange = "2012-06-10 13:53:25 +0000";
layers = (
{
layerId = "16808965-E153-4B2B-ADB3-00196C646C32";
name = Regular;
paths = (
{
closed = 1;
nodes = (
"526 912 OFFCURVE",
"728 909 OFFCURVE",
"932 909 CURVE SMOOTH",
"1152 909 OFFCURVE",
"1365 913 OFFCURVE",
"1585 920 CURVE",
"1565 871 OFFCURVE",
"1549 822 OFFCURVE",
"1538 771 CURVE",
"1331 767 OFFCURVE",
"1124 765 OFFCURVE",
"919 765 CURVE SMOOTH",
"726 765 OFFCURVE",
"533 767 OFFCURVE",
"341 771 CURVE",
"339 822 OFFCURVE",
"333 871 OFFCURVE",
"323 920 CURVE"
);
},
{
closed = 1;
nodes = (
"544 545 OFFCURVE",
"758 546 OFFCURVE",
"977 546 CURVE SMOOTH",
"1157 546 OFFCURVE",
"1334 545 OFFCURVE",
"1514 542 CURVE",
"1514 481 OFFCURVE",
"1520 421 OFFCURVE",
"1536 362 CURVE",
"1329 369 OFFCURVE",
"1124 373 OFFCURVE",
"917 373 CURVE SMOOTH",
"702 373 OFFCURVE",
"489 369 OFFCURVE",
"274 362 CURVE",
"298 421 OFFCURVE",
"314 481 OFFCURVE",
"325 542 CURVE"
);
}
);
width = 1831;
}
);
unicode = 003D;
},
{
glyphname = greater;
lastChange = "2012-06-10 13:53:25 +0000";
layers = (
{
layerId = "16808965-E153-4B2B-ADB3-00196C646C32";
name = Regular;
paths = (
{
closed = 1;
nodes = (
"412 1136 OFFCURVE",
"414 1162 OFFCURVE",
"417 1189 CURVE SMOOTH",
"419 1215 OFFCURVE",
"420 1241 OFFCURVE",
"421 1268 CURVE",
"606 1171 OFFCURVE",
"796 1079 OFFCURVE",
"985 988 CURVE SMOOTH",
"1173 896 OFFCURVE",
"1362 805 OFFCURVE",
"1549 709 CURVE",
"1536 638 OFFCURVE",
"1524 569 OFFCURVE",
"1517 497 CURVE",
"1409 470 OFFCURVE",
"1301 443 OFFCURVE",
"1193 416 CURVE SMOOTH",
"977 362 OFFCURVE",
"762 306 OFFCURVE",
"548 246 CURVE SMOOTH",
"441 216 OFFCURVE",
"334 184 OFFCURVE",
"227 151 CURVE",
"252 223 OFFCURVE",
"271 296 OFFCURVE",
"290 371 CURVE",
"464 422 OFFCURVE",
"639 470 OFFCURVE",
"814 515 CURVE SMOOTH",
"989 560 OFFCURVE",
"1164 605 OFFCURVE",
"1339 651 CURVE",
"1185 728 OFFCURVE",
"1030 804 OFFCURVE",
"874 878 CURVE SMOOTH",
"718 952 OFFCURVE",
"564 1029 OFFCURVE",
"411 1109 CURVE"
);
}
);
width = 1569;
}
);
unicode = 003E;
},
{
glyphname = question;
lastChange = "2012-06-10 13:53:25 +0000";
layers = (
{
layerId = "16808965-E153-4B2B-ADB3-00196C646C32";
name = Regular;
paths = (
{
closed = 1;
nodes = (
"277 281 OFFCURVE",
"343 283 OFFCURVE",
"408 283 CURVE SMOOTH",
"448 283 LINE",
"445 240 OFFCURVE",
"441 198 OFFCURVE",
"438 156 CURVE SMOOTH",
"435 113 OFFCURVE",
"431 71 OFFCURVE",
"428 28 CURVE",
"388 28 LINE SMOOTH",
"320 28 OFFCURVE",
"251 26 OFFCURVE",
"182 21 CURVE",
"187 64 OFFCURVE",
"193 107 OFFCURVE",
"198 150 CURVE SMOOTH",
"203 192 OFFCURVE",
"208 235 OFFCURVE",
"213 278 CURVE"
);
},
{
closed = 1;
nodes = (
"387 424 OFFCURVE",
"312 423 OFFCURVE",
"233 420 CURVE",
"236 446 OFFCURVE",
"238 472 OFFCURVE",
"240 497 CURVE SMOOTH",
"244 548 OFFCURVE",
"250 598 OFFCURVE",
"262 648 CURVE SMOOTH",
"274 698 OFFCURVE",
"297 753 OFFCURVE",
"341 801 CURVE SMOOTH",
"362 824 OFFCURVE",
"385 847 OFFCURVE",
"408 868 CURVE",
"408 867 LINE",
"426 880 OFFCURVE",
"443 895 OFFCURVE",
"460 910 CURVE SMOOTH",
"476 925 OFFCURVE",
"493 939 OFFCURVE",
"511 952 CURVE",
"510 952 LINE",
"543 977 OFFCURVE",
"586 1009 OFFCURVE",
"621 1045 CURVE SMOOTH",
"656 1081 OFFCURVE",
"682 1121 OFFCURVE",
"682 1164 CURVE SMOOTH",
"682 1228 OFFCURVE",
"657 1278 OFFCURVE",
"617 1314 CURVE SMOOTH",
"577 1349 OFFCURVE",
"522 1368 OFFCURVE",
"462 1368 CURVE SMOOTH",
"345 1368 OFFCURVE",
"228 1322 OFFCURVE",
"121 1266 CURVE",
"122 1289 OFFCURVE",
"123 1311 OFFCURVE",
"124 1333 CURVE SMOOTH",
"125 1355 OFFCURVE",
"126 1377 OFFCURVE",
"127 1400 CURVE",
"250 1452 OFFCURVE",
"378 1479 OFFCURVE",
"507 1479 CURVE SMOOTH",
"555 1479 OFFCURVE",
"605 1476 OFFCURVE",
"653 1465 CURVE SMOOTH",
"700 1453 OFFCURVE",
"743 1434 OFFCURVE",
"779 1402 CURVE SMOOTH",
"830 1355 OFFCURVE",
"852 1289 OFFCURVE",
"852 1220 CURVE SMOOTH",
"852 1148 OFFCURVE",
"828 1086 OFFCURVE",
"792 1029 CURVE SMOOTH",
"756 972 OFFCURVE",
"707 921 OFFCURVE",
"659 870 CURVE SMOOTH",
"631 841 OFFCURVE",
"604 813 OFFCURVE",
"576 785 CURVE",
"569 774 OFFCURVE",
"562 764 OFFCURVE",
"555 754 CURVE",
"548 743 OFFCURVE",
"541 733 OFFCURVE",
"534 723 CURVE",
"534 724 LINE",
"527 714 OFFCURVE",
"519 704 OFFCURVE",
"512 694 CURVE SMOOTH",
"505 684 OFFCURVE",
"499 673 OFFCURVE",
"495 662 CURVE SMOOTH",
"482 624 OFFCURVE",
"474 585 OFFCURVE",
"472 544 CURVE SMOOTH",
"470 503 OFFCURVE",
"467 463 OFFCURVE",
"464 424 CURVE"
);
}
);
width = 961;
}
);
unicode = 003F;
},
{
glyphname = at;
lastChange = "2012-06-10 13:53:25 +0000";
layers = (
{
layerId = "16808965-E153-4B2B-ADB3-00196C646C32";
name = Regular;
paths = (
{
closed = 1;
nodes = (
"713 603 OFFCURVE",
"712 590 OFFCURVE",
"712 578 CURVE SMOOTH",
"712 502 OFFCURVE",
"737 443 OFFCURVE",
"780 403 CURVE SMOOTH",
"823 363 OFFCURVE",
"883 342 OFFCURVE",
"954 342 CURVE SMOOTH",
"1022 342 OFFCURVE",
"1093 363 OFFCURVE",
"1144 414 CURVE SMOOTH",
"1208 478 OFFCURVE",
"1232 569 OFFCURVE",
"1232 653 CURVE SMOOTH",
"1232 726 OFFCURVE",
"1206 785 OFFCURVE",
"1163 825 CURVE SMOOTH",
"1120 864 OFFCURVE",
"1060 885 OFFCURVE",
"991 885 CURVE SMOOTH",
"922 885 OFFCURVE",
"852 863 OFFCURVE",
"800 812 CURVE SMOOTH",
"744 759 OFFCURVE",
"721 687 OFFCURVE",
"714 615 CURVE SMOOTH"
);
},
{
closed = 1;
nodes = (
"1206 228 OFFCURVE",
"1159 188 OFFCURVE",
"1105 160 CURVE SMOOTH",
"1051 131 OFFCURVE",
"992 115 OFFCURVE",
"932 115 CURVE SMOOTH",
"828 115 OFFCURVE",
"734 146 OFFCURVE",
"674 229 CURVE",
"619 298 OFFCURVE",
"600 386 OFFCURVE",
"600 477 CURVE SMOOTH",
"600 540 OFFCURVE",
"608 606 OFFCURVE",
"628 670 CURVE SMOOTH",
"648 733 OFFCURVE",
"680 792 OFFCURVE",
"728 841 CURVE SMOOTH",
"803 922 OFFCURVE",
"901 957 OFFCURVE",
"1005 957 CURVE SMOOTH",
"1065 957 OFFCURVE",
"1121 940 OFFCURVE",
"1170 912 CURVE SMOOTH",
"1219 883 OFFCURVE",
"1259 843 OFFCURVE",
"1290 796 CURVE",
"1293 820 OFFCURVE",
"1296 844 OFFCURVE",
"1299 868 CURVE SMOOTH",
"1302 892 OFFCURVE",
"1304 916 OFFCURVE",
"1306 940 CURVE",
"1345 940 OFFCURVE",
"1383 941 OFFCURVE",
"1422 942 CURVE",
"1395 702 OFFCURVE",
"1373 468 OFFCURVE",
"1357 228 CURVE",
"1450 241 OFFCURVE",
"1538 284 OFFCURVE",
"1598 361 CURVE SMOOTH",
"1638 413 OFFCURVE",
"1666 475 OFFCURVE",
"1683 537 CURVE SMOOTH",
"1699 599 OFFCURVE",
"1706 663 OFFCURVE",
"1706 723 CURVE SMOOTH",
"1706 830 OFFCURVE",
"1681 933 OFFCURVE",
"1625 1021 CURVE",
"1566 1105 OFFCURVE",
"1484 1168 OFFCURVE",
"1392 1211 CURVE SMOOTH",
"1299 1254 OFFCURVE",
"1193 1275 OFFCURVE",
"1088 1275 CURVE SMOOTH",
"933 1275 OFFCURVE",
"775 1237 OFFCURVE",
"638 1153 CURVE",
"639 1153 LINE",
"515 1080 OFFCURVE",
"425 971 OFFCURVE",
"365 848 CURVE SMOOTH",
"305 725 OFFCURVE",
"277 586 OFFCURVE",
"277 453 CURVE SMOOTH",
"277 393 OFFCURVE",
"284 335 OFFCURVE",
"308 283 CURVE SMOOTH",
"347 199 OFFCURVE",
"404 128 OFFCURVE",
"460 56 CURVE",
"521 -13 OFFCURVE",
"597 -57 OFFCURVE",
"681 -82 CURVE SMOOTH",
"765 -107 OFFCURVE",
"857 -116 OFFCURVE",
"948 -117 CURVE SMOOTH",
"1111 -116 OFFCURVE",
"1280 -75 OFFCURVE",
"1420 25 CURVE",
"1443 -31 OFFCURVE",
"1465 -83 OFFCURVE",
"1492 -136 CURVE",
"1323 -256 OFFCURVE",
"1125 -313 OFFCURVE",
"928 -313 CURVE SMOOTH",
"817 -313 OFFCURVE",
"705 -295 OFFCURVE",
"603 -257 CURVE SMOOTH",
"501 -219 OFFCURVE",
"409 -160 OFFCURVE",
"338 -79 CURVE SMOOTH",
"275 -11 OFFCURVE",
"232 71 OFFCURVE",
"204 159 CURVE SMOOTH",
"176 247 OFFCURVE",
"164 342 OFFCURVE",
"164 437 CURVE SMOOTH",
"164 562 OFFCURVE",
"185 696 OFFCURVE",
"230 821 CURVE SMOOTH",
"275 945 OFFCURVE",
"346 1062 OFFCURVE",
"445 1157 CURVE",
"538 1237 OFFCURVE",
"647 1297 OFFCURVE",
"761 1337 CURVE SMOOTH",
"875 1377 OFFCURVE",
"994 1396 OFFCURVE",
"1113 1396 CURVE SMOOTH",
"1237 1396 OFFCURVE",
"1357 1372 OFFCURVE",
"1462 1324 CURVE SMOOTH",
"1567 1275 OFFCURVE",
"1657 1202 OFFCURVE",
"1721 1105 CURVE SMOOTH",
"1785 1008 OFFCURVE",
"1822 887 OFFCURVE",
"1822 740 CURVE SMOOTH",
"1822 657 OFFCURVE",
"1810 567 OFFCURVE",
"1782 482 CURVE SMOOTH",
"1754 397 OFFCURVE",
"1709 316 OFFCURVE",
"1641 253 CURVE SMOOTH",
"1585 201 OFFCURVE",
"1519 166 OFFCURVE",
"1449 143 CURVE SMOOTH",
"1379 120 OFFCURVE",
"1304 110 OFFCURVE",
"1233 110 CURVE",
"1235 138 OFFCURVE",
"1237 166 OFFCURVE",
"1239 193 CURVE SMOOTH",
"1241 220 OFFCURVE",
"1243 248 OFFCURVE",
"1245 276 CURVE"
);
}
);
width = 2081;
}
);
unicode = 0040;
},
{
glyphname = A;
lastChange = "2012-06-10 13:53:26 +0000";
layers = (
{
anchors = (
{
name = ogonek;
position = "{1356, 10}";
},
{
name = top;
position = "{754, 1454}";
}
);
layerId = "16808965-E153-4B2B-ADB3-00196C646C32";
name = Regular;
paths = (
{
closed = 1;
nodes = (
"794 1175 OFFCURVE",
"737 1036 OFFCURVE",
"681 897 CURVE SMOOTH",
"625 758 OFFCURVE",
"567 619 OFFCURVE",
"508 480 CURVE",
"600 481 OFFCURVE",
"688 482 OFFCURVE",
"780 482 CURVE SMOOTH",
"826 482 OFFCURVE",
"871 482 OFFCURVE",
"916 482 CURVE SMOOTH",
"961 481 OFFCURVE",
"1006 481 OFFCURVE",
"1052 481 CURVE",
"1017 620 OFFCURVE",
"984 759 OFFCURVE",
"952 898 CURVE SMOOTH",
"920 1036 OFFCURVE",
"887 1175 OFFCURVE",
"853 1314 CURVE"
);
},
{
closed = 1;
nodes = (
"955 1454 LINE",
"991 1333 OFFCURVE",
"1026 1211 OFFCURVE",
"1060 1089 CURVE SMOOTH",
"1127 845 OFFCURVE",
"1197 603 OFFCURVE",
"1277 364 CURVE SMOOTH",
"1317 244 OFFCURVE",
"1361 126 OFFCURVE",
"1410 10 CURVE",
"1322 18 OFFCURVE",
"1234 25 OFFCURVE",
"1145 29 CURVE",
"1126 107 OFFCURVE",
"1109 187 OFFCURVE",
"1094 268 CURVE",
"982 271 OFFCURVE",
"874 272 OFFCURVE",
"762 272 CURVE SMOOTH",
"650 272 OFFCURVE",
"541 271 OFFCURVE",
"430 268 CURVE",
"397 187 OFFCURVE",
"360 108 OFFCURVE",
"321 28 CURVE",
"237 23 OFFCURVE",
"153 17 OFFCURVE",
"70 10 CURVE",
"206 243 OFFCURVE",
"324 483 OFFCURVE",
"439 726 CURVE SMOOTH",
"496 847 OFFCURVE",
"553 969 OFFCURVE",
"609 1091 CURVE SMOOTH",
"664 1212 OFFCURVE",
"721 1333 OFFCURVE",
"780 1454 CURVE"
);
}
);
width = 1507;
}
);
unicode = 0041;
},
{
glyphname = B;
lastChange = "2012-06-10 13:53:25 +0000";
layers = (
{
layerId = "16808965-E153-4B2B-ADB3-00196C646C32";
name = Regular;
paths = (
{
closed = 1;
nodes = (
"539 723 LINE",
"532 652 OFFCURVE",
"525 581 OFFCURVE",
"518 510 CURVE SMOOTH",
"511 439 OFFCURVE",
"502 368 OFFCURVE",
"493 297 CURVE",
"601 301 OFFCURVE",
"708 304 OFFCURVE",
"816 304 CURVE SMOOTH",
"896 304 OFFCURVE",
"979 308 OFFCURVE",
"1055 347 CURVE",
"1087 366 OFFCURVE",
"1110 396 OFFCURVE",
"1126 431 CURVE SMOOTH",
"1141 466 OFFCURVE",
"1147 503 OFFCURVE",
"1147 538 CURVE SMOOTH",
"1147 589 OFFCURVE",
"1111 626 OFFCURVE",
"1079 657 CURVE",
"1080 657 LINE",
"1051 685 OFFCURVE",
"1014 701 OFFCURVE",
"975 710 CURVE SMOOTH",
"935 719 OFFCURVE",
"893 723 OFFCURVE",
"853 723 CURVE SMOOTH"
);
},
{
closed = 1;
nodes = (
"574 1188 OFFCURVE",
"564 1027 OFFCURVE",
"551 863 CURVE",
"600 862 OFFCURVE",
"648 861 OFFCURVE",
"697 861 CURVE SMOOTH",
"745 861 OFFCURVE",
"793 861 OFFCURVE",
"842 861 CURVE SMOOTH",
"913 861 OFFCURVE",
"988 868 OFFCURVE",
"1051 911 CURVE SMOOTH",
"1091 938 OFFCURVE",
"1116 975 OFFCURVE",
"1132 1013 CURVE SMOOTH",
"1147 1051 OFFCURVE",
"1152 1090 OFFCURVE",
"1152 1125 CURVE SMOOTH",
"1152 1208 OFFCURVE",
"1118 1262 OFFCURVE",
"1067 1296 CURVE SMOOTH",
"1016 1330 OFFCURVE",
"949 1342 OFFCURVE",
"882 1342 CURVE SMOOTH",
"780 1342 OFFCURVE",
"679 1345 OFFCURVE",
"579 1351 CURVE"
);
},
{
closed = 1;
nodes = (
"552 1463 OFFCURVE",
"704 1457 OFFCURVE",
"857 1454 CURVE SMOOTH",
"946 1453 OFFCURVE",
"1035 1445 OFFCURVE",
"1116 1414 CURVE SMOOTH",
"1172 1393 OFFCURVE",
"1214 1358 OFFCURVE",
"1242 1315 CURVE SMOOTH",
"1269 1271 OFFCURVE",
"1283 1222 OFFCURVE",
"1283 1170 CURVE SMOOTH",
"1283 1091 OFFCURVE",
"1261 1006 OFFCURVE",
"1217 938 CURVE SMOOTH",
"1172 870 OFFCURVE",
"1105 819 OFFCURVE",
"1014 811 CURVE",
"1013 794 LINE",
"1101 787 OFFCURVE",
"1184 751 OFFCURVE",
"1245 693 CURVE SMOOTH",
"1305 635 OFFCURVE",
"1343 554 OFFCURVE",
"1343 465 CURVE SMOOTH",
"1343 404 OFFCURVE",
"1335 339 OFFCURVE",
"1313 280 CURVE SMOOTH",
"1291 221 OFFCURVE",
"1252 167 OFFCURVE",
"1195 130 CURVE SMOOTH",
"1135 91 OFFCURVE",
"1071 68 OFFCURVE",
"1005 55 CURVE SMOOTH",
"939 42 OFFCURVE",
"869 38 OFFCURVE",
"804 38 CURVE SMOOTH",
"627 38 OFFCURVE",
"453 30 OFFCURVE",
"274 10 CURVE",
"363 503 OFFCURVE",
"403 991 OFFCURVE",
"403 1484 CURVE"
);
}
);
width = 1497;
}
);
unicode = 0042;
},
{
glyphname = C;
lastChange = "2012-06-10 13:53:26 +0000";
layers = (
{
anchors = (
{
name = bottom;
position = "{794, 0}";
},
{
name = top;
position = "{794, 1454}";
}
);
layerId = "16808965-E153-4B2B-ADB3-00196C646C32";
name = Regular;
paths = (
{
closed = 1;
nodes = (
"1344 1313 OFFCURVE",
"1334 1251 OFFCURVE",
"1325 1187 CURVE",
"1225 1288 OFFCURVE",
"1081 1339 OFFCURVE",
"933 1339 CURVE SMOOTH",
"861 1339 OFFCURVE",
"786 1331 OFFCURVE",
"714 1310 CURVE SMOOTH",
"642 1289 OFFCURVE",
"575 1253 OFFCURVE",
"519 1197 CURVE",
"450 1122 OFFCURVE",
"406 1033 OFFCURVE",
"380 941 CURVE SMOOTH",
"354 849 OFFCURVE",
"344 754 OFFCURVE",
"344 670 CURVE SMOOTH",
"344 617 OFFCURVE",
"349 562 OFFCURVE",
"364 513 CURVE SMOOTH",
"379 464 OFFCURVE",
"404 419 OFFCURVE",
"444 384 CURVE SMOOTH",
"496 341 OFFCURVE",
"560 318 OFFCURVE",
"627 303 CURVE SMOOTH",
"694 288 OFFCURVE",
"765 285 OFFCURVE",
"832 285 CURVE SMOOTH",
"907 285 OFFCURVE",
"982 298 OFFCURVE",
"1054 326 CURVE SMOOTH",
"1126 353 OFFCURVE",
"1193 392 OFFCURVE",
"1252 444 CURVE",
"1247 347 OFFCURVE",
"1244 250 OFFCURVE",
"1244 154 CURVE SMOOTH",
"1244 121 LINE",
"1109 38 OFFCURVE",
"955 9 OFFCURVE",
"806 9 CURVE SMOOTH",
"710 9 OFFCURVE",
"612 21 OFFCURVE",
"522 50 CURVE SMOOTH",
"432 78 OFFCURVE",
"349 125 OFFCURVE",
"286 197 CURVE",
"239 257 OFFCURVE",
"208 326 OFFCURVE",
"189 399 CURVE SMOOTH",
"169 472 OFFCURVE",
"162 549 OFFCURVE",
"162 628 CURVE SMOOTH",
"162 733 OFFCURVE",
"172 857 OFFCURVE",
"205 974 CURVE SMOOTH",
"237 1091 OFFCURVE",
"292 1203 OFFCURVE",
"380 1290 CURVE SMOOTH",
"456 1366 OFFCURVE",
"548 1414 OFFCURVE",
"645 1443 CURVE SMOOTH",
"742 1471 OFFCURVE",
"845 1481 OFFCURVE",
"942 1481 CURVE SMOOTH",
"1015 1481 OFFCURVE",
"1090 1473 OFFCURVE",
"1162 1456 CURVE SMOOTH",
"1233 1439 OFFCURVE",
"1299 1410 OFFCURVE",
"1358 1369 CURVE",
"1358 1370 OFFCURVE",
"1357 1373 OFFCURVE",
"1356 1377 CURVE"
);
}
);
width = 1587;
}
);
unicode = 0043;
},
{
glyphname = D;
lastChange = "2012-06-10 13:53:26 +0000";
layers = (
{
anchors = (
{
name = center;
position = "{849, 727}";
},
{
name = top;
position = "{849, 1454}";
}
);
layerId = "16808965-E153-4B2B-ADB3-00196C646C32";
name = Regular;
paths = (
{
closed = 1;
nodes = (
"578 1005 OFFCURVE",
"555 691 OFFCURVE",
"516 374 CURVE",
"597 377 OFFCURVE",
"678 379 OFFCURVE",
"760 380 CURVE SMOOTH",
"795 381 OFFCURVE",
"830 383 OFFCURVE",
"866 384 CURVE SMOOTH",
"937 387 OFFCURVE",
"1009 396 OFFCURVE",
"1078 416 CURVE SMOOTH",
"1112 426 OFFCURVE",
"1145 440 OFFCURVE",
"1178 459 CURVE",
"1230 495 OFFCURVE",
"1268 544 OFFCURVE",
"1297 598 CURVE SMOOTH",
"1326 652 OFFCURVE",
"1346 710 OFFCURVE",
"1365 766 CURVE",
"1368 798 OFFCURVE",
"1369 832 OFFCURVE",
"1369 865 CURVE SMOOTH",
"1369 921 OFFCURVE",
"1365 976 OFFCURVE",
"1351 1028 CURVE SMOOTH",
"1337 1080 OFFCURVE",
"1314 1129 OFFCURVE",
"1278 1170 CURVE",
"1221 1230 OFFCURVE",
"1149 1265 OFFCURVE",
"1073 1285 CURVE SMOOTH",
"996 1305 OFFCURVE",
"914 1311 OFFCURVE",
"837 1314 CURVE SMOOTH",
"754 1315 OFFCURVE",
"673 1318 OFFCURVE",
"589 1322 CURVE"
);
},
{
closed = 1;
nodes = (
"536 1468 OFFCURVE",
"669 1460 OFFCURVE",
"805 1457 CURVE SMOOTH",
"910 1452 OFFCURVE",
"1023 1446 OFFCURVE",
"1128 1424 CURVE SMOOTH",
"1232 1402 OFFCURVE",
"1331 1363 OFFCURVE",
"1410 1291 CURVE",
"1462 1239 OFFCURVE",
"1494 1176 OFFCURVE",
"1514 1108 CURVE SMOOTH",
"1534 1039 OFFCURVE",
"1540 964 OFFCURVE",
"1540 891 CURVE SMOOTH",
"1540 788 OFFCURVE",
"1532 657 OFFCURVE",
"1500 532 CURVE SMOOTH",
"1468 407 OFFCURVE",
"1411 285 OFFCURVE",
"1312 201 CURVE",
"1220 130 OFFCURVE",
"1116 91 OFFCURVE",
"1008 68 CURVE SMOOTH",
"900 45 OFFCURVE",
"788 39 OFFCURVE",
"681 35 CURVE SMOOTH",
"544 31 OFFCURVE",
"411 25 OFFCURVE",
"274 10 CURVE",
"362 459 OFFCURVE",
"404 906 OFFCURVE",
"404 1355 CURVE SMOOTH",
"404 1376 OFFCURVE",
"404 1398 OFFCURVE",
"404 1420 CURVE SMOOTH",
"404 1441 OFFCURVE",
"404 1463 OFFCURVE",
"403 1484 CURVE"
);
}
);
width = 1698;
}
);
unicode = 0044;
},
{
glyphname = E;
lastChange = "2012-06-10 13:53:26 +0000";
layers = (
{
anchors = (
{
name = bottom;
position = "{704, 0}";
},
{
name = ogonek;
position = "{1266, 10}";
},
{
name = top;
position = "{704, 1454}";
}
);
layerId = "16808965-E153-4B2B-ADB3-00196C646C32";
name = Regular;
paths = (
{
closed = 1;
nodes = (
"554 1463 OFFCURVE",
"705 1453 OFFCURVE",
"860 1453 CURVE SMOOTH",
"1016 1453 OFFCURVE",
"1170 1463 OFFCURVE",
"1327 1482 CURVE",
"1323 1457 OFFCURVE",
"1319 1431 OFFCURVE",
"1314 1406 CURVE SMOOTH",
"1309 1381 OFFCURVE",
"1305 1355 OFFCURVE",
"1302 1330 CURVE",
"1157 1315 OFFCURVE",
"1012 1308 OFFCURVE",
"867 1308 CURVE SMOOTH",
"770 1308 OFFCURVE",
"673 1311 OFFCURVE",
"577 1317 CURVE",
"570 1166 OFFCURVE",
"559 1018 OFFCURVE",
"547 867 CURVE",
"631 866 OFFCURVE",
"713 865 OFFCURVE",
"797 865 CURVE SMOOTH",
"938 865 OFFCURVE",
"1075 867 OFFCURVE",
"1216 870 CURVE",
"1213 845 OFFCURVE",
"1210 821 OFFCURVE",
"1208 796 CURVE SMOOTH",
"1206 771 OFFCURVE",
"1204 747 OFFCURVE",
"1202 722 CURVE",
"1090 722 OFFCURVE",
"979 722 OFFCURVE",
"869 722 CURVE SMOOTH",
"758 721 OFFCURVE",
"647 721 OFFCURVE",
"535 721 CURVE",
"523 584 OFFCURVE",
"509 449 OFFCURVE",
"494 312 CURVE",
"588 316 OFFCURVE",
"682 318 OFFCURVE",
"775 318 CURVE SMOOTH",
"924 318 OFFCURVE",
"1072 313 OFFCURVE",
"1221 301 CURVE",
"1216 204 OFFCURVE",
"1216 107 OFFCURVE",
"1216 10 CURVE",
"1063 29 OFFCURVE",
"908 38 OFFCURVE",
"751 38 CURVE SMOOTH",
"592 38 OFFCURVE",
"434 29 OFFCURVE",
"274 10 CURVE",
"358 503 OFFCURVE",
"398 991 OFFCURVE",
"403 1484 CURVE"
);
}
);
width = 1407;
}
);
unicode = 0045;
},
{
glyphname = F;
lastChange = "2012-06-10 13:53:25 +0000";
layers = (
{
layerId = "16808965-E153-4B2B-ADB3-00196C646C32";
name = Regular;
paths = (
{
closed = 1;
nodes = (
"537 1461 OFFCURVE",
"659 1453 OFFCURVE",
"783 1453 CURVE SMOOTH",
"928 1453 OFFCURVE",
"1070 1464 OFFCURVE",
"1215 1484 CURVE",
"1206 1429 OFFCURVE",
"1198 1377 OFFCURVE",
"1190 1322 CURVE",
"1049 1305 OFFCURVE",
"910 1298 OFFCURVE",
"769 1298 CURVE SMOOTH",
"708 1298 OFFCURVE",
"647 1299 OFFCURVE",
"587 1302 CURVE",
"571 1157 OFFCURVE",
"555 1013 OFFCURVE",
"536 868 CURVE",
"567 868 OFFCURVE",
"597 868 OFFCURVE",
"627 868 CURVE SMOOTH",
"657 867 OFFCURVE",
"687 867 OFFCURVE",
"718 867 CURVE SMOOTH",
"841 867 OFFCURVE",
"961 868 OFFCURVE",
"1084 871 CURVE",
"1080 840 OFFCURVE",
"1077 809 OFFCURVE",
"1075 778 CURVE SMOOTH",
"1072 747 OFFCURVE",
"1069 715 OFFCURVE",
"1066 684 CURVE",
"1036 685 OFFCURVE",
"1006 685 OFFCURVE",
"977 685 CURVE SMOOTH",
"948 685 OFFCURVE",
"918 685 OFFCURVE",
"888 685 CURVE SMOOTH",
"828 685 OFFCURVE",
"768 685 OFFCURVE",
"709 685 CURVE SMOOTH",
"650 684 OFFCURVE",
"590 684 OFFCURVE",
"530 684 CURVE",
"515 465 OFFCURVE",
"502 252 OFFCURVE",
"481 33 CURVE",
"404 28 OFFCURVE",
"325 22 OFFCURVE",
"248 10 CURVE",
"340 501 OFFCURVE",
"392 986 OFFCURVE",
"416 1478 CURVE"
);
}
);
width = 1108;
}
);
unicode = 0046;
},
{
glyphname = G;
lastChange = "2012-06-10 13:53:26 +0000";
layers = (
{
anchors = (
{
name = bottom;
position = "{846, 0}";
},
{
name = top;
position = "{846, 1454}";
}
);
layerId = "16808965-E153-4B2B-ADB3-00196C646C32";
name = Regular;
paths = (
{
closed = 1;
nodes = (
"1156 410 OFFCURVE",
"1158 438 OFFCURVE",
"1160 466 CURVE SMOOTH",
"1162 493 OFFCURVE",
"1164 521 OFFCURVE",
"1166 549 CURVE",
"1116 550 OFFCURVE",
"1066 551 OFFCURVE",
"1016 551 CURVE SMOOTH",
"965 551 OFFCURVE",
"915 551 OFFCURVE",
"865 551 CURVE",
"881 740 LINE",
"964 740 OFFCURVE",
"1047 740 OFFCURVE",
"1129 741 CURVE SMOOTH",
"1211 741 OFFCURVE",
"1294 741 OFFCURVE",
"1377 741 CURVE",
"1360 541 OFFCURVE",
"1349 344 OFFCURVE",
"1349 145 CURVE",
"1270 94 OFFCURVE",
"1185 60 OFFCURVE",
"1097 40 CURVE SMOOTH",
"1008 19 OFFCURVE",
"917 10 OFFCURVE",
"828 10 CURVE SMOOTH",
"731 10 OFFCURVE",
"629 18 OFFCURVE",
"536 46 CURVE SMOOTH",
"443 73 OFFCURVE",
"358 119 OFFCURVE",
"294 194 CURVE SMOOTH",
"246 250 OFFCURVE",
"215 317 OFFCURVE",
"196 389 CURVE SMOOTH",
"176 461 OFFCURVE",
"170 538 OFFCURVE",
"170 614 CURVE SMOOTH",
"170 685 OFFCURVE",
"174 765 OFFCURVE",
"186 846 CURVE SMOOTH",
"198 927 OFFCURVE",
"218 1010 OFFCURVE",
"251 1087 CURVE SMOOTH",
"283 1163 OFFCURVE",
"329 1234 OFFCURVE",
"390 1293 CURVE SMOOTH",
"463 1366 OFFCURVE",
"555 1413 OFFCURVE",
"652 1442 CURVE SMOOTH",
"748 1470 OFFCURVE",
"849 1481 OFFCURVE",
"945 1481 CURVE SMOOTH",
"1029 1481 OFFCURVE",
"1114 1474 OFFCURVE",
"1195 1458 CURVE SMOOTH",
"1275 1441 OFFCURVE",
"1352 1413 OFFCURVE",
"1421 1369 CURVE",
"1416 1341 OFFCURVE",
"1412 1313 OFFCURVE",
"1407 1285 CURVE SMOOTH",
"1402 1257 OFFCURVE",
"1398 1229 OFFCURVE",
"1395 1201 CURVE",
"1336 1254 OFFCURVE",
"1267 1294 OFFCURVE",
"1191 1320 CURVE SMOOTH",
"1115 1346 OFFCURVE",
"1033 1358 OFFCURVE",
"952 1358 CURVE SMOOTH",
"880 1358 OFFCURVE",
"802 1351 OFFCURVE",
"729 1331 CURVE SMOOTH",
"656 1310 OFFCURVE",
"586 1275 OFFCURVE",
"529 1220 CURVE",
"460 1148 OFFCURVE",
"417 1060 OFFCURVE",
"391 969 CURVE SMOOTH",
"365 878 OFFCURVE",
"356 785 OFFCURVE",
"356 702 CURVE SMOOTH",
"356 646 OFFCURVE",
"359 587 OFFCURVE",
"374 535 CURVE SMOOTH",
"389 482 OFFCURVE",
"413 433 OFFCURVE",
"457 396 CURVE",
"510 357 OFFCURVE",
"574 335 OFFCURVE",
"640 323 CURVE SMOOTH",
"706 310 OFFCURVE",
"775 305 OFFCURVE",
"843 304 CURVE",
"868 305 OFFCURVE",
"895 305 OFFCURVE",
"924 306 CURVE SMOOTH",
"981 307 OFFCURVE",
"1039 316 OFFCURVE",
"1088 335 CURVE SMOOTH",
"1113 344 OFFCURVE",
"1134 358 OFFCURVE",
"1151 375 CURVE SMOOTH",
"1152 376 OFFCURVE",
"1152 378 OFFCURVE",
"1153 379 CURVE SMOOTH",
"1154 380 OFFCURVE",
"1154 381 OFFCURVE",
"1155 382 CURVE"
);
}
);
width = 1692;
}
);
unicode = 0047;
},
{
glyphname = H;
lastChange = "2012-06-10 13:53:26 +0000";
layers = (
{
anchors = (
{
name = center;
position = "{844, 727}";
},
{
name = top;
position = "{844, 1454}";
}
);
layerId = "16808965-E153-4B2B-ADB3-00196C646C32";
name = Regular;
paths = (
{
closed = 1;
nodes = (
"476 1473 OFFCURVE",
"538 1468 OFFCURVE",
"602 1464 CURVE",
"595 1232 OFFCURVE",
"582 1003 OFFCURVE",
"562 770 CURVE",
"595 770 OFFCURVE",
"627 770 OFFCURVE",
"660 770 CURVE SMOOTH",
"693 769 OFFCURVE",
"725 769 OFFCURVE",
"758 769 CURVE SMOOTH",
"917 769 OFFCURVE",
"1074 770 OFFCURVE",
"1233 771 CURVE",
"1253 1004 OFFCURVE",
"1279 1233 OFFCURVE",
"1318 1465 CURVE",
"1350 1468 OFFCURVE",
"1382 1471 OFFCURVE",
"1415 1474 CURVE SMOOTH",
"1447 1476 OFFCURVE",
"1479 1479 OFFCURVE",
"1511 1482 CURVE",
"1438 1062 OFFCURVE",
"1398 646 OFFCURVE",
"1398 226 CURVE SMOOTH",
"1398 154 OFFCURVE",
"1399 82 OFFCURVE",
"1402 10 CURVE",
"1333 18 OFFCURVE",
"1264 23 OFFCURVE",
"1192 28 CURVE",
"1193 192 OFFCURVE",
"1200 353 OFFCURVE",
"1212 517 CURVE",
"1099 519 OFFCURVE",
"986 520 OFFCURVE",
"875 520 CURVE SMOOTH",
"763 520 OFFCURVE",
"651 519 OFFCURVE",
"539 517 CURVE",
"522 354 OFFCURVE",
"501 191 OFFCURVE",
"476 28 CURVE",
"405 23 OFFCURVE",
"334 17 OFFCURVE",
"264 10 CURVE",
"364 501 OFFCURVE",
"408 989 OFFCURVE",
"413 1482 CURVE"
);
}
);
width = 1688;
}
);
unicode = 0048;
},
{
glyphname = I;
lastChange = "2012-06-10 13:53:26 +0000";
layers = (
{
anchors = (
{
name = ogonek;
position = "{605, 10}";
},
{
name = top;
position = "{336, 1454}";
}
);
layerId = "16808965-E153-4B2B-ADB3-00196C646C32";
name = Regular;
paths = (
{
closed = 1;
nodes = (
"388 1459 OFFCURVE",
"414 1454 OFFCURVE",
"441 1454 CURVE SMOOTH",
"473 1454 OFFCURVE",
"504 1459 OFFCURVE",
"535 1474 CURVE",
"491 983 OFFCURVE",
"454 501 OFFCURVE",
"427 10 CURVE",
"395 29 OFFCURVE",
"359 38 OFFCURVE",
"320 38 CURVE SMOOTH",
"281 38 OFFCURVE",
"242 29 OFFCURVE",
"205 10 CURVE",
"268 499 OFFCURVE",
"316 979 OFFCURVE",
"363 1468 CURVE"
);
}
);
width = 672;
}
);
unicode = 0049;
},
{
glyphname = J;
lastChange = "2012-06-10 13:53:26 +0000";
layers = (
{
anchors = (
{
name = top;
position = "{414, 1454}";
}
);
layerId = "16808965-E153-4B2B-ADB3-00196C646C32";
name = Regular;
paths = (
{
closed = 1;
nodes = (
"650 1455 OFFCURVE",
"714 1457 OFFCURVE",
"778 1472 CURVE",
"701 1005 OFFCURVE",
"642 538 OFFCURVE",
"590 70 CURVE SMOOTH",
"583 9 OFFCURVE",
"576 -55 OFFCURVE",
"558 -117 CURVE SMOOTH",
"540 -179 OFFCURVE",
"511 -237 OFFCURVE",
"463 -284 CURVE",
"414 -327 OFFCURVE",
"358 -349 OFFCURVE",
"299 -365 CURVE SMOOTH",
"270 -373 OFFCURVE",
"240 -379 OFFCURVE",
"210 -384 CURVE SMOOTH",
"179 -389 OFFCURVE",
"150 -395 OFFCURVE",
"121 -400 CURVE",
"122 -400 LINE",
"86 -403 OFFCURVE",
"50 -406 OFFCURVE",
"14 -410 CURVE",
"27 -306 OFFCURVE",
"37 -205 OFFCURVE",
"48 -101 CURVE",
"62 -102 OFFCURVE",
"76 -103 OFFCURVE",
"91 -104 CURVE SMOOTH",
"105 -105 OFFCURVE",
"119 -107 OFFCURVE",
"133 -108 CURVE",
"189 -99 OFFCURVE",
"253 -82 OFFCURVE",
"306 -50 CURVE SMOOTH",
"359 -19 OFFCURVE",
"399 26 OFFCURVE",
"410 93 CURVE",
"466 549 OFFCURVE",
"519 996 OFFCURVE",
"586 1452 CURVE"
);
}
);
width = 827;
}
);
unicode = 004A;
},
{
glyphname = K;
lastChange = "2012-06-10 13:53:26 +0000";
layers = (
{
anchors = (
{
name = bottom;
position = "{800, 0}";
},
{
name = top;
position = "{800, 1454}";
}
);
layerId = "16808965-E153-4B2B-ADB3-00196C646C32";
name = Regular;
paths = (
{
closed = 1;
nodes = (
"485 1473 OFFCURVE",
"545 1468 OFFCURVE",
"605 1464 CURVE",
"593 1253 OFFCURVE",
"575 1046 OFFCURVE",
"552 835 CURVE",
"670 942 OFFCURVE",
"789 1048 OFFCURVE",
"909 1151 CURVE SMOOTH",
"1029 1254 OFFCURVE",
"1149 1357 OFFCURVE",
"1270 1462 CURVE",
"1349 1465 OFFCURVE",
"1423 1471 OFFCURVE",
"1502 1478 CURVE",
"1371 1363 OFFCURVE",
"1241 1250 OFFCURVE",
"1112 1137 CURVE SMOOTH",
"983 1024 OFFCURVE",
"853 910 OFFCURVE",
"723 795 CURVE",
"841 663 OFFCURVE",
"958 532 OFFCURVE",
"1074 401 CURVE SMOOTH",
"1190 270 OFFCURVE",
"1308 140 OFFCURVE",
"1428 10 CURVE",
"1281 26 OFFCURVE",
"1133 34 OFFCURVE",
"984 37 CURVE",
"828 272 OFFCURVE",
"687 509 OFFCURVE",
"543 752 CURVE",
"535 511 OFFCURVE",
"520 270 OFFCURVE",
"498 29 CURVE",
"458 26 OFFCURVE",
"418 24 OFFCURVE",
"378 21 CURVE SMOOTH",
"337 18 OFFCURVE",
"297 15 OFFCURVE",
"256 10 CURVE",
"360 499 OFFCURVE",
"415 987 OFFCURVE",
"424 1479 CURVE"
);
}
);
width = 1599;
}
);
unicode = 004B;
},
{
glyphname = L;
lastChange = "2012-06-10 13:53:26 +0000";
layers = (
{
anchors = (
{
name = bottom;
position = "{602, 0}";
},
{
name = top;
position = "{602, 1454}";
}
);
layerId = "16808965-E153-4B2B-ADB3-00196C646C32";
name = Regular;
paths = (
{
closed = 1;
nodes = (
"471 1472 OFFCURVE",
"530 1465 OFFCURVE",
"590 1462 CURVE",
"571 1078 OFFCURVE",
"538 695 OFFCURVE",
"491 312 CURVE",
"581 316 OFFCURVE",
"671 318 OFFCURVE",
"760 318 CURVE SMOOTH",
"904 318 OFFCURVE",
"1044 313 OFFCURVE",
"1187 301 CURVE",
"1176 205 OFFCURVE",
"1168 109 OFFCURVE",
"1163 13 CURVE",
"1018 30 OFFCURVE",
"874 38 OFFCURVE",
"727 38 CURVE SMOOTH",
"571 38 OFFCURVE",
"418 29 OFFCURVE",
"262 10 CURVE",
"351 502 OFFCURVE",
"398 988 OFFCURVE",
"411 1481 CURVE"
);
}
);
width = 1204;
}
);
unicode = 004C;
},
{
glyphname = M;
lastChange = "2012-06-10 13:53:25 +0000";
layers = (
{
layerId = "16808965-E153-4B2B-ADB3-00196C646C32";
name = Regular;
paths = (
{
closed = 1;
nodes = (
"514 1472 OFFCURVE",
"609 1466 OFFCURVE",
"702 1461 CURVE",
"815 1173 OFFCURVE",
"911 884 OFFCURVE",
"1004 588 CURVE",
"1081 735 OFFCURVE",
"1158 882 OFFCURVE",
"1235 1029 CURVE SMOOTH",
"1312 1176 OFFCURVE",
"1393 1321 OFFCURVE",
"1480 1463 CURVE",
"1569 1468 OFFCURVE",
"1658 1474 OFFCURVE",
"1747 1481 CURVE",
"1676 1101 OFFCURVE",
"1637 724 OFFCURVE",
"1637 344 CURVE SMOOTH",
"1637 231 OFFCURVE",
"1641 122 OFFCURVE",
"1648 10 CURVE",
"1569 17 OFFCURVE",
"1493 23 OFFCURVE",
"1413 27 CURVE",
"1422 454 OFFCURVE",
"1473 876 OFFCURVE",
"1549 1301 CURVE",
"1546 1302 OFFCURVE",
"1543 1302 OFFCURVE",
"1541 1303 CURVE",
"1538 1303 OFFCURVE",
"1536 1303 OFFCURVE",
"1533 1304 CURVE",
"1368 964 OFFCURVE",
"1229 614 OFFCURVE",
"1086 266 CURVE",
"1067 266 OFFCURVE",
"1049 266 OFFCURVE",
"1031 267 CURVE",
"1013 267 OFFCURVE",
"995 267 OFFCURVE",
"976 267 CURVE SMOOTH",
"957 267 OFFCURVE",
"939 267 OFFCURVE",
"921 267 CURVE",
"902 266 OFFCURVE",
"884 266 OFFCURVE",
"866 266 CURVE",
"845 353 OFFCURVE",
"824 440 OFFCURVE",
"804 527 CURVE SMOOTH",
"763 701 OFFCURVE",
"720 874 OFFCURVE",
"674 1046 CURVE SMOOTH",
"651 1132 OFFCURVE",
"626 1218 OFFCURVE",
"600 1303 CURVE",
"597 1302 OFFCURVE",
"594 1302 OFFCURVE",
"592 1301 CURVE",
"589 1300 OFFCURVE",
"586 1300 OFFCURVE",
"583 1300 CURVE",
"583 1240 LINE SMOOTH",
"583 835 OFFCURVE",
"555 434 OFFCURVE",
"499 26 CURVE",
"420 23 OFFCURVE",
"342 17 OFFCURVE",
"262 10 CURVE",
"374 501 OFFCURVE",
"421 988 OFFCURVE",
"421 1481 CURVE"
);
}
);
width = 1929;
}
);
unicode = 004D;
},
{
glyphname = N;
lastChange = "2012-06-10 13:53:26 +0000";
layers = (
{
anchors = (
{
name = bottom;
position = "{837, 0}";
},
{
name = top;
position = "{837, 1454}";
}
);
layerId = "16808965-E153-4B2B-ADB3-00196C646C32";
name = Regular;
paths = (
{
closed = 1;
nodes = (
"457 1444 OFFCURVE",
"495 1441 OFFCURVE",
"534 1439 CURVE SMOOTH",
"573 1436 OFFCURVE",
"612 1434 OFFCURVE",
"651 1431 CURVE",
"748 1239 OFFCURVE",
"836 1043 OFFCURVE",
"924 846 CURVE SMOOTH",
"1011 649 OFFCURVE",
"1097 451 OFFCURVE",
"1190 258 CURVE",
"1219 665 OFFCURVE",
"1266 1065 OFFCURVE",
"1342 1469 CURVE",
"1398 1473 OFFCURVE",
"1453 1477 OFFCURVE",
"1509 1484 CURVE",
"1425 1031 OFFCURVE",
"1379 580 OFFCURVE",
"1379 127 CURVE SMOOTH",
"1379 108 OFFCURVE",
"1379 88 OFFCURVE",
"1379 69 CURVE SMOOTH",
"1379 49 OFFCURVE",
"1379 29 OFFCURVE",
"1380 10 CURVE",
"1288 21 OFFCURVE",
"1198 27 OFFCURVE",
"1106 32 CURVE",
"1007 229 OFFCURVE",
"918 432 OFFCURVE",
"830 636 CURVE SMOOTH",
"786 737 OFFCURVE",
"742 839 OFFCURVE",
"698 941 CURVE SMOOTH",
"654 1042 OFFCURVE",
"608 1143 OFFCURVE",
"561 1243 CURVE",
"545 1239 LINE",
"545 834 OFFCURVE",
"525 436 OFFCURVE",
"486 29 CURVE",
"407 24 OFFCURVE",
"330 19 OFFCURVE",
"250 10 CURVE",
"353 490 OFFCURVE",
"405 966 OFFCURVE",
"418 1449 CURVE"
);
}
);
width = 1673;
}
);
unicode = 004E;
},
{
glyphname = O;
lastChange = "2012-06-10 13:53:26 +0000";
layers = (
{
anchors = (
{
name = top;
position = "{867, 1454}";
}
);
layerId = "16808965-E153-4B2B-ADB3-00196C646C32";
name = Regular;
paths = (
{
closed = 1;
nodes = (
"806 1340 OFFCURVE",
"740 1329 OFFCURVE",
"678 1303 CURVE SMOOTH",
"616 1277 OFFCURVE",
"559 1238 OFFCURVE",
"515 1182 CURVE SMOOTH",
"456 1111 OFFCURVE",
"417 1025 OFFCURVE",
"393 937 CURVE SMOOTH",
"369 848 OFFCURVE",
"359 756 OFFCURVE",
"359 673 CURVE SMOOTH",
"359 626 OFFCURVE",
"363 580 OFFCURVE",
"378 538 CURVE SMOOTH",
"393 496 OFFCURVE",
"417 459 OFFCURVE",
"456 434 CURVE SMOOTH",
"504 403 OFFCURVE",
"558 386 OFFCURVE",
"614 375 CURVE SMOOTH",
"670 364 OFFCURVE",
"729 361 OFFCURVE",
"786 361 CURVE SMOOTH",
"901 361 OFFCURVE",
"1020 375 OFFCURVE",
"1127 436 CURVE",
"1127 435 LINE",
"1198 478 OFFCURVE",
"1236 551 OFFCURVE",
"1257 628 CURVE SMOOTH",
"1277 704 OFFCURVE",
"1280 786 OFFCURVE",
"1280 846 CURVE SMOOTH",
"1280 967 OFFCURVE",
"1261 1083 OFFCURVE",
"1200 1183 CURVE",
"1128 1288 OFFCURVE",
"1004 1340 OFFCURVE",
"873 1340 CURVE SMOOTH"
);
},
{
closed = 1;
nodes = (
"974 1480 OFFCURVE",
"1064 1469 OFFCURVE",
"1145 1439 CURVE SMOOTH",
"1225 1409 OFFCURVE",
"1296 1362 OFFCURVE",
"1348 1290 CURVE SMOOTH",
"1392 1231 OFFCURVE",
"1421 1165 OFFCURVE",
"1438 1094 CURVE SMOOTH",
"1455 1023 OFFCURVE",
"1462 949 OFFCURVE",
"1462 874 CURVE SMOOTH",
"1462 763 OFFCURVE",
"1450 642 OFFCURVE",
"1418 524 CURVE SMOOTH",
"1386 406 OFFCURVE",
"1332 293 OFFCURVE",
"1251 200 CURVE SMOOTH",
"1184 128 OFFCURVE",
"1102 80 OFFCURVE",
"1015 51 CURVE SMOOTH",
"927 22 OFFCURVE",
"833 10 OFFCURVE",
"742 10 CURVE SMOOTH",
"655 10 OFFCURVE",
"569 24 OFFCURVE",
"491 54 CURVE SMOOTH",
"413 84 OFFCURVE",
"343 131 OFFCURVE",
"291 199 CURVE SMOOTH",
"247 258 OFFCURVE",
"217 323 OFFCURVE",
"200 394 CURVE SMOOTH",
"183 465 OFFCURVE",
"176 539 OFFCURVE",
"176 615 CURVE SMOOTH",
"176 723 OFFCURVE",
"185 845 OFFCURVE",
"216 965 CURVE SMOOTH",
"247 1084 OFFCURVE",
"299 1198 OFFCURVE",
"386 1289 CURVE SMOOTH",
"451 1360 OFFCURVE",
"533 1408 OFFCURVE",
"619 1438 CURVE SMOOTH",
"705 1468 OFFCURVE",
"797 1480 OFFCURVE",
"886 1480 CURVE SMOOTH"
);
}
);
width = 1733;
}
);
unicode = 004F;
},
{
glyphname = P;
lastChange = "2012-06-10 13:53:25 +0000";
layers = (
{
layerId = "16808965-E153-4B2B-ADB3-00196C646C32";
name = Regular;
paths = (
{
closed = 1;
nodes = (
"598 1206 OFFCURVE",
"581 1021 OFFCURVE",
"558 832 CURVE",
"657 831 OFFCURVE",
"752 830 OFFCURVE",
"851 830 CURVE SMOOTH",
"928 830 OFFCURVE",
"1005 862 OFFCURVE",
"1062 914 CURVE SMOOTH",
"1119 966 OFFCURVE",
"1159 1038 OFFCURVE",
"1160 1118 CURVE",
"1162 1133 OFFCURVE",
"1163 1148 OFFCURVE",
"1163 1165 CURVE SMOOTH",
"1163 1261 OFFCURVE",
"1120 1317 OFFCURVE",
"1064 1349 CURVE SMOOTH",
"1007 1381 OFFCURVE",
"935 1390 OFFCURVE",
"875 1390 CURVE SMOOTH",
"787 1390 OFFCURVE",
"702 1390 OFFCURVE",
"615 1395 CURVE"
);
},
{
closed = 1;
nodes = (
"571 1459 OFFCURVE",
"715 1454 OFFCURVE",
"862 1454 CURVE SMOOTH",
"918 1454 OFFCURVE",
"975 1451 OFFCURVE",
"1029 1442 CURVE SMOOTH",
"1083 1433 OFFCURVE",
"1135 1417 OFFCURVE",
"1182 1389 CURVE",
"1227 1360 OFFCURVE",
"1257 1319 OFFCURVE",
"1277 1274 CURVE SMOOTH",
"1296 1229 OFFCURVE",
"1303 1178 OFFCURVE",
"1303 1127 CURVE SMOOTH",
"1303 1058 OFFCURVE",
"1292 980 OFFCURVE",
"1267 907 CURVE SMOOTH",
"1242 834 OFFCURVE",
"1202 764 OFFCURVE",
"1145 711 CURVE SMOOTH",
"1096 664 OFFCURVE",
"1038 636 OFFCURVE",
"976 619 CURVE SMOOTH",
"914 602 OFFCURVE",
"848 596 OFFCURVE",
"787 596 CURVE SMOOTH",
"747 596 OFFCURVE",
"707 596 OFFCURVE",
"667 596 CURVE SMOOTH",
"627 596 OFFCURVE",
"587 595 OFFCURVE",
"546 594 CURVE",
"523 405 OFFCURVE",
"494 218 OFFCURVE",
"462 30 CURVE",
"389 25 OFFCURVE",
"315 19 OFFCURVE",
"240 10 CURVE",
"345 499 OFFCURVE",
"402 984 OFFCURVE",
"427 1476 CURVE"
);
}
);
width = 1276;
}
);
unicode = 0050;
},
{
glyphname = Q;
lastChange = "2012-06-10 13:53:25 +0000";
layers = (
{
layerId = "16808965-E153-4B2B-ADB3-00196C646C32";
name = Regular;
paths = (
{
closed = 1;
nodes = (
"678 1334 OFFCURVE",
"547 1287 OFFCURVE",
"455 1178 CURVE SMOOTH",
"398 1110 OFFCURVE",
"359 1026 OFFCURVE",
"335 940 CURVE SMOOTH",
"310 854 OFFCURVE",
"300 763 OFFCURVE",
"300 683 CURVE SMOOTH",
"300 635 OFFCURVE",
"304 586 OFFCURVE",
"319 542 CURVE SMOOTH",
"334 498 OFFCURVE",
"359 459 OFFCURVE",
"400 434 CURVE SMOOTH",
"491 377 OFFCURVE",
"583 357 OFFCURVE",
"699 341 CURVE",
"714 363 OFFCURVE",
"728 385 OFFCURVE",
"743 407 CURVE SMOOTH",
"758 428 OFFCURVE",
"772 450 OFFCURVE",
"787 472 CURVE",
"854 439 OFFCURVE",
"927 417 OFFCURVE",
"1006 406 CURVE",
"1093 449 OFFCURVE",
"1148 516 OFFCURVE",
"1181 594 CURVE SMOOTH",
"1213 672 OFFCURVE",
"1224 760 OFFCURVE",
"1224 847 CURVE SMOOTH",
"1224 964 OFFCURVE",
"1205 1080 OFFCURVE",
"1142 1176 CURVE SMOOTH",
"1107 1229 OFFCURVE",
"1057 1270 OFFCURVE",
"1000 1296 CURVE SMOOTH",
"943 1322 OFFCURVE",
"878 1334 OFFCURVE",
"813 1334 CURVE SMOOTH"
);
},
{
closed = 1;
nodes = (
"1123 95 LINE",
"1170 36 OFFCURVE",
"1218 -23 OFFCURVE",
"1267 -80 CURVE SMOOTH",
"1315 -137 OFFCURVE",
"1363 -195 OFFCURVE",
"1412 -254 CURVE",
"1264 -238 OFFCURVE",
"1116 -229 OFFCURVE",
"967 -225 CURVE",
"934 -186 OFFCURVE",
"902 -147 OFFCURVE",
"870 -108 CURVE SMOOTH",
"837 -69 OFFCURVE",
"805 -30 OFFCURVE",
"773 10 CURVE",
"749 7 OFFCURVE",
"724 6 OFFCURVE",
"699 6 CURVE SMOOTH",
"611 6 OFFCURVE",
"523 19 OFFCURVE",
"444 49 CURVE SMOOTH",
"364 79 OFFCURVE",
"294 125 OFFCURVE",
"241 196 CURVE SMOOTH",
"149 325 OFFCURVE",
"119 484 OFFCURVE",
"119 647 CURVE SMOOTH",
"119 751 OFFCURVE",
"129 868 OFFCURVE",
"161 980 CURVE SMOOTH",
"192 1092 OFFCURVE",
"242 1199 OFFCURVE",
"325 1286 CURVE SMOOTH",
"389 1353 OFFCURVE",
"466 1399 OFFCURVE",
"550 1430 CURVE SMOOTH",
"633 1461 OFFCURVE",
"722 1474 OFFCURVE",
"807 1474 CURVE SMOOTH",
"899 1474 OFFCURVE",
"993 1464 OFFCURVE",
"1077 1435 CURVE SMOOTH",
"1161 1406 OFFCURVE",
"1236 1359 OFFCURVE",
"1291 1284 CURVE SMOOTH",
"1335 1228 OFFCURVE",
"1365 1163 OFFCURVE",
"1383 1093 CURVE SMOOTH",
"1401 1023 OFFCURVE",
"1407 948 OFFCURVE",
"1407 875 CURVE SMOOTH",
"1407 794 OFFCURVE",
"1401 701 OFFCURVE",
"1384 609 CURVE SMOOTH",
"1367 517 OFFCURVE",
"1339 425 OFFCURVE",
"1294 345 CURVE SMOOTH",
"1243 261 OFFCURVE",
"1191 181 OFFCURVE",
"1123 109 CURVE"
);
}
);
width = 1724;
}
);
unicode = 0051;
},
{
glyphname = R;
lastChange = "2012-06-10 13:53:26 +0000";
layers = (
{
anchors = (
{
name = bottom;
position = "{767, 0}";
},
{
name = top;
position = "{767, 1454}";
}
);
layerId = "16808965-E153-4B2B-ADB3-00196C646C32";
name = Regular;
paths = (
{
closed = 1;
nodes = (
"1021 693 LINE",
"1078 669 OFFCURVE",
"1118 625 OFFCURVE",
"1150 574 CURVE SMOOTH",
"1166 549 OFFCURVE",
"1180 522 OFFCURVE",
"1193 495 CURVE",
"1205 467 OFFCURVE",
"1217 440 OFFCURVE",
"1229 413 CURVE SMOOTH",
"1286 276 OFFCURVE",
"1347 143 OFFCURVE",
"1412 10 CURVE",
"1324 21 OFFCURVE",
"1238 26 OFFCURVE",
"1150 31 CURVE",
"1103 154 OFFCURVE",
"1064 275 OFFCURVE",
"1024 400 CURVE",
"1009 436 OFFCURVE",
"993 472 OFFCURVE",
"974 506 CURVE SMOOTH",
"954 540 OFFCURVE",
"931 571 OFFCURVE",
"902 596 CURVE",
"850 633 OFFCURVE",
"787 644 OFFCURVE",
"722 644 CURVE SMOOTH",
"671 644 OFFCURVE",
"622 643 OFFCURVE",
"571 642 CURVE",
"552 435 OFFCURVE",
"528 235 OFFCURVE",
"497 28 CURVE",
"422 25 OFFCURVE",
"350 18 OFFCURVE",
"274 10 CURVE",
"362 482 OFFCURVE",
"403 948 OFFCURVE",
"403 1420 CURVE SMOOTH",
"403 1484 LINE",
"551 1465 OFFCURVE",
"698 1458 OFFCURVE",
"847 1455 CURVE SMOOTH",
"948 1452 OFFCURVE",
"1049 1440 OFFCURVE",
"1136 1389 CURVE",
"1184 1357 OFFCURVE",
"1217 1314 OFFCURVE",
"1238 1267 CURVE SMOOTH",
"1258 1220 OFFCURVE",
"1266 1169 OFFCURVE",
"1266 1117 CURVE SMOOTH",
"1266 1041 OFFCURVE",
"1249 952 OFFCURVE",
"1210 876 CURVE SMOOTH",
"1171 800 OFFCURVE",
"1111 737 OFFCURVE",
"1023 710 CURVE",
"1022 699 LINE"
);
},
{
closed = 1;
nodes = (
"593 1193 OFFCURVE",
"584 1011 OFFCURVE",
"569 824 CURVE",
"611 823 OFFCURVE",
"653 823 OFFCURVE",
"695 823 CURVE SMOOTH",
"737 823 OFFCURVE",
"779 823 OFFCURVE",
"821 823 CURVE SMOOTH",
"886 823 OFFCURVE",
"964 845 OFFCURVE",
"1027 885 CURVE SMOOTH",
"1090 925 OFFCURVE",
"1139 982 OFFCURVE",
"1144 1051 CURVE SMOOTH",
"1145 1062 OFFCURVE",
"1145 1072 OFFCURVE",
"1146 1083 CURVE SMOOTH",
"1147 1094 OFFCURVE",
"1147 1105 OFFCURVE",
"1147 1116 CURVE SMOOTH",
"1147 1189 OFFCURVE",
"1132 1261 OFFCURVE",
"1071 1304 CURVE",
"1072 1304 LINE",
"1011 1347 OFFCURVE",
"937 1370 OFFCURVE",
"860 1371 CURVE SMOOTH",
"773 1372 OFFCURVE",
"688 1373 OFFCURVE",
"600 1380 CURVE"
);
}
);
width = 1534;
}
);
unicode = 0052;
},
{
glyphname = S;
lastChange = "2012-06-10 13:53:26 +0000";
layers = (
{
anchors = (
{
name = bottom;
position = "{715, 0}";
},
{
name = top;
position = "{715, 1454}";
}
);
layerId = "16808965-E153-4B2B-ADB3-00196C646C32";
name = Regular;
paths = (
{
closed = 1;
nodes = (
"1246 1405 OFFCURVE",
"1242 1375 OFFCURVE",
"1237 1345 CURVE SMOOTH",
"1232 1315 OFFCURVE",
"1228 1285 OFFCURVE",
"1224 1255 CURVE",
"1103 1306 OFFCURVE",
"977 1340 OFFCURVE",
"842 1340 CURVE SMOOTH",
"758 1340 OFFCURVE",
"672 1330 OFFCURVE",
"593 1287 CURVE",
"510 1234 OFFCURVE",
"482 1157 OFFCURVE",
"482 1081 CURVE SMOOTH",
"482 1030 OFFCURVE",
"494 979 OFFCURVE",
"530 944 CURVE",
"590 896 OFFCURVE",
"666 879 OFFCURVE",
"742 863 CURVE SMOOTH",
"771 856 OFFCURVE",
"801 850 OFFCURVE",
"832 844 CURVE SMOOTH",
"892 832 OFFCURVE",
"951 817 OFFCURVE",
"1008 794 CURVE SMOOTH",
"1036 783 OFFCURVE",
"1063 768 OFFCURVE",
"1088 751 CURVE SMOOTH",
"1188 680 OFFCURVE",
"1229 568 OFFCURVE",
"1229 452 CURVE SMOOTH",
"1229 392 OFFCURVE",
"1221 326 OFFCURVE",
"1200 266 CURVE SMOOTH",
"1179 206 OFFCURVE",
"1144 151 OFFCURVE",
"1088 111 CURVE",
"1020 66 OFFCURVE",
"949 41 OFFCURVE",
"877 28 CURVE SMOOTH",
"804 15 OFFCURVE",
"730 11 OFFCURVE",
"659 10 CURVE SMOOTH",
"504 10 OFFCURVE",
"354 31 OFFCURVE",
"209 74 CURVE",
"225 173 OFFCURVE",
"240 268 OFFCURVE",
"252 367 CURVE",
"381 291 OFFCURVE",
"527 255 OFFCURVE",
"682 255 CURVE SMOOTH",
"773 255 OFFCURVE",
"867 268 OFFCURVE",
"947 320 CURVE SMOOTH",
"971 336 OFFCURVE",
"997 356 OFFCURVE",
"1017 380 CURVE SMOOTH",
"1037 404 OFFCURVE",
"1050 431 OFFCURVE",
"1050 462 CURVE SMOOTH",
"1050 521 OFFCURVE",
"1019 565 OFFCURVE",
"975 597 CURVE SMOOTH",
"931 629 OFFCURVE",
"872 651 OFFCURVE",
"817 666 CURVE SMOOTH",
"789 673 OFFCURVE",
"762 679 OFFCURVE",
"737 684 CURVE SMOOTH",
"686 693 OFFCURVE",
"647 701 OFFCURVE",
"595 717 CURVE SMOOTH",
"542 732 OFFCURVE",
"491 752 OFFCURVE",
"446 781 CURVE SMOOTH",
"401 810 OFFCURVE",
"348 859 OFFCURVE",
"326 941 CURVE SMOOTH",
"315 982 OFFCURVE",
"309 1024 OFFCURVE",
"309 1067 CURVE SMOOTH",
"309 1124 OFFCURVE",
"319 1185 OFFCURVE",
"341 1241 CURVE SMOOTH",
"363 1297 OFFCURVE",
"398 1347 OFFCURVE",
"451 1384 CURVE SMOOTH",
"507 1423 OFFCURVE",
"570 1448 OFFCURVE",
"635 1462 CURVE SMOOTH",
"700 1476 OFFCURVE",
"767 1480 OFFCURVE",
"832 1480 CURVE SMOOTH",
"977 1480 OFFCURVE",
"1119 1462 OFFCURVE",
"1256 1426 CURVE",
"1255 1427 OFFCURVE",
"1255 1429 OFFCURVE",
"1254 1431 CURVE",
"1253 1432 OFFCURVE",
"1252 1434 OFFCURVE",
"1251 1435 CURVE"
);
}
);
width = 1430;
}
);
unicode = 0053;
},
{
glyphname = T;
lastChange = "2012-06-10 13:53:26 +0000";
layers = (
{
anchors = (
{
name = bottom;
position = "{678, 0}";
},
{
name = center;
position = "{678, 727}";
},
{
name = top;
position = "{678, 1454}";
}
);
layerId = "16808965-E153-4B2B-ADB3-00196C646C32";
name = Regular;
paths = (
{
closed = 1;
nodes = (
"248 1463 OFFCURVE",
"448 1453 OFFCURVE",
"651 1453 CURVE SMOOTH",
"866 1453 OFFCURVE",
"1076 1464 OFFCURVE",
"1291 1484 CURVE",
"1280 1433 OFFCURVE",
"1270 1383 OFFCURVE",
"1262 1332 CURVE",
"1158 1328 OFFCURVE",
"1054 1325 OFFCURVE",
"950 1325 CURVE SMOOTH",
"881 1325 OFFCURVE",
"813 1326 OFFCURVE",
"745 1329 CURVE",
"714 896 OFFCURVE",
"686 469 OFFCURVE",
"675 37 CURVE",
"656 38 OFFCURVE",
"638 38 OFFCURVE",
"620 38 CURVE SMOOTH",
"601 38 OFFCURVE",
"582 38 OFFCURVE",
"563 38 CURVE SMOOTH",
"538 38 OFFCURVE",
"512 38 OFFCURVE",
"487 38 CURVE",
"462 37 OFFCURVE",
"436 37 OFFCURVE",
"411 37 CURVE",
"470 469 OFFCURVE",
"520 896 OFFCURVE",
"565 1328 CURVE",
"487 1326 OFFCURVE",
"410 1325 OFFCURVE",
"333 1325 CURVE SMOOTH",
"237 1325 OFFCURVE",
"144 1326 OFFCURVE",
"49 1333 CURVE",
"49 1384 OFFCURVE",
"48 1433 OFFCURVE",
"47 1484 CURVE"
);
}
);
width = 1356;
}
);
unicode = 0054;
},
{
glyphname = U;
lastChange = "2012-06-10 13:53:26 +0000";
layers = (
{
anchors = (
{
name = ogonek;
position = "{1462, 10}";
},
{
name = top;
position = "{812, 1454}";
}
);
layerId = "16808965-E153-4B2B-ADB3-00196C646C32";
name = Regular;
paths = (
{
closed = 1;
nodes = (
"295 1483 LINE",
"355 1475 OFFCURVE",
"415 1469 OFFCURVE",
"476 1464 CURVE",
"471 1216 OFFCURVE",
"455 973 OFFCURVE",
"434 725 CURVE SMOOTH",
"431 689 OFFCURVE",
"429 652 OFFCURVE",
"429 616 CURVE SMOOTH",
"429 532 OFFCURVE",
"440 452 OFFCURVE",
"484 384 CURVE",
"513 343 OFFCURVE",
"555 318 OFFCURVE",
"603 303 CURVE SMOOTH",
"650 287 OFFCURVE",
"703 283 OFFCURVE",
"752 283 CURVE SMOOTH",
"801 283 OFFCURVE",
"855 288 OFFCURVE",
"904 303 CURVE SMOOTH",
"953 318 OFFCURVE",
"999 344 OFFCURVE",
"1035 384 CURVE",
"1075 432 OFFCURVE",
"1100 488 OFFCURVE",
"1116 548 CURVE SMOOTH",
"1132 607 OFFCURVE",
"1140 667 OFFCURVE",
"1145 726 CURVE SMOOTH",
"1168 974 OFFCURVE",
"1194 1218 OFFCURVE",
"1235 1466 CURVE",
"1266 1467 OFFCURVE",
"1296 1470 OFFCURVE",
"1327 1473 CURVE SMOOTH",
"1358 1476 OFFCURVE",
"1388 1480 OFFCURVE",
"1419 1483 CURVE",
"1359 1175 OFFCURVE",
"1326 870 OFFCURVE",
"1303 561 CURVE SMOOTH",
"1298 489 OFFCURVE",
"1288 415 OFFCURVE",
"1266 344 CURVE SMOOTH",
"1244 272 OFFCURVE",
"1210 204 OFFCURVE",
"1157 148 CURVE",
"1096 89 OFFCURVE",
"1024 55 OFFCURVE",
"951 35 CURVE SMOOTH",
"878 15 OFFCURVE",
"801 9 OFFCURVE",
"729 9 CURVE SMOOTH",
"658 9 OFFCURVE",
"584 14 OFFCURVE",
"516 32 CURVE SMOOTH",
"447 50 OFFCURVE",
"384 79 OFFCURVE",
"336 131 CURVE SMOOTH",
"299 174 OFFCURVE",
"275 222 OFFCURVE",
"261 274 CURVE SMOOTH",
"247 325 OFFCURVE",
"242 378 OFFCURVE",
"242 433 CURVE SMOOTH",
"242 476 OFFCURVE",
"245 518 OFFCURVE",
"249 561 CURVE SMOOTH",
"278 848 OFFCURVE",
"295 1128 OFFCURVE",
"295 1413 CURVE SMOOTH"
);
}
);
width = 1624;
}
);
unicode = 0055;
},
{
glyphname = V;
lastChange = "2012-06-10 13:53:25 +0000";
layers = (
{
layerId = "16808965-E153-4B2B-ADB3-00196C646C32";
name = Regular;
paths = (
{
closed = 1;
nodes = (
"442 158 OFFCURVE",
"413 280 OFFCURVE",
"385 402 CURVE SMOOTH",
"328 646 OFFCURVE",
"268 889 OFFCURVE",
"200 1129 CURVE SMOOTH",
"166 1248 OFFCURVE",
"128 1367 OFFCURVE",
"86 1484 CURVE",
"149 1477 OFFCURVE",
"209 1472 OFFCURVE",
"273 1468 CURVE",
"346 1288 OFFCURVE",
"413 1105 OFFCURVE",
"475 921 CURVE SMOOTH",
"506 829 OFFCURVE",
"536 737 OFFCURVE",
"566 644 CURVE SMOOTH",
"596 551 OFFCURVE",
"626 459 OFFCURVE",
"657 367 CURVE",
"704 459 OFFCURVE",
"750 552 OFFCURVE",
"797 645 CURVE SMOOTH",
"889 831 OFFCURVE",
"982 1015 OFFCURVE",
"1081 1198 CURVE SMOOTH",
"1130 1289 OFFCURVE",
"1182 1380 OFFCURVE",
"1235 1469 CURVE",
"1267 1471 OFFCURVE",
"1299 1473 OFFCURVE",
"1331 1476 CURVE SMOOTH",
"1362 1479 OFFCURVE",
"1394 1481 OFFCURVE",
"1426 1484 CURVE",
"1299 1251 OFFCURVE",
"1190 1011 OFFCURVE",
"1087 768 CURVE SMOOTH",
"1035 647 OFFCURVE",
"985 525 OFFCURVE",
"936 403 CURVE SMOOTH",
"887 281 OFFCURVE",
"837 159 OFFCURVE",
"788 37 CURVE",
"765 38 OFFCURVE",
"743 38 OFFCURVE",
"721 38 CURVE SMOOTH",
"699 38 OFFCURVE",
"677 38 OFFCURVE",
"654 38 CURVE SMOOTH",
"623 38 OFFCURVE",
"593 38 OFFCURVE",
"563 38 CURVE SMOOTH",
"532 37 OFFCURVE",
"502 37 OFFCURVE",
"472 37 CURVE"
);
}
);
width = 1538;
}
);
unicode = 0056;
},
{
glyphname = W;
lastChange = "2012-06-10 13:53:26 +0000";
layers = (
{
anchors = (
{
name = top;
position = "{1113, 1454}";
}
);
layerId = "16808965-E153-4B2B-ADB3-00196C646C32";
name = Regular;
paths = (
{
closed = 1;
nodes = (
"229 1480 OFFCURVE",
"287 1476 OFFCURVE",
"343 1472 CURVE",
"400 1300 OFFCURVE",
"445 1123 OFFCURVE",
"483 944 CURVE SMOOTH",
"521 765 OFFCURVE",
"552 585 OFFCURVE",
"580 404 CURVE",
"651 517 OFFCURVE",
"719 631 OFFCURVE",
"785 745 CURVE SMOOTH",
"850 859 OFFCURVE",
"917 973 OFFCURVE",
"986 1087 CURVE",
"1143 1087 LINE",
"1185 969 OFFCURVE",
"1226 852 OFFCURVE",
"1267 735 CURVE SMOOTH",
"1308 618 OFFCURVE",
"1351 501 OFFCURVE",
"1397 385 CURVE",
"1530 754 OFFCURVE",
"1675 1123 OFFCURVE",
"1864 1474 CURVE",
"1894 1475 OFFCURVE",
"1923 1477 OFFCURVE",
"1952 1479 CURVE SMOOTH",
"1980 1481 OFFCURVE",
"2009 1483 OFFCURVE",
"2038 1484 CURVE",
"1922 1252 OFFCURVE",
"1826 1012 OFFCURVE",
"1746 768 CURVE SMOOTH",
"1665 524 OFFCURVE",
"1599 277 OFFCURVE",
"1542 29 CURVE",
"1495 30 OFFCURVE",
"1449 32 OFFCURVE",
"1402 33 CURVE SMOOTH",
"1355 34 OFFCURVE",
"1309 35 OFFCURVE",
"1263 36 CURVE",
"1176 295 OFFCURVE",
"1114 563 OFFCURVE",
"1047 830 CURVE",
"927 562 OFFCURVE",
"807 298 OFFCURVE",
"674 35 CURVE",
"573 34 OFFCURVE",
"473 31 OFFCURVE",
"373 27 CURVE",
"364 274 OFFCURVE",
"347 521 OFFCURVE",
"316 765 CURVE SMOOTH",
"285 1009 OFFCURVE",
"240 1249 OFFCURVE",
"172 1484 CURVE"
);
}
);
width = 2226;
}
);
unicode = 0057;
},
{
glyphname = X;
lastChange = "2012-06-10 13:53:25 +0000";
layers = (
{
layerId = "16808965-E153-4B2B-ADB3-00196C646C32";
name = Regular;
paths = (
{
closed = 1;
nodes = (
"399 1474 OFFCURVE",
"431 1471 OFFCURVE",
"463 1469 CURVE SMOOTH",
"495 1467 OFFCURVE",
"527 1465 OFFCURVE",
"559 1462 CURVE",
"672 1255 OFFCURVE",
"776 1046 OFFCURVE",
"880 833 CURVE",
"1023 1048 OFFCURVE",
"1165 1258 OFFCURVE",
"1318 1466 CURVE",
"1350 1467 OFFCURVE",
"1382 1470 OFFCURVE",
"1415 1473 CURVE SMOOTH",
"1448 1476 OFFCURVE",
"1480 1478 OFFCURVE",
"1512 1481 CURVE",
"1323 1225 OFFCURVE",
"1152 963 OFFCURVE",
"979 698 CURVE",
"1120 465 OFFCURVE",
"1259 234 OFFCURVE",
"1414 10 CURVE",
"1314 21 OFFCURVE",
"1215 27 OFFCURVE",
"1114 32 CURVE",
"1017 207 OFFCURVE",
"930 383 OFFCURVE",
"843 563 CURVE",
"724 382 OFFCURVE",
"604 206 OFFCURVE",
"477 31 CURVE",
"377 27 OFFCURVE",
"275 21 OFFCURVE",
"174 10 CURVE",
"370 237 OFFCURVE",
"557 465 OFFCURVE",
"746 698 CURVE",
"623 962 OFFCURVE",
"504 1221 OFFCURVE",
"367 1477 CURVE"
);
}
);
width = 1645;
}
);
unicode = 0058;
},
{
glyphname = Y;
lastChange = "2012-06-10 13:53:26 +0000";
layers = (
{
anchors = (
{
name = top;
position = "{692, 1454}";
}
);
layerId = "16808965-E153-4B2B-ADB3-00196C646C32";
name = Regular;
paths = (
{
closed = 1;
nodes = (
"95 1480 OFFCURVE",
"127 1477 OFFCURVE",
"159 1474 CURVE SMOOTH",
"191 1471 OFFCURVE",
"223 1469 OFFCURVE",
"255 1466 CURVE",
"383 1217 OFFCURVE",
"496 964 OFFCURVE",
"609 708 CURVE",
"766 965 OFFCURVE",
"922 1219 OFFCURVE",
"1094 1468 CURVE",
"1159 1471 OFFCURVE",
"1224 1477 OFFCURVE",
"1289 1484 CURVE",
"1184 1329 OFFCURVE",
"1084 1170 OFFCURVE",
"990 1009 CURVE SMOOTH",
"895 847 OFFCURVE",
"801 685 OFFCURVE",
"706 523 CURVE",
"691 360 OFFCURVE",
"681 200 OFFCURVE",
"672 37 CURVE",
"654 38 OFFCURVE",
"636 38 OFFCURVE",
"618 38 CURVE SMOOTH",
"600 38 OFFCURVE",
"582 38 OFFCURVE",
"564 38 CURVE SMOOTH",
"540 38 OFFCURVE",
"516 38 OFFCURVE",
"492 38 CURVE",
"467 37 OFFCURVE",
"443 37 OFFCURVE",
"418 37 CURVE",
"435 200 OFFCURVE",
"451 359 OFFCURVE",
"467 522 CURVE",
"338 847 OFFCURVE",
"212 1168 OFFCURVE",
"63 1484 CURVE"
);
}
);
width = 1384;
}
);
unicode = 0059;
},
{
glyphname = Z;
lastChange = "2012-06-10 13:53:26 +0000";
layers = (
{
anchors = (
{
name = top;
position = "{821, 1454}";
}
);
layerId = "16808965-E153-4B2B-ADB3-00196C646C32";
name = Regular;
paths = (
{
closed = 1;
nodes = (
"320 1481 LINE",
"507 1462 OFFCURVE",
"691 1454 OFFCURVE",
"879 1454 CURVE SMOOTH",
"1078 1454 OFFCURVE",
"1275 1463 OFFCURVE",
"1474 1482 CURVE",
"1469 1459 OFFCURVE",
"1465 1435 OFFCURVE",
"1461 1411 CURVE SMOOTH",
"1457 1387 OFFCURVE",
"1453 1363 OFFCURVE",
"1448 1340 CURVE",
"1276 1167 OFFCURVE",
"1106 994 OFFCURVE",
"938 821 CURVE SMOOTH",
"769 648 OFFCURVE",
"599 474 OFFCURVE",
"427 301 CURVE",
"556 305 OFFCURVE",
"683 308 OFFCURVE",
"812 308 CURVE SMOOTH",
"999 308 OFFCURVE",
"1181 303 OFFCURVE",
"1366 291 CURVE",
"1365 274 OFFCURVE",
"1365 258 OFFCURVE",
"1365 241 CURVE SMOOTH",
"1365 224 OFFCURVE",
"1365 208 OFFCURVE",
"1365 191 CURVE SMOOTH",
"1365 130 OFFCURVE",
"1366 70 OFFCURVE",
"1368 10 CURVE",
"1169 29 OFFCURVE",
"972 38 OFFCURVE",
"771 38 CURVE SMOOTH",
"570 38 OFFCURVE",
"371 29 OFFCURVE",
"168 10 CURVE",
"187 101 OFFCURVE",
"201 190 OFFCURVE",
"216 281 CURVE",
"552 632 OFFCURVE",
"886 973 OFFCURVE",
"1231 1316 CURVE",
"1106 1311 OFFCURVE",
"985 1308 OFFCURVE",
"861 1308 CURVE SMOOTH",
"678 1308 OFFCURVE",
"500 1314 OFFCURVE",
"320 1330 CURVE",
"320 1431 LINE"
);
}
);
width = 1642;
}
);
unicode = 005A;
},
{
glyphname = bracketleft;
lastChange = "2012-06-10 13:53:25 +0000";
layers = (
{
layerId = "16808965-E153-4B2B-ADB3-00196C646C32";
name = Regular;
paths = (
{
closed = 1;
nodes = (
"492 1519 OFFCURVE",
"556 1508 OFFCURVE",
"624 1508 CURVE SMOOTH",
"696 1508 OFFCURVE",
"768 1522 OFFCURVE",
"836 1546 CURVE",
"833 1525 OFFCURVE",
"831 1504 OFFCURVE",
"828 1484 CURVE SMOOTH",
"825 1463 OFFCURVE",
"823 1442 OFFCURVE",
"821 1421 CURVE",
"753 1398 OFFCURVE",
"685 1389 OFFCURVE",
"616 1389 CURVE SMOOTH",
"611 1389 OFFCURVE",
"605 1389 OFFCURVE",
"599 1389 CURVE SMOOTH",
"593 1389 OFFCURVE",
"587 1389 OFFCURVE",
"582 1390 CURVE",
"543 914 OFFCURVE",
"503 445 OFFCURVE",
"459 -31 CURVE",
"496 -31 LINE SMOOTH",
"563 -31 OFFCURVE",
"629 -36 OFFCURVE",
"690 -56 CURVE",
"687 -90 OFFCURVE",
"685 -124 OFFCURVE",
"684 -158 CURVE SMOOTH",
"682 -192 OFFCURVE",
"680 -226 OFFCURVE",
"678 -260 CURVE",
"615 -237 OFFCURVE",
"549 -226 OFFCURVE",
"481 -226 CURVE SMOOTH",
"412 -226 OFFCURVE",
"342 -237 OFFCURVE",
"274 -260 CURVE",
"345 345 OFFCURVE",
"396 941 OFFCURVE",
"432 1546 CURVE"
);
}
);
width = 786;
}
);
unicode = 005B;
},
{
glyphname = backslash;
lastChange = "2012-06-10 13:53:25 +0000";
layers = (
{
layerId = "16808965-E153-4B2B-ADB3-00196C646C32";
name = Regular;
paths = (
{
closed = 1;
nodes = (
"214 1175 OFFCURVE",
"264 899 OFFCURVE",
"313 623 CURVE SMOOTH",
"362 346 OFFCURVE",
"412 69 OFFCURVE",
"471 -204 CURVE",
"408 -189 OFFCURVE",
"349 -173 OFFCURVE",
"285 -168 CURVE",
"236 105 OFFCURVE",
"193 381 OFFCURVE",
"150 657 CURVE SMOOTH",
"106 933 OFFCURVE",
"63 1207 OFFCURVE",
"12 1482 CURVE",
"59 1466 OFFCURVE",
"108 1457 OFFCURVE",
"157 1450 CURVE"
);
}
);
width = 649;
}
);
unicode = 005C;
},
{
glyphname = bracketright;
lastChange = "2012-06-10 13:53:25 +0000";
layers = (
{
layerId = "16808965-E153-4B2B-ADB3-00196C646C32";
name = Regular;
paths = (
{
closed = 1;
nodes = (
"575 941 OFFCURVE",
"521 345 OFFCURVE",
"488 -260 CURVE",
"425 -237 OFFCURVE",
"359 -226 OFFCURVE",
"291 -226 CURVE SMOOTH",
"222 -226 OFFCURVE",
"152 -237 OFFCURVE",
"84 -260 CURVE",
"87 -227 OFFCURVE",
"91 -195 OFFCURVE",
"95 -163 CURVE SMOOTH",
"99 -131 OFFCURVE",
"103 -99 OFFCURVE",
"106 -66 CURVE",
"174 -47 OFFCURVE",
"240 -40 OFFCURVE",
"308 -40 CURVE SMOOTH",
"340 -40 LINE",
"380 440 OFFCURVE",
"422 910 OFFCURVE",
"466 1390 CURVE",
"459 1389 OFFCURVE",
"452 1389 OFFCURVE",
"445 1389 CURVE SMOOTH",
"438 1389 OFFCURVE",
"432 1389 OFFCURVE",
"425 1389 CURVE SMOOTH",
"358 1389 OFFCURVE",
"294 1396 OFFCURVE",
"234 1421 CURVE",
"235 1442 OFFCURVE",
"237 1463 OFFCURVE",
"238 1484 CURVE SMOOTH",
"239 1504 OFFCURVE",
"241 1525 OFFCURVE",
"242 1546 CURVE",
"302 1519 OFFCURVE",
"366 1508 OFFCURVE",
"434 1508 CURVE SMOOTH",
"506 1508 OFFCURVE",
"578 1522 OFFCURVE",
"646 1546 CURVE"
);
}
);
width = 780;
}
);
unicode = 005D;
},
{
glyphname = asciicircum;
lastChange = "2012-06-10 13:53:25 +0000";
layers = (
{
layerId = "16808965-E153-4B2B-ADB3-00196C646C32";
name = Regular;
paths = (
{
closed = 1;
nodes = (
"807 1473 LINE",
"848 1428 OFFCURVE",
"888 1383 OFFCURVE",
"927 1337 CURVE SMOOTH",
"1005 1244 OFFCURVE",
"1085 1154 OFFCURVE",
"1170 1068 CURVE SMOOTH",
"1212 1025 OFFCURVE",
"1257 984 OFFCURVE",
"1304 946 CURVE",
"1257 948 OFFCURVE",
"1211 950 OFFCURVE",
"1164 951 CURVE SMOOTH",
"1117 952 OFFCURVE",
"1070 953 OFFCURVE",
"1023 954 CURVE",
"964 1022 OFFCURVE",
"915 1095 OFFCURVE",
"867 1171 CURVE SMOOTH",
"843 1209 OFFCURVE",
"820 1247 OFFCURVE",
"797 1286 CURVE SMOOTH",
"774 1325 OFFCURVE",
"750 1363 OFFCURVE",
"726 1400 CURVE",
"695 1363 OFFCURVE",
"664 1325 OFFCURVE",
"634 1287 CURVE SMOOTH",
"574 1210 OFFCURVE",
"514 1133 OFFCURVE",
"451 1060 CURVE SMOOTH",
"419 1023 OFFCURVE",
"386 988 OFFCURVE",
"351 953 CURVE",
"304 952 OFFCURVE",
"258 951 OFFCURVE",
"211 950 CURVE SMOOTH",
"164 949 OFFCURVE",
"117 947 OFFCURVE",
"70 946 CURVE",
"177 1025 OFFCURVE",
"275 1112 OFFCURVE",
"371 1202 CURVE SMOOTH",
"419 1247 OFFCURVE",
"467 1292 OFFCURVE",
"515 1338 CURVE SMOOTH",
"562 1384 OFFCURVE",
"610 1429 OFFCURVE",
"659 1473 CURVE"
);
}
);
width = 1419;
}
);
unicode = 005E;
},
{
glyphname = underscore;
lastChange = "2012-06-10 13:53:25 +0000";
layers = (
{
layerId = "16808965-E153-4B2B-ADB3-00196C646C32";
name = Regular;
paths = (
{
closed = 1;
nodes = (
"1305 -336 OFFCURVE",
"1290 -372 OFFCURVE",
"1290 -405 CURVE SMOOTH",
"1290 -432 OFFCURVE",
"1298 -456 OFFCURVE",
"1317 -473 CURVE",
"1143 -471 OFFCURVE",
"969 -470 OFFCURVE",
"795 -470 CURVE SMOOTH",
"620 -470 OFFCURVE",
"447 -471 OFFCURVE",
"274 -473 CURVE",
"301 -449 OFFCURVE",
"313 -416 OFFCURVE",
"313 -384 CURVE SMOOTH",
"313 -357 OFFCURVE",
"304 -332 OFFCURVE",
"287 -313 CURVE",
"452 -316 OFFCURVE",
"615 -317 OFFCURVE",
"780 -317 CURVE SMOOTH",
"965 -317 OFFCURVE",
"1147 -316 OFFCURVE",
"1332 -313 CURVE"
);
}
);
width = 1614;
}
);
unicode = 005F;
},
{
glyphname = grave;
lastChange = "2012-06-10 13:53:26 +0000";
layers = (
{
anchors = (
{
name = _top;
position = "{275.5, 1108}";
}
);
layerId = "16808965-E153-4B2B-ADB3-00196C646C32";
name = Regular;
paths = (
{
closed = 1;
nodes = (
"265 1592 OFFCURVE",
"284 1563 OFFCURVE",
"303 1534 CURVE SMOOTH",
"340 1474 OFFCURVE",
"378 1416 OFFCURVE",
"418 1358 CURVE SMOOTH",
"438 1329 OFFCURVE",
"459 1301 OFFCURVE",
"481 1274 CURVE",
"409 1278 OFFCURVE",
"339 1281 OFFCURVE",
"267 1281 CURVE SMOOTH",
"235 1281 LINE",
"208 1338 OFFCURVE",
"182 1397 OFFCURVE",
"157 1456 CURVE SMOOTH",
"132 1515 OFFCURVE",
"103 1573 OFFCURVE",
"70 1628 CURVE",
"127 1623 OFFCURVE",
"185 1622 OFFCURVE",
"244 1621 CURVE"
);
}
);
width = 578;
}
);
unicode = 0060;
},
{
glyphname = a;
lastChange = "2012-10-08 00:19:18 +0000";
layers = (
{
anchors = (
{
name = ogonek;
position = "{625, 15}";
},
{
name = top;
position = "{670, 1108}";
}
);
layerId = "16808965-E153-4B2B-ADB3-00196C646C32";
name = Regular;
paths = (
{
closed = 1;
nodes = (
"650 581 LINE",
"628 580 OFFCURVE",
"606 580 OFFCURVE",
"584 579 CURVE SMOOTH",
"539 578 OFFCURVE",
"494 572 OFFCURVE",
"450 560 CURVE SMOOTH",
"428 554 OFFCURVE",
"407 545 OFFCURVE",
"387 534 CURVE",
"335 499 OFFCURVE",
"310 437 OFFCURVE",
"303 377 CURVE",
"303 353 OFFCURVE",
"309 329 OFFCURVE",
"321 309 CURVE SMOOTH",
"333 289 OFFCURVE",
"351 274 OFFCURVE",
"375 269 CURVE SMOOTH",
"422 258 OFFCURVE",
"471 253 OFFCURVE",
"520 253 CURVE SMOOTH",
"555 253 OFFCURVE",
"593 254 OFFCURVE",
"630 261 CURVE SMOOTH",
"666 268 OFFCURVE",
"702 279 OFFCURVE",
"733 302 CURVE",
"765 333 OFFCURVE",
"782 370 OFFCURVE",
"792 410 CURVE SMOOTH",
"797 430 OFFCURVE",
"800 450 OFFCURVE",
"803 471 CURVE",
"805 492 OFFCURVE",
"807 512 OFFCURVE",
"810 531 CURVE",
"814 581 LINE"
);
},
{
closed = 1;
nodes = (
"1051 457 OFFCURVE",
"1040 280 OFFCURVE",
"1040 100 CURVE SMOOTH",
"1040 85 OFFCURVE",
"1040 70 OFFCURVE",
"1040 55 CURVE SMOOTH",
"1040 40 OFFCURVE",
"1040 25 OFFCURVE",
"1041 10 CURVE",
"988 17 OFFCURVE",
"934 19 OFFCURVE",
"879 22 CURVE",
"880 52 OFFCURVE",
"881 82 OFFCURVE",
"882 112 CURVE SMOOTH",
"883 141 OFFCURVE",
"884 171 OFFCURVE",
"885 201 CURVE",
"837 128 OFFCURVE",
"771 78 OFFCURVE",
"698 47 CURVE SMOOTH",
"625 15 OFFCURVE",
"543 2 OFFCURVE",
"464 2 CURVE SMOOTH",
"376 2 OFFCURVE",
"290 21 OFFCURVE",
"230 81 CURVE",
"185 130 OFFCURVE",
"168 198 OFFCURVE",
"168 266 CURVE SMOOTH",
"168 331 OFFCURVE",
"181 405 OFFCURVE",
"211 471 CURVE SMOOTH",
"241 537 OFFCURVE",
"288 594 OFFCURVE",
"356 627 CURVE SMOOTH",
"464 679 OFFCURVE",
"567 691 OFFCURVE",
"671 691 CURVE SMOOTH",
"713 691 OFFCURVE",
"755 691 OFFCURVE",
"797 691 CURVE SMOOTH",
"838 691 OFFCURVE",
"880 691 OFFCURVE",
"922 692 CURVE",
"924 720 LINE SMOOTH",
"925 735 OFFCURVE",
"927 750 OFFCURVE",
"927 766 CURVE SMOOTH",
"927 823 OFFCURVE",
"912 880 OFFCURVE",
"871 920 CURVE",
"836 949 OFFCURVE",
"799 969 OFFCURVE",
"760 981 CURVE SMOOTH",
"720 993 OFFCURVE",
"680 999 OFFCURVE",
"640 1002 CURVE",
"523 1002 OFFCURVE",
"404 980 OFFCURVE",
"295 929 CURVE",
"296 950 OFFCURVE",
"297 971 OFFCURVE",
"297 992 CURVE SMOOTH",
"297 1012 OFFCURVE",
"298 1032 OFFCURVE",
"299 1053 CURVE",
"420 1089 OFFCURVE",
"544 1114 OFFCURVE",
"669 1114 CURVE SMOOTH",
"726 1114 OFFCURVE",
"788 1110 OFFCURVE",
"844 1096 CURVE SMOOTH",
"900 1082 OFFCURVE",
"952 1057 OFFCURVE",
"992 1017 CURVE",
"1059 940 OFFCURVE",
"1076 844 OFFCURVE",
"1076 748 CURVE SMOOTH",
"1076 711 OFFCURVE",
"1073 674 OFFCURVE",
"1070 638 CURVE SMOOTH"
);
}
);
width = 1350;
}
);
unicode = 0061;
},
{
glyphname = b;
lastChange = "2012-06-10 13:53:25 +0000";
layers = (
{
layerId = "16808965-E153-4B2B-ADB3-00196C646C32";
name = Regular;
paths = (
{
closed = 1;
nodes = (
"1170 604 LINE SMOOTH",
"1170 612 OFFCURVE",
"1170 620 OFFCURVE",
"1171 628 CURVE",
"1171 635 OFFCURVE",
"1171 643 OFFCURVE",
"1171 651 CURVE SMOOTH",
"1171 736 OFFCURVE",
"1159 828 OFFCURVE",
"1123 897 CURVE SMOOTH",
"1086 966 OFFCURVE",
"1025 1014 OFFCURVE",
"926 1014 CURVE SMOOTH",
"834 1014 OFFCURVE",
"743 980 OFFCURVE",
"683 904 CURVE SMOOTH",
"612 813 OFFCURVE",
"585 702 OFFCURVE",
"576 595 CURVE",
"579 522 OFFCURVE",
"588 445 OFFCURVE",
"633 388 CURVE",
"664 355 OFFCURVE",
"699 334 OFFCURVE",
"738 322 CURVE SMOOTH",
"777 310 OFFCURVE",
"817 306 OFFCURVE",
"856 306 CURVE",
"927 310 OFFCURVE",
"996 329 OFFCURVE",
"1056 370 CURVE",
"1092 399 OFFCURVE",
"1116 437 OFFCURVE",
"1133 478 CURVE SMOOTH",
"1149 518 OFFCURVE",
"1161 562 OFFCURVE",
"1170 603 CURVE"
);
},
{
closed = 1;
nodes = (
"528 938 OFFCURVE",
"532 937 OFFCURVE",
"534 937 CURVE",
"536 936 OFFCURVE",
"538 936 OFFCURVE",
"539 935 CURVE",
"572 994 OFFCURVE",
"624 1040 OFFCURVE",
"682 1072 CURVE SMOOTH",
"740 1103 OFFCURVE",
"805 1120 OFFCURVE",
"869 1120 CURVE SMOOTH",
"885 1120 LINE",
"900 1120 LINE SMOOTH",
"1027 1120 OFFCURVE",
"1117 1061 OFFCURVE",
"1176 973 CURVE SMOOTH",
"1235 884 OFFCURVE",
"1261 765 OFFCURVE",
"1261 648 CURVE SMOOTH",
"1261 568 OFFCURVE",
"1254 479 OFFCURVE",
"1233 392 CURVE SMOOTH",
"1212 305 OFFCURVE",
"1176 220 OFFCURVE",
"1117 151 CURVE SMOOTH",
"1038 59 OFFCURVE",
"923 9 OFFCURVE",
"807 10 CURVE SMOOTH",
"791 10 LINE SMOOTH",
"788 10 OFFCURVE",
"785 10 OFFCURVE",
"782 10 CURVE",
"779 9 OFFCURVE",
"776 9 OFFCURVE",
"773 9 CURVE SMOOTH",
"702 9 OFFCURVE",
"635 29 OFFCURVE",
"579 66 CURVE SMOOTH",
"522 102 OFFCURVE",
"476 155 OFFCURVE",
"451 219 CURVE",
"443 155 OFFCURVE",
"434 90 OFFCURVE",
"425 26 CURVE",
"369 22 OFFCURVE",
"316 17 OFFCURVE",
"260 10 CURVE",
"352 523 OFFCURVE",
"401 1029 OFFCURVE",
"413 1544 CURVE",
"440 1539 OFFCURVE",
"466 1536 OFFCURVE",
"493 1534 CURVE",
"520 1531 OFFCURVE",
"547 1528 OFFCURVE",
"575 1525 CURVE",
"560 1329 OFFCURVE",
"546 1135 OFFCURVE",
"523 939 CURVE"
);
}
);
width = 1309;
}
);
unicode = 0062;
},
{
glyphname = c;
lastChange = "2012-06-10 13:53:26 +0000";
layers = (
{
anchors = (
{
name = bottom;
position = "{642, 0}";
},
{
name = top;
position = "{642, 1108}";
}
);
layerId = "16808965-E153-4B2B-ADB3-00196C646C32";
name = Regular;
paths = (
{
closed = 1;
nodes = (
"1036 1050 OFFCURVE",
"1031 1026 OFFCURVE",
"1028 1002 CURVE",
"1024 978 OFFCURVE",
"1020 954 OFFCURVE",
"1016 929 CURVE",
"932 972 OFFCURVE",
"839 993 OFFCURVE",
"743 993 CURVE SMOOTH",
"691 993 OFFCURVE",
"635 986 OFFCURVE",
"584 967 CURVE SMOOTH",
"532 947 OFFCURVE",
"485 918 OFFCURVE",
"448 874 CURVE SMOOTH",
"409 830 OFFCURVE",
"382 778 OFFCURVE",
"365 724 CURVE SMOOTH",
"348 670 OFFCURVE",
"338 612 OFFCURVE",
"333 557 CURVE",
"333 520 OFFCURVE",
"337 480 OFFCURVE",
"349 445 CURVE SMOOTH",
"360 409 OFFCURVE",
"378 377 OFFCURVE",
"409 354 CURVE",
"481 305 OFFCURVE",
"569 295 OFFCURVE",
"657 288 CURVE",
"809 285 LINE",
"821 285 LINE SMOOTH",
"865 285 OFFCURVE",
"911 295 OFFCURVE",
"952 315 CURVE",
"949 260 OFFCURVE",
"948 209 OFFCURVE",
"948 154 CURVE SMOOTH",
"948 119 OFFCURVE",
"949 85 OFFCURVE",
"950 50 CURVE",
"854 15 OFFCURVE",
"756 1 OFFCURVE",
"659 1 CURVE SMOOTH",
"584 1 OFFCURVE",
"507 8 OFFCURVE",
"436 29 CURVE SMOOTH",
"364 50 OFFCURVE",
"299 87 OFFCURVE",
"252 146 CURVE SMOOTH",
"179 234 OFFCURVE",
"158 349 OFFCURVE",
"158 466 CURVE SMOOTH",
"158 546 OFFCURVE",
"166 640 OFFCURVE",
"191 729 CURVE SMOOTH",
"215 818 OFFCURVE",
"257 905 OFFCURVE",
"325 970 CURVE SMOOTH",
"386 1029 OFFCURVE",
"459 1065 OFFCURVE",
"536 1087 CURVE SMOOTH",
"613 1109 OFFCURVE",
"694 1116 OFFCURVE",
"770 1116 CURVE SMOOTH",
"866 1116 OFFCURVE",
"957 1100 OFFCURVE",
"1045 1067 CURVE",
"1043 1070 OFFCURVE",
"1042 1072 OFFCURVE",
"1041 1075 CURVE"
);
}
);
width = 1284;
}
);
unicode = 0063;
},
{
glyphname = d;
lastChange = "2012-06-10 13:53:26 +0000";
layers = (
{
anchors = (
{
name = center;
position = "{663, 554}";
}
);
layerId = "16808965-E153-4B2B-ADB3-00196C646C32";
name = Regular;
paths = (
{
closed = 1;
nodes = (
"876 1141 OFFCURVE",
"908 1334 OFFCURVE",
"943 1529 CURVE",
"971 1531 OFFCURVE",
"999 1534 OFFCURVE",
"1026 1537 CURVE SMOOTH",
"1053 1540 OFFCURVE",
"1081 1544 OFFCURVE",
"1109 1547 CURVE",
"1016 1034 OFFCURVE",
"960 527 OFFCURVE",
"952 12 CURVE",
"925 16 OFFCURVE",
"898 19 OFFCURVE",
"871 21 CURVE SMOOTH",
"844 23 OFFCURVE",
"817 25 OFFCURVE",
"790 28 CURVE",
"791 60 OFFCURVE",
"792 92 OFFCURVE",
"793 124 CURVE SMOOTH",
"794 156 OFFCURVE",
"795 188 OFFCURVE",
"797 220 CURVE",
"760 155 OFFCURVE",
"706 102 OFFCURVE",
"643 66 CURVE SMOOTH",
"579 30 OFFCURVE",
"508 10 OFFCURVE",
"436 10 CURVE SMOOTH",
"421 10 LINE SMOOTH",
"418 10 OFFCURVE",
"414 10 OFFCURVE",
"411 10 CURVE",
"408 9 OFFCURVE",
"404 9 OFFCURVE",
"401 9 CURVE SMOOTH",
"286 9 OFFCURVE",
"179 58 OFFCURVE",
"118 150 CURVE SMOOTH",
"61 237 OFFCURVE",
"43 338 OFFCURVE",
"43 443 CURVE SMOOTH",
"43 527 OFFCURVE",
"52 623 OFFCURVE",
"76 716 CURVE SMOOTH",
"100 809 OFFCURVE",
"140 899 OFFCURVE",
"203 974 CURVE SMOOTH",
"240 1021 OFFCURVE",
"288 1057 OFFCURVE",
"341 1082 CURVE SMOOTH",
"393 1107 OFFCURVE",
"451 1120 OFFCURVE",
"507 1120 CURVE SMOOTH",
"519 1120 LINE",
"536 1120 LINE SMOOTH",
"600 1120 OFFCURVE",
"662 1105 OFFCURVE",
"715 1074 CURVE SMOOTH",
"767 1043 OFFCURVE",
"810 999 OFFCURVE",
"834 940 CURVE",
"837 941 OFFCURVE",
"840 942 OFFCURVE",
"843 943 CURVE",
"846 943 OFFCURVE",
"849 944 OFFCURVE",
"852 945 CURVE"
);
},
{
closed = 1;
nodes = (
"153 579 LINE",
"156 504 OFFCURVE",
"170 428 OFFCURVE",
"221 373 CURVE",
"248 346 OFFCURVE",
"281 332 OFFCURVE",
"317 324 CURVE SMOOTH",
"353 316 OFFCURVE",
"391 313 OFFCURVE",
"428 313 CURVE",
"501 316 OFFCURVE",
"581 321 OFFCURVE",
"646 364 CURVE",
"691 397 OFFCURVE",
"715 451 OFFCURVE",
"728 507 CURVE SMOOTH",
"741 562 OFFCURVE",
"743 618 OFFCURVE",
"743 658 CURVE SMOOTH",
"743 714 OFFCURVE",
"738 769 OFFCURVE",
"727 822 CURVE SMOOTH",
"715 879 OFFCURVE",
"687 927 OFFCURVE",
"649 960 CURVE SMOOTH",
"611 993 OFFCURVE",
"562 1011 OFFCURVE",
"509 1011 CURVE SMOOTH",
"495 1011 LINE",
"484 1011 LINE SMOOTH",
"409 1011 OFFCURVE",
"350 984 OFFCURVE",
"303 941 CURVE SMOOTH",
"256 898 OFFCURVE",
"222 840 OFFCURVE",
"198 776 CURVE SMOOTH",
"174 712 OFFCURVE",
"160 644 OFFCURVE",
"153 581 CURVE"
);
}
);
width = 1325;
}
);
unicode = 0064;
},
{
glyphname = e;
lastChange = "2012-10-08 00:23:36 +0000";
layers = (
{
anchors = (
{
name = bottom;
position = "{661, 3}";
},
{
name = ogonek;
position = "{796, 3}";
},
{
name = top;
position = "{689, 1108}";
}
);
layerId = "16808965-E153-4B2B-ADB3-00196C646C32";
name = Regular;
paths = (
{
closed = 1;
nodes = (
"1125 675 LINE",
"1124 665 OFFCURVE",
"1123 655 OFFCURVE",
"1122 646 CURVE SMOOTH",
"1121 636 OFFCURVE",
"1119 626 OFFCURVE",
"1118 616 CURVE",
"952 614 OFFCURVE",
"786 613 OFFCURVE",
"621 613 CURVE SMOOTH",
"573 613 OFFCURVE",
"525 613 OFFCURVE",
"478 614 CURVE SMOOTH",
"430 614 OFFCURVE",
"382 614 OFFCURVE",
"334 614 CURVE",
"333 589 OFFCURVE",
"331 563 OFFCURVE",
"331 536 CURVE SMOOTH",
"331 493 OFFCURVE",
"334 452 OFFCURVE",
"346 414 CURVE SMOOTH",
"358 376 OFFCURVE",
"377 341 OFFCURVE",
"412 316 CURVE",
"456 288 OFFCURVE",
"507 271 OFFCURVE",
"560 260 CURVE SMOOTH",
"612 249 OFFCURVE",
"667 246 OFFCURVE",
"718 246 CURVE SMOOTH",
"777 246 OFFCURVE",
"836 246 OFFCURVE",
"894 251 CURVE SMOOTH",
"952 256 OFFCURVE",
"1008 268 OFFCURVE",
"1061 295 CURVE",
"1060 276 OFFCURVE",
"1060 257 OFFCURVE",
"1060 238 CURVE SMOOTH",
"1060 219 OFFCURVE",
"1060 200 OFFCURVE",
"1060 181 CURVE SMOOTH",
"1060 162 OFFCURVE",
"1060 143 OFFCURVE",
"1060 124 CURVE SMOOTH",
"1060 105 OFFCURVE",
"1061 86 OFFCURVE",
"1062 67 CURVE",
"931 23 OFFCURVE",
"796 3 OFFCURVE",
"661 3 CURVE",
"589 8 OFFCURVE",
"514 18 OFFCURVE",
"446 39 CURVE SMOOTH",
"377 60 OFFCURVE",
"314 93 OFFCURVE",
"266 148 CURVE SMOOTH",
"227 191 OFFCURVE",
"202 241 OFFCURVE",
"187 297 CURVE SMOOTH",
"171 352 OFFCURVE",
"166 410 OFFCURVE",
"166 469 CURVE SMOOTH",
"166 548 OFFCURVE",
"177 639 OFFCURVE",
"204 728 CURVE SMOOTH",
"231 816 OFFCURVE",
"273 902 OFFCURVE",
"334 967 CURVE SMOOTH",
"386 1020 OFFCURVE",
"450 1057 OFFCURVE",
"518 1080 CURVE SMOOTH",
"586 1103 OFFCURVE",
"659 1113 OFFCURVE",
"727 1114 CURVE",
"783 1111 OFFCURVE",
"842 1105 OFFCURVE",
"897 1089 CURVE SMOOTH",
"952 1073 OFFCURVE",
"1003 1049 OFFCURVE",
"1043 1009 CURVE",
"1078 970 OFFCURVE",
"1098 924 OFFCURVE",
"1110 875 CURVE SMOOTH",
"1122 826 OFFCURVE",
"1125 772 OFFCURVE",
"1125 720 CURVE SMOOTH",
"1125 713 OFFCURVE",
"1125 705 OFFCURVE",
"1125 697 CURVE",
"1124 689 OFFCURVE",
"1124 681 OFFCURVE",
"1124 674 CURVE"
);
},
{
closed = 1;
nodes = (
"1000 830 OFFCURVE",
"971 902 OFFCURVE",
"922 954 CURVE SMOOTH",
"873 1006 OFFCURVE",
"804 1039 OFFCURVE",
"720 1039 CURVE SMOOTH",
"631 1039 OFFCURVE",
"535 1014 OFFCURVE",
"466 949 CURVE",
"406 897 OFFCURVE",
"367 825 OFFCURVE",
"363 749 CURVE",
"400 748 OFFCURVE",
"436 747 OFFCURVE",
"473 747 CURVE SMOOTH",
"510 747 OFFCURVE",
"547 747 OFFCURVE",
"584 747 CURVE SMOOTH",
"725 747 OFFCURVE",
"862 748 OFFCURVE",
"1003 751 CURVE"
);
}
);
width = 1378;
}
);
unicode = 0065;
},
{
glyphname = f;
lastChange = "2012-10-07 19:59:07 +0000";
layers = (
{
layerId = "16808965-E153-4B2B-ADB3-00196C646C32";
name = Regular;
paths = (
{
closed = 1;
nodes = (
"958 1482 OFFCURVE",
"954 1460 OFFCURVE",
"951 1438 CURVE SMOOTH",
"948 1415 OFFCURVE",
"945 1393 OFFCURVE",
"942 1370 CURVE",
"933 1369 OFFCURVE",
"923 1369 OFFCURVE",
"914 1369 CURVE SMOOTH",
"904 1369 OFFCURVE",
"894 1369 OFFCURVE",
"885 1369 CURVE SMOOTH",
"854 1369 OFFCURVE",
"823 1370 OFFCURVE",
"792 1371 CURVE",
"755 1368 OFFCURVE",
"715 1361 OFFCURVE",
"684 1334 CURVE",
"652 1295 OFFCURVE",
"647 1244 OFFCURVE",
"642 1197 CURVE",
"642 1180 OFFCURVE",
"642 1163 OFFCURVE",
"642 1146 CURVE SMOOTH",
"642 1129 OFFCURVE",
"642 1111 OFFCURVE",
"643 1094 CURVE",
"735 1095 OFFCURVE",
"829 1099 OFFCURVE",
"921 1108 CURVE",
"914 1053 OFFCURVE",
"909 1001 OFFCURVE",
"904 946 CURVE",
"812 941 OFFCURVE",
"721 939 OFFCURVE",
"629 938 CURVE",
"610 637 OFFCURVE",
"593 339 OFFCURVE",
"582 38 CURVE",
"571 39 OFFCURVE",
"561 39 OFFCURVE",
"551 39 CURVE SMOOTH",
"540 39 OFFCURVE",
"530 39 OFFCURVE",
"519 39 CURVE SMOOTH",
"458 39 OFFCURVE",
"397 36 OFFCURVE",
"335 30 CURVE",
"382 335 OFFCURVE",
"419 635 OFFCURVE",
"454 940 CURVE",
"402 941 OFFCURVE",
"351 943 OFFCURVE",
"299 947 CURVE",
"301 974 OFFCURVE",
"303 1001 OFFCURVE",
"306 1028 CURVE",
"308 1055 OFFCURVE",
"310 1082 OFFCURVE",
"311 1109 CURVE",
"362 1102 OFFCURVE",
"414 1100 OFFCURVE",
"465 1097 CURVE",
"471 1122 OFFCURVE",
"476 1149 OFFCURVE",
"480 1179 CURVE SMOOTH",
"487 1239 OFFCURVE",
"499 1300 OFFCURVE",
"527 1354 CURVE SMOOTH",
"554 1408 OFFCURVE",
"617 1454 OFFCURVE",
"693 1479 CURVE SMOOTH",
"730 1491 OFFCURVE",
"769 1499 OFFCURVE",
"808 1502 CURVE",
"807 1502 LINE",
"818 1501 OFFCURVE",
"828 1501 OFFCURVE",
"839 1501 CURVE SMOOTH",
"849 1501 OFFCURVE",
"859 1501 OFFCURVE",
"870 1501 CURVE SMOOTH",
"901 1501 OFFCURVE",
"930 1502 OFFCURVE",
"961 1505 CURVE"
);
}
);
width = 1014;
}
);
unicode = 0066;
},
{
glyphname = g;
lastChange = "2012-06-10 13:53:26 +0000";
layers = (
{
anchors = (
{
name = top;
position = "{707, 1108}";
}
);
layerId = "16808965-E153-4B2B-ADB3-00196C646C32";
name = Regular;
paths = (
{
closed = 1;
nodes = (
"874 602 OFFCURVE",
"875 626 OFFCURVE",
"875 653 CURVE SMOOTH",
"875 769 OFFCURVE",
"846 851 OFFCURVE",
"796 906 CURVE SMOOTH",
"746 961 OFFCURVE",
"674 986 OFFCURVE",
"590 986 CURVE SMOOTH",
"505 986 OFFCURVE",
"414 953 OFFCURVE",
"358 884 CURVE SMOOTH",
"322 840 OFFCURVE",
"300 789 OFFCURVE",
"285 737 CURVE SMOOTH",
"270 685 OFFCURVE",
"264 630 OFFCURVE",
"260 578 CURVE",
"261 557 OFFCURVE",
"263 535 OFFCURVE",
"264 512 CURVE SMOOTH",
"267 467 OFFCURVE",
"273 423 OFFCURVE",
"289 384 CURVE SMOOTH",
"297 364 OFFCURVE",
"309 346 OFFCURVE",
"324 331 CURVE",
"381 292 OFFCURVE",
"456 289 OFFCURVE",
"527 289 CURVE SMOOTH",
"604 289 OFFCURVE",
"685 300 OFFCURVE",
"758 331 CURVE",
"801 356 OFFCURVE",
"827 396 OFFCURVE",
"843 440 CURVE SMOOTH",
"859 484 OFFCURVE",
"866 532 OFFCURVE",
"871 575 CURVE SMOOTH"
);
},
{
closed = 1;
nodes = (
"1041 61 OFFCURVE",
"1032 -24 OFFCURVE",
"1012 -106 CURVE SMOOTH",
"991 -188 OFFCURVE",
"958 -268 OFFCURVE",
"898 -333 CURVE",
"842 -389 OFFCURVE",
"773 -419 OFFCURVE",
"701 -435 CURVE SMOOTH",
"629 -452 OFFCURVE",
"553 -455 OFFCURVE",
"484 -455 CURVE SMOOTH",
"380 -455 OFFCURVE",
"277 -446 OFFCURVE",
"178 -419 CURVE",
"194 -319 OFFCURVE",
"206 -218 OFFCURVE",
"218 -118 CURVE",
"306 -166 OFFCURVE",
"405 -185 OFFCURVE",
"509 -185 CURVE SMOOTH",
"556 -184 OFFCURVE",
"606 -179 OFFCURVE",
"654 -163 CURVE SMOOTH",
"701 -148 OFFCURVE",
"745 -124 OFFCURVE",
"780 -85 CURVE SMOOTH",
"833 -29 OFFCURVE",
"876 37 OFFCURVE",
"896 110 CURVE",
"897 125 OFFCURVE",
"898 141 OFFCURVE",
"900 157 CURVE",
"901 172 OFFCURVE",
"902 188 OFFCURVE",
"902 203 CURVE",
"813 80 OFFCURVE",
"685 22 OFFCURVE",
"537 22 CURVE SMOOTH",
"424 22 OFFCURVE",
"317 72 OFFCURVE",
"257 165 CURVE SMOOTH",
"192 261 OFFCURVE",
"174 378 OFFCURVE",
"174 497 CURVE SMOOTH",
"174 573 OFFCURVE",
"180 658 OFFCURVE",
"200 742 CURVE SMOOTH",
"220 825 OFFCURVE",
"254 905 OFFCURVE",
"313 970 CURVE SMOOTH",
"353 1017 OFFCURVE",
"402 1051 OFFCURVE",
"457 1073 CURVE SMOOTH",
"512 1095 OFFCURVE",
"571 1105 OFFCURVE",
"627 1105 CURVE SMOOTH",
"642 1105 LINE",
"658 1105 LINE SMOOTH",
"727 1105 OFFCURVE",
"796 1086 OFFCURVE",
"853 1051 CURVE SMOOTH",
"909 1016 OFFCURVE",
"954 966 OFFCURVE",
"981 902 CURVE",
"989 934 OFFCURVE",
"997 966 OFFCURVE",
"1005 998 CURVE SMOOTH",
"1013 1029 OFFCURVE",
"1021 1061 OFFCURVE",
"1029 1093 CURVE",
"1057 1096 OFFCURVE",
"1085 1099 OFFCURVE",
"1112 1102 CURVE",
"1139 1104 OFFCURVE",
"1167 1107 OFFCURVE",
"1195 1111 CURVE",
"1130 787 OFFCURVE",
"1087 466 OFFCURVE",
"1052 141 CURVE SMOOTH"
);
}
);
width = 1413;
}
);
unicode = 0067;
},
{
glyphname = h;
lastChange = "2012-10-08 00:24:03 +0000";
layers = (
{
anchors = (
{
name = center;
position = "{648, 554}";
},
{
name = top;
position = "{888, 1120}";
}
);
layerId = "16808965-E153-4B2B-ADB3-00196C646C32";
name = Regular;
paths = (
{
closed = 1;
nodes = (
"1208 532 OFFCURVE",
"1204 389 OFFCURVE",
"1204 247 CURVE SMOOTH",
"1204 167 OFFCURVE",
"1205 90 OFFCURVE",
"1208 10 CURVE",
"1141 19 OFFCURVE",
"1073 26 OFFCURVE",
"1006 31 CURVE",
"1019 246 OFFCURVE",
"1039 457 OFFCURVE",
"1062 672 CURVE SMOOTH",
"1064 693 OFFCURVE",
"1065 714 OFFCURVE",
"1065 737 CURVE SMOOTH",
"1065 796 OFFCURVE",
"1057 852 OFFCURVE",
"1034 903 CURVE",
"991 979 OFFCURVE",
"922 1005 OFFCURVE",
"846 1005 CURVE SMOOTH",
"762 1005 OFFCURVE",
"672 971 OFFCURVE",
"612 902 CURVE SMOOTH",
"547 826 OFFCURVE",
"513 730 OFFCURVE",
"506 635 CURVE SMOOTH",
"498 534 OFFCURVE",
"491 433 OFFCURVE",
"484 333 CURVE SMOOTH",
"477 232 OFFCURVE",
"467 131 OFFCURVE",
"456 30 CURVE",
"388 25 OFFCURVE",
"319 19 OFFCURVE",
"250 10 CURVE",
"349 521 OFFCURVE",
"404 1027 OFFCURVE",
"423 1540 CURVE",
"479 1533 OFFCURVE",
"531 1527 OFFCURVE",
"587 1523 CURVE",
"571 1316 OFFCURVE",
"553 1114 OFFCURVE",
"529 907 CURVE",
"569 967 OFFCURVE",
"624 1021 OFFCURVE",
"686 1059 CURVE SMOOTH",
"748 1097 OFFCURVE",
"816 1120 OFFCURVE",
"888 1120 CURVE SMOOTH",
"899 1120 LINE",
"915 1120 LINE SMOOTH",
"966 1120 OFFCURVE",
"1018 1111 OFFCURVE",
"1063 1091 CURVE SMOOTH",
"1108 1070 OFFCURVE",
"1147 1037 OFFCURVE",
"1170 992 CURVE SMOOTH",
"1209 913 OFFCURVE",
"1219 833 OFFCURVE",
"1219 757 CURVE SMOOTH",
"1219 730 OFFCURVE",
"1218 703 OFFCURVE",
"1216 676 CURVE SMOOTH"
);
}
);
width = 1537;
}
);
unicode = 0068;
},
{
glyphname = i;
lastChange = "2012-06-10 13:53:25 +0000";
layers = (
{
layerId = "16808965-E153-4B2B-ADB3-00196C646C32";
name = Regular;
paths = (
{
closed = 1;
nodes = (
"362 1097 OFFCURVE",
"383 1093 OFFCURVE",
"405 1093 CURVE SMOOTH",
"429 1093 OFFCURVE",
"453 1098 OFFCURVE",
"477 1105 CURVE",
"446 738 OFFCURVE",
"419 377 OFFCURVE",
"395 10 CURVE",
"374 29 OFFCURVE",
"348 39 OFFCURVE",
"318 39 CURVE SMOOTH",
"287 39 OFFCURVE",
"256 29 OFFCURVE",
"231 10 CURVE",
"271 377 OFFCURVE",
"308 737 OFFCURVE",
"341 1104 CURVE"
);
},
{
closed = 1;
nodes = (
"394 1522 OFFCURVE",
"418 1515 OFFCURVE",
"443 1515 CURVE SMOOTH",
"470 1515 OFFCURVE",
"496 1523 OFFCURVE",
"519 1539 CURVE",
"517 1504 OFFCURVE",
"515 1469 OFFCURVE",
"514 1435 CURVE SMOOTH",
"513 1400 OFFCURVE",
"511 1365 OFFCURVE",
"508 1330 CURVE",
"481 1315 OFFCURVE",
"453 1307 OFFCURVE",
"424 1307 CURVE SMOOTH",
"395 1307 OFFCURVE",
"371 1315 OFFCURVE",
"350 1331 CURVE",
"354 1366 OFFCURVE",
"358 1400 OFFCURVE",
"363 1435 CURVE SMOOTH",
"367 1469 OFFCURVE",
"371 1503 OFFCURVE",
"375 1538 CURVE"
);
}
);
width = 643;
}
);
unicode = 0069;
},
{
glyphname = j;
lastChange = "2012-06-10 13:53:25 +0000";
layers = (
{
layerId = "16808965-E153-4B2B-ADB3-00196C646C32";
name = Regular;
paths = (
{
closed = 1;
nodes = (
"493 1081 OFFCURVE",
"543 1085 OFFCURVE",
"592 1092 CURVE",
"542 725 OFFCURVE",
"497 357 OFFCURVE",
"457 -14 CURVE SMOOTH",
"452 -62 OFFCURVE",
"446 -113 OFFCURVE",
"431 -161 CURVE SMOOTH",
"416 -210 OFFCURVE",
"394 -256 OFFCURVE",
"355 -293 CURVE",
"304 -338 OFFCURVE",
"244 -359 OFFCURVE",
"183 -374 CURVE SMOOTH",
"152 -381 OFFCURVE",
"121 -388 OFFCURVE",
"90 -393 CURVE SMOOTH",
"59 -398 OFFCURVE",
"29 -406 OFFCURVE",
"0 -416 CURVE",
"6 -373 OFFCURVE",
"12 -330 OFFCURVE",
"19 -287 CURVE SMOOTH",
"25 -244 OFFCURVE",
"31 -201 OFFCURVE",
"36 -158 CURVE",
"53 -154 OFFCURVE",
"72 -150 OFFCURVE",
"91 -147 CURVE SMOOTH",
"130 -141 OFFCURVE",
"168 -132 OFFCURVE",
"204 -115 CURVE SMOOTH",
"222 -107 OFFCURVE",
"239 -96 OFFCURVE",
"254 -82 CURVE",
"253 -82 LINE",
"274 -54 OFFCURVE",
"288 -21 OFFCURVE",
"296 12 CURVE SMOOTH",
"304 45 OFFCURVE",
"309 80 OFFCURVE",
"313 113 CURVE SMOOTH",
"335 275 OFFCURVE",
"357 436 OFFCURVE",
"378 597 CURVE SMOOTH",
"399 757 OFFCURVE",
"421 918 OFFCURVE",
"444 1080 CURVE"
);
},
{
closed = 1;
nodes = (
"577 1519 OFFCURVE",
"626 1528 OFFCURVE",
"674 1543 CURVE",
"671 1507 OFFCURVE",
"668 1472 OFFCURVE",
"666 1437 CURVE SMOOTH",
"664 1402 OFFCURVE",
"662 1366 OFFCURVE",
"659 1330 CURVE",
"606 1315 OFFCURVE",
"552 1308 OFFCURVE",
"496 1303 CURVE",
"501 1338 OFFCURVE",
"507 1373 OFFCURVE",
"512 1408 CURVE SMOOTH",
"517 1442 OFFCURVE",
"523 1477 OFFCURVE",
"528 1512 CURVE"
);
}
);
width = 651;
}
);
unicode = 006A;
},
{
glyphname = k;
lastChange = "2012-10-07 19:58:22 +0000";
layers = (
{
anchors = (
{
name = bottom;
position = "{638, 0}";
}
);
layerId = "16808965-E153-4B2B-ADB3-00196C646C32";
name = Regular;
paths = (
{
closed = 1;
nodes = (
"481 1533 OFFCURVE",
"533 1527 OFFCURVE",
"589 1524 CURVE",
"574 1233 OFFCURVE",
"551 942 OFFCURVE",
"520 651 CURVE",
"589 726 OFFCURVE",
"657 800 OFFCURVE",
"725 874 CURVE SMOOTH",
"792 947 OFFCURVE",
"861 1021 OFFCURVE",
"931 1094 CURVE",
"998 1095 OFFCURVE",
"1062 1096 OFFCURVE",
"1130 1099 CURVE",
"1056 1016 OFFCURVE",
"983 933 OFFCURVE",
"911 850 CURVE SMOOTH",
"838 767 OFFCURVE",
"765 684 OFFCURVE",
"692 601 CURVE",
"879 404 OFFCURVE",
"1061 211 OFFCURVE",
"1242 10 CURVE",
"1128 25 OFFCURVE",
"1012 34 OFFCURVE",
"895 37 CURVE",
"763 212 OFFCURVE",
"635 384 OFFCURVE",
"510 563 CURVE",
"507 474 OFFCURVE",
"502 385 OFFCURVE",
"496 297 CURVE SMOOTH",
"489 209 OFFCURVE",
"483 120 OFFCURVE",
"477 31 CURVE",
"440 28 OFFCURVE",
"402 25 OFFCURVE",
"365 22 CURVE SMOOTH",
"328 19 OFFCURVE",
"290 15 OFFCURVE",
"252 10 CURVE",
"352 521 OFFCURVE",
"408 1027 OFFCURVE",
"425 1540 CURVE"
);
}
);
width = 1573;
}
);
unicode = 006B;
},
{
glyphname = l;
lastChange = "2012-10-08 00:23:57 +0000";
layers = (
{
anchors = (
{
name = bottom;
position = "{281, 0}";
},
{
name = top;
position = "{473, 1088}";
},
{
name = topright;
position = "{573, 1108}";
}
);
layerId = "16808965-E153-4B2B-ADB3-00196C646C32";
name = Regular;
paths = (
{
closed = 1;
nodes = (
"396 1520 OFFCURVE",
"438 1515 OFFCURVE",
"479 1515 CURVE SMOOTH",
"484 1515 OFFCURVE",
"490 1515 OFFCURVE",
"496 1515 CURVE SMOOTH",
"501 1515 OFFCURVE",
"507 1515 OFFCURVE",
"512 1516 CURVE",
"473 1088 OFFCURVE",
"435 667 OFFCURVE",
"399 239 CURVE",
"440 239 OFFCURVE",
"479 230 OFFCURVE",
"518 218 CURVE",
"513 149 OFFCURVE",
"508 79 OFFCURVE",
"504 10 CURVE",
"459 30 OFFCURVE",
"411 39 OFFCURVE",
"360 39 CURVE SMOOTH",
"308 39 OFFCURVE",
"257 29 OFFCURVE",
"206 10 CURVE",
"270 522 OFFCURVE",
"320 1025 OFFCURVE",
"359 1537 CURVE"
);
}
);
width = 769;
}
);
unicode = 006C;
},
{
glyphname = m;
lastChange = "2012-10-08 00:26:38 +0000";
layers = (
{
layerId = "16808965-E153-4B2B-ADB3-00196C646C32";
name = Regular;
paths = (
{
closed = 1;
nodes = (
"1192 954 OFFCURVE",
"1248 1018 OFFCURVE",
"1317 1061 CURVE SMOOTH",
"1389 1109 OFFCURVE",
"1480 1123 OFFCURVE",
"1560 1123 CURVE SMOOTH",
"1609 1123 OFFCURVE",
"1660 1110 OFFCURVE",
"1701 1086 CURVE SMOOTH",
"1741 1061 OFFCURVE",
"1773 1023 OFFCURVE",
"1788 974 CURVE SMOOTH",
"1804 918 OFFCURVE",
"1809 865 OFFCURVE",
"1809 810 CURVE SMOOTH",
"1809 765 OFFCURVE",
"1805 720 OFFCURVE",
"1801 676 CURVE SMOOTH",
"1790 573 OFFCURVE",
"1785 471 OFFCURVE",
"1785 370 CURVE SMOOTH",
"1785 247 OFFCURVE",
"1794 129 OFFCURVE",
"1814 10 CURVE",
"1775 12 OFFCURVE",
"1737 14 OFFCURVE",
"1699 16 CURVE SMOOTH",
"1660 18 OFFCURVE",
"1621 20 OFFCURVE",
"1582 21 CURVE",
"1582 52 LINE SMOOTH",
"1582 268 OFFCURVE",
"1611 481 OFFCURVE",
"1648 697 CURVE",
"1650 720 OFFCURVE",
"1652 742 OFFCURVE",
"1655 765 CURVE",
"1657 788 OFFCURVE",
"1658 811 OFFCURVE",
"1658 834 CURVE SMOOTH",
"1658 958 OFFCURVE",
"1612 1013 OFFCURVE",
"1511 1013 CURVE SMOOTH",
"1416 1013 OFFCURVE",
"1321 979 OFFCURVE",
"1257 899 CURVE SMOOTH",
"1192 822 OFFCURVE",
"1162 726 OFFCURVE",
"1155 630 CURVE",
"1132 429 OFFCURVE",
"1114 230 OFFCURVE",
"1101 31 CURVE",
"866 31 LINE",
"913 256 OFFCURVE",
"956 478 OFFCURVE",
"996 703 CURVE",
"998 724 OFFCURVE",
"999 745 OFFCURVE",
"999 768 CURVE SMOOTH",
"999 825 OFFCURVE",
"992 881 OFFCURVE",
"965 930 CURVE",
"941 966 OFFCURVE",
"911 989 OFFCURVE",
"877 1002 CURVE SMOOTH",
"843 1015 OFFCURVE",
"805 1020 OFFCURVE",
"769 1020 CURVE SMOOTH",
"670 1020 OFFCURVE",
"594 968 OFFCURVE",
"541 893 CURVE SMOOTH",
"488 817 OFFCURVE",
"458 720 OFFCURVE",
"454 632 CURVE SMOOTH",
"443 427 OFFCURVE",
"425 224 OFFCURVE",
"382 20 CURVE",
"307 17 OFFCURVE",
"234 14 OFFCURVE",
"158 10 CURVE",
"255 321 OFFCURVE",
"301 639 OFFCURVE",
"301 956 CURVE SMOOTH",
"301 1006 OFFCURVE",
"300 1057 OFFCURVE",
"298 1108 CURVE",
"325 1107 OFFCURVE",
"352 1106 OFFCURVE",
"379 1105 CURVE SMOOTH",
"406 1104 OFFCURVE",
"433 1102 OFFCURVE",
"460 1101 CURVE",
"457 1045 OFFCURVE",
"452 992 OFFCURVE",
"445 936 CURVE",
"448 935 OFFCURVE",
"451 934 OFFCURVE",
"454 933 CURVE",
"456 932 OFFCURVE",
"459 931 OFFCURVE",
"462 930 CURVE",
"493 989 OFFCURVE",
"541 1036 OFFCURVE",
"598 1068 CURVE SMOOTH",
"654 1100 OFFCURVE",
"718 1118 OFFCURVE",
"781 1118 CURVE SMOOTH",
"861 1118 OFFCURVE",
"940 1101 OFFCURVE",
"1004 1064 CURVE SMOOTH",
"1067 1027 OFFCURVE",
"1115 969 OFFCURVE",
"1131 888 CURVE",
"1138 888 OFFCURVE",
"1141 887 OFFCURVE",
"1148 886 CURVE"
);
}
);
width = 2110;
}
);
unicode = 006D;
},
{
glyphname = n;
lastChange = "2012-10-08 00:25:04 +0000";
layers = (
{
anchors = (
{
name = bottom;
position = "{597, 0}";
},
{
name = top;
position = "{597, 1108}";
}
);
layerId = "16808965-E153-4B2B-ADB3-00196C646C32";
name = Regular;
paths = (
{
closed = 1;
nodes = (
"1092 554 OFFCURVE",
"1087 434 OFFCURVE",
"1087 313 CURVE SMOOTH",
"1087 210 OFFCURVE",
"1091 110 OFFCURVE",
"1100 10 CURVE",
"1020 18 OFFCURVE",
"941 23 OFFCURVE",
"860 26 CURVE",
"876 245 OFFCURVE",
"904 459 OFFCURVE",
"937 676 CURVE",
"940 707 OFFCURVE",
"942 738 OFFCURVE",
"942 769 CURVE SMOOTH",
"942 816 OFFCURVE",
"936 861 OFFCURVE",
"917 904 CURVE",
"900 937 OFFCURVE",
"873 958 OFFCURVE",
"845 971 CURVE SMOOTH",
"816 984 OFFCURVE",
"783 989 OFFCURVE",
"751 989 CURVE SMOOTH",
"706 989 OFFCURVE",
"657 984 OFFCURVE",
"611 971 CURVE SMOOTH",
"565 958 OFFCURVE",
"521 934 OFFCURVE",
"486 897 CURVE SMOOTH",
"421 825 OFFCURVE",
"396 731 OFFCURVE",
"389 640 CURVE",
"382 436 OFFCURVE",
"368 231 OFFCURVE",
"347 26 CURVE",
"267 22 OFFCURVE",
"192 18 OFFCURVE",
"112 10 CURVE",
"196 379 OFFCURVE",
"236 747 OFFCURVE",
"241 1118 CURVE",
"296 1111 OFFCURVE",
"348 1108 OFFCURVE",
"403 1105 CURVE",
"402 1082 OFFCURVE",
"402 1058 OFFCURVE",
"401 1035 CURVE SMOOTH",
"400 1011 OFFCURVE",
"400 987 OFFCURVE",
"399 964 CURVE",
"522 1055 OFFCURVE",
"652 1116 OFFCURVE",
"800 1116 CURVE SMOOTH",
"852 1116 OFFCURVE",
"904 1107 OFFCURVE",
"949 1087 CURVE SMOOTH",
"994 1066 OFFCURVE",
"1033 1034 OFFCURVE",
"1057 989 CURVE",
"1093 909 OFFCURVE",
"1102 830 OFFCURVE",
"1102 750 CURVE SMOOTH",
"1102 725 OFFCURVE",
"1101 700 OFFCURVE",
"1100 675 CURVE SMOOTH"
);
}
);
width = 1337.25;
}
);
unicode = 006E;
},
{
glyphname = o;
lastChange = "2012-06-10 13:53:26 +0000";
layers = (
{
anchors = (
{
name = top;
position = "{693, 1108}";
}
);
layerId = "16808965-E153-4B2B-ADB3-00196C646C32";
name = Regular;
paths = (
{
closed = 1;
nodes = (
"605 1002 OFFCURVE",
"514 967 OFFCURVE",
"454 891 CURVE SMOOTH",
"411 836 OFFCURVE",
"384 772 OFFCURVE",
"368 707 CURVE SMOOTH",
"352 642 OFFCURVE",
"347 573 OFFCURVE",
"347 512 CURVE SMOOTH",
"347 479 OFFCURVE",
"350 446 OFFCURVE",
"359 416 CURVE SMOOTH",
"367 386 OFFCURVE",
"383 359 OFFCURVE",
"410 339 CURVE",
"475 298 OFFCURVE",
"555 289 OFFCURVE",
"634 289 CURVE SMOOTH",
"711 289 OFFCURVE",
"792 300 OFFCURVE",
"863 340 CURVE",
"914 375 OFFCURVE",
"942 434 OFFCURVE",
"956 495 CURVE SMOOTH",
"970 555 OFFCURVE",
"971 617 OFFCURVE",
"971 658 CURVE SMOOTH",
"971 739 OFFCURVE",
"957 822 OFFCURVE",
"917 890 CURVE SMOOTH",
"872 966 OFFCURVE",
"785 1001 OFFCURVE",
"696 1002 CURVE SMOOTH"
);
},
{
closed = 1;
nodes = (
"772 1114 OFFCURVE",
"839 1105 OFFCURVE",
"899 1084 CURVE SMOOTH",
"959 1063 OFFCURVE",
"1013 1027 OFFCURVE",
"1052 974 CURVE SMOOTH",
"1116 886 OFFCURVE",
"1134 780 OFFCURVE",
"1134 669 CURVE SMOOTH",
"1134 586 OFFCURVE",
"1128 491 OFFCURVE",
"1105 399 CURVE SMOOTH",
"1081 306 OFFCURVE",
"1042 215 OFFCURVE",
"978 143 CURVE SMOOTH",
"930 87 OFFCURVE",
"870 52 OFFCURVE",
"805 32 CURVE SMOOTH",
"740 11 OFFCURVE",
"669 3 OFFCURVE",
"604 3 CURVE SMOOTH",
"540 3 OFFCURVE",
"472 11 OFFCURVE",
"412 32 CURVE SMOOTH",
"352 53 OFFCURVE",
"299 89 OFFCURVE",
"262 142 CURVE SMOOTH",
"198 230 OFFCURVE",
"180 339 OFFCURVE",
"180 451 CURVE SMOOTH",
"180 532 OFFCURVE",
"186 627 OFFCURVE",
"209 720 CURVE SMOOTH",
"232 813 OFFCURVE",
"270 903 OFFCURVE",
"335 974 CURVE SMOOTH",
"383 1027 OFFCURVE",
"444 1062 OFFCURVE",
"508 1084 CURVE SMOOTH",
"572 1106 OFFCURVE",
"640 1114 OFFCURVE",
"707 1114 CURVE SMOOTH"
);
}
);
width = 1386;
}
);
unicode = 006F;
},
{
glyphname = p;
lastChange = "2012-10-08 00:27:10 +0000";
layers = (
{
layerId = "16808965-E153-4B2B-ADB3-00196C646C32";
name = Regular;
paths = (
{
closed = 1;
nodes = (
"278 -19 OFFCURVE",
"247 -208 OFFCURVE",
"214 -399 CURVE",
"158 -404 OFFCURVE",
"104 -409 OFFCURVE",
"48 -416 CURVE",
"147 92 OFFCURVE",
"202 594 OFFCURVE",
"223 1105 CURVE",
"278 1098 OFFCURVE",
"329 1093 OFFCURVE",
"384 1090 CURVE",
"380 1063 OFFCURVE",
"376 1037 OFFCURVE",
"372 1010 CURVE",
"367 983 OFFCURVE",
"363 957 OFFCURVE",
"359 930 CURVE",
"362 929 OFFCURVE",
"365 928 OFFCURVE",
"368 927 CURVE",
"370 926 OFFCURVE",
"372 925 OFFCURVE",
"374 924 CURVE",
"410 985 OFFCURVE",
"464 1032 OFFCURVE",
"525 1062 CURVE SMOOTH",
"586 1092 OFFCURVE",
"654 1107 OFFCURVE",
"721 1107 CURVE SMOOTH",
"734 1107 LINE",
"751 1107 LINE SMOOTH",
"866 1107 OFFCURVE",
"975 1060 OFFCURVE",
"1035 967 CURVE SMOOTH",
"1092 883 OFFCURVE",
"1111 780 OFFCURVE",
"1111 676 CURVE SMOOTH",
"1111 589 OFFCURVE",
"1102 494 OFFCURVE",
"1078 401 CURVE SMOOTH",
"1053 308 OFFCURVE",
"1013 217 OFFCURVE",
"950 144 CURVE SMOOTH",
"874 51 OFFCURVE",
"760 -4 OFFCURVE",
"645 -4 CURVE SMOOTH",
"633 -4 LINE",
"618 -4 LINE SMOOTH",
"554 -4 OFFCURVE",
"491 11 OFFCURVE",
"438 42 CURVE SMOOTH",
"385 73 OFFCURVE",
"343 117 OFFCURVE",
"320 177 CURVE",
"317 176 OFFCURVE",
"314 175 OFFCURVE",
"311 175 CURVE",
"308 174 OFFCURVE",
"305 173 OFFCURVE",
"302 172 CURVE"
);
},
{
closed = 1;
nodes = (
"1019 618 OFFCURVE",
"1021 650 OFFCURVE",
"1021 682 CURVE SMOOTH",
"1021 767 OFFCURVE",
"1003 850 OFFCURVE",
"961 910 CURVE SMOOTH",
"919 970 OFFCURVE",
"855 1009 OFFCURVE",
"764 1009 CURVE SMOOTH",
"668 1009 OFFCURVE",
"574 974 OFFCURVE",
"511 893 CURVE SMOOTH",
"467 840 OFFCURVE",
"440 776 OFFCURVE",
"425 709 CURVE SMOOTH",
"409 642 OFFCURVE",
"404 574 OFFCURVE",
"404 513 CURVE SMOOTH",
"404 477 OFFCURVE",
"408 441 OFFCURVE",
"418 408 CURVE SMOOTH",
"428 375 OFFCURVE",
"445 345 OFFCURVE",
"473 324 CURVE",
"537 281 OFFCURVE",
"613 267 OFFCURVE",
"692 267 CURVE SMOOTH",
"768 267 OFFCURVE",
"846 279 OFFCURVE",
"913 324 CURVE",
"953 356 OFFCURVE",
"976 400 OFFCURVE",
"990 446 CURVE SMOOTH",
"1004 492 OFFCURVE",
"1009 542 OFFCURVE",
"1016 587 CURVE"
);
}
);
width = 1217;
}
);
unicode = 0070;
},
{
glyphname = q;
lastChange = "2012-10-08 00:27:34 +0000";
layers = (
{
layerId = "16808965-E153-4B2B-ADB3-00196C646C32";
name = Regular;
paths = (
{
closed = 1;
nodes = (
"322 557 OFFCURVE",
"320 532 OFFCURVE",
"320 508 CURVE SMOOTH",
"320 437 OFFCURVE",
"331 369 OFFCURVE",
"383 322 CURVE",
"443 279 OFFCURVE",
"520 271 OFFCURVE",
"596 271 CURVE SMOOTH",
"672 271 OFFCURVE",
"753 283 OFFCURVE",
"824 323 CURVE",
"877 362 OFFCURVE",
"906 425 OFFCURVE",
"921 490 CURVE SMOOTH",
"936 554 OFFCURVE",
"938 620 OFFCURVE",
"938 664 CURVE SMOOTH",
"938 744 OFFCURVE",
"924 820 OFFCURVE",
"884 888 CURVE SMOOTH",
"835 969 OFFCURVE",
"744 1003 OFFCURVE",
"647 1002 CURVE SMOOTH",
"563 1002 OFFCURVE",
"476 962 OFFCURVE",
"423 893 CURVE SMOOTH",
"387 846 OFFCURVE",
"365 795 OFFCURVE",
"350 742 CURVE SMOOTH",
"334 689 OFFCURVE",
"327 633 OFFCURVE",
"323 580 CURVE SMOOTH"
);
},
{
closed = 1;
nodes = (
"956 179 OFFCURVE",
"950 180 OFFCURVE",
"946 183 CURVE",
"911 123 OFFCURVE",
"862 77 OFFCURVE",
"803 45 CURVE SMOOTH",
"744 13 OFFCURVE",
"678 -4 OFFCURVE",
"614 -4 CURVE SMOOTH",
"598 -4 LINE",
"586 -4 LINE SMOOTH",
"471 -4 OFFCURVE",
"366 49 OFFCURVE",
"307 142 CURVE SMOOTH",
"242 241 OFFCURVE",
"224 360 OFFCURVE",
"224 481 CURVE SMOOTH",
"224 560 OFFCURVE",
"231 648 OFFCURVE",
"252 733 CURVE SMOOTH",
"273 817 OFFCURVE",
"309 898 OFFCURVE",
"366 966 CURVE SMOOTH",
"445 1058 OFFCURVE",
"561 1108 OFFCURVE",
"676 1107 CURVE SMOOTH",
"693 1107 LINE",
"711 1107 LINE SMOOTH",
"780 1107 OFFCURVE",
"848 1088 OFFCURVE",
"904 1053 CURVE SMOOTH",
"960 1017 OFFCURVE",
"1005 966 OFFCURVE",
"1032 903 CURVE",
"1039 935 OFFCURVE",
"1047 967 OFFCURVE",
"1056 999 CURVE SMOOTH",
"1064 1030 OFFCURVE",
"1072 1062 OFFCURVE",
"1080 1094 CURVE",
"1136 1099 OFFCURVE",
"1190 1104 OFFCURVE",
"1246 1111 CURVE",
"1147 603 OFFCURVE",
"1090 100 OFFCURVE",
"1075 -411 CURVE",
"1019 -404 OFFCURVE",
"968 -399 OFFCURVE",
"912 -396 CURVE",
"923 -204 OFFCURVE",
"938 -14 OFFCURVE",
"961 178 CURVE"
);
}
);
width = 1494.38;
}
);
unicode = 0071;
},
{
glyphname = r;
lastChange = "2012-10-08 00:26:10 +0000";
layers = (
{
anchors = (
{
name = bottom;
position = "{444, 0}";
},
{
name = top;
position = "{444, 1108}";
}
);
layerId = "16808965-E153-4B2B-ADB3-00196C646C32";
name = Regular;
paths = (
{
closed = 1;
nodes = (
"900 952 OFFCURVE",
"879 954 OFFCURVE",
"856 954 CURVE SMOOTH",
"804 954 OFFCURVE",
"748 949 OFFCURVE",
"696 933 CURVE SMOOTH",
"644 916 OFFCURVE",
"595 887 OFFCURVE",
"562 839 CURVE SMOOTH",
"502 755 OFFCURVE",
"481 655 OFFCURVE",
"472 559 CURVE",
"463 380 OFFCURVE",
"454 208 OFFCURVE",
"439 29 CURVE",
"367 26 OFFCURVE",
"295 21 OFFCURVE",
"223 10 CURVE",
"296 371 OFFCURVE",
"342 729 OFFCURVE",
"369 1093 CURVE",
"417 1086 OFFCURVE",
"463 1085 OFFCURVE",
"511 1082 CURVE",
"510 1061 OFFCURVE",
"508 1041 OFFCURVE",
"507 1021 CURVE SMOOTH",
"506 1001 OFFCURVE",
"504 981 OFFCURVE",
"503 960 CURVE",
"526 975 OFFCURVE",
"549 990 OFFCURVE",
"573 1003 CURVE SMOOTH",
"597 1016 OFFCURVE",
"621 1029 OFFCURVE",
"645 1043 CURVE SMOOTH",
"685 1067 OFFCURVE",
"731 1083 OFFCURVE",
"778 1095 CURVE SMOOTH",
"825 1106 OFFCURVE",
"872 1110 OFFCURVE",
"915 1110 CURVE SMOOTH",
"944 1110 LINE",
"935 1054 OFFCURVE",
"927 1000 OFFCURVE",
"920 944 CURVE"
);
}
);
width = 1092;
}
);
unicode = 0072;
},
{
glyphname = s;
lastChange = "2012-10-08 00:25:59 +0000";
layers = (
{
anchors = (
{
name = bottom;
position = "{523, 0}";
},
{
name = top;
position = "{523, 1108}";
}
);
layerId = "16808965-E153-4B2B-ADB3-00196C646C32";
name = Regular;
paths = (
{
closed = 1;
nodes = (
"969 1080 LINE",
"966 1057 OFFCURVE",
"962 1034 OFFCURVE",
"958 1011 CURVE SMOOTH",
"954 988 OFFCURVE",
"950 965 OFFCURVE",
"947 942 CURVE",
"846 989 OFFCURVE",
"737 1003 OFFCURVE",
"622 1003 CURVE SMOOTH",
"562 1003 OFFCURVE",
"492 993 OFFCURVE",
"437 964 CURVE SMOOTH",
"381 935 OFFCURVE",
"342 886 OFFCURVE",
"342 810 CURVE SMOOTH",
"342 761 OFFCURVE",
"365 726 OFFCURVE",
"398 700 CURVE SMOOTH",
"431 674 OFFCURVE",
"475 655 OFFCURVE",
"519 643 CURVE SMOOTH",
"563 631 OFFCURVE",
"604 623 OFFCURVE",
"635 618 CURVE",
"679 607 OFFCURVE",
"724 596 OFFCURVE",
"766 579 CURVE SMOOTH",
"808 562 OFFCURVE",
"847 540 OFFCURVE",
"880 509 CURVE SMOOTH",
"927 464 OFFCURVE",
"943 398 OFFCURVE",
"943 333 CURVE SMOOTH",
"943 285 OFFCURVE",
"934 236 OFFCURVE",
"914 192 CURVE SMOOTH",
"894 147 OFFCURVE",
"863 107 OFFCURVE",
"818 79 CURVE SMOOTH",
"765 46 OFFCURVE",
"707 27 OFFCURVE",
"647 16 CURVE SMOOTH",
"587 5 OFFCURVE",
"525 3 OFFCURVE",
"468 3 CURVE SMOOTH",
"347 3 OFFCURVE",
"228 21 OFFCURVE",
"113 49 CURVE",
"128 132 OFFCURVE",
"138 211 OFFCURVE",
"149 294 CURVE",
"252 239 OFFCURVE",
"366 210 OFFCURVE",
"486 210 CURVE SMOOTH",
"508 210 LINE",
"513 209 OFFCURVE",
"517 209 OFFCURVE",
"522 209 CURVE SMOOTH",
"526 209 OFFCURVE",
"530 209 OFFCURVE",
"535 209 CURVE SMOOTH",
"584 209 OFFCURVE",
"641 218 OFFCURVE",
"686 242 CURVE SMOOTH",
"731 265 OFFCURVE",
"764 303 OFFCURVE",
"767 363 CURVE",
"752 394 OFFCURVE",
"738 424 OFFCURVE",
"718 451 CURVE",
"686 476 OFFCURVE",
"642 493 OFFCURVE",
"598 505 CURVE SMOOTH",
"576 511 OFFCURVE",
"554 516 OFFCURVE",
"533 521 CURVE",
"490 529 OFFCURVE",
"457 538 OFFCURVE",
"418 548 CURVE SMOOTH",
"378 558 OFFCURVE",
"340 572 OFFCURVE",
"305 592 CURVE SMOOTH",
"270 612 OFFCURVE",
"228 645 OFFCURVE",
"214 705 CURVE SMOOTH",
"207 735 OFFCURVE",
"203 766 OFFCURVE",
"203 797 CURVE SMOOTH",
"203 850 OFFCURVE",
"214 907 OFFCURVE",
"239 955 CURVE SMOOTH",
"263 1003 OFFCURVE",
"303 1043 OFFCURVE",
"359 1066 CURVE SMOOTH",
"458 1105 OFFCURVE",
"541 1114 OFFCURVE",
"628 1114 CURVE SMOOTH",
"745 1114 OFFCURVE",
"862 1107 OFFCURVE",
"973 1072 CURVE"
);
}
);
width = 1140.91;
}
);
unicode = 0073;
},
{
glyphname = t;
lastChange = "2012-06-10 13:53:26 +0000";
layers = (
{
anchors = (
{
name = bottom;
position = "{421, 0}";
},
{
name = center;
position = "{421, 554}";
}
);
layerId = "16808965-E153-4B2B-ADB3-00196C646C32";
name = Regular;
paths = (
{
closed = 1;
nodes = (
"409 1269 OFFCURVE",
"399 1180 OFFCURVE",
"388 1091 CURVE",
"428 1091 LINE SMOOTH",
"499 1091 OFFCURVE",
"567 1093 OFFCURVE",
"638 1098 CURVE",
"635 1078 OFFCURVE",
"633 1058 OFFCURVE",
"632 1038 CURVE",
"630 1018 OFFCURVE",
"627 998 OFFCURVE",
"624 978 CURVE",
"556 975 OFFCURVE",
"488 973 OFFCURVE",
"420 973 CURVE SMOOTH",
"378 973 LINE",
"369 893 OFFCURVE",
"361 814 OFFCURVE",
"353 735 CURVE SMOOTH",
"345 656 OFFCURVE",
"336 576 OFFCURVE",
"327 496 CURVE",
"326 473 OFFCURVE",
"324 450 OFFCURVE",
"324 426 CURVE SMOOTH",
"324 387 OFFCURVE",
"329 352 OFFCURVE",
"350 321 CURVE",
"369 302 OFFCURVE",
"392 293 OFFCURVE",
"419 287 CURVE SMOOTH",
"446 281 OFFCURVE",
"473 279 OFFCURVE",
"500 278 CURVE SMOOTH",
"557 275 OFFCURVE",
"613 272 OFFCURVE",
"670 265 CURVE",
"666 180 OFFCURVE",
"663 95 OFFCURVE",
"662 10 CURVE",
"633 15 OFFCURVE",
"603 19 OFFCURVE",
"574 22 CURVE SMOOTH",
"545 25 OFFCURVE",
"515 28 OFFCURVE",
"485 31 CURVE SMOOTH",
"460 33 OFFCURVE",
"435 35 OFFCURVE",
"410 37 CURVE SMOOTH",
"359 41 OFFCURVE",
"310 51 OFFCURVE",
"264 69 CURVE SMOOTH",
"241 78 OFFCURVE",
"220 90 OFFCURVE",
"201 106 CURVE",
"154 153 OFFCURVE",
"144 217 OFFCURVE",
"144 285 CURVE SMOOTH",
"144 316 OFFCURVE",
"146 348 OFFCURVE",
"149 377 CURVE SMOOTH",
"172 578 OFFCURVE",
"195 776 OFFCURVE",
"212 977 CURVE",
"191 978 OFFCURVE",
"170 980 OFFCURVE",
"149 981 CURVE SMOOTH",
"128 982 OFFCURVE",
"107 983 OFFCURVE",
"86 986 CURVE",
"87 1007 OFFCURVE",
"88 1027 OFFCURVE",
"89 1048 CURVE SMOOTH",
"90 1068 OFFCURVE",
"92 1088 OFFCURVE",
"93 1109 CURVE",
"136 1104 OFFCURVE",
"176 1099 OFFCURVE",
"219 1096 CURVE",
"228 1187 OFFCURVE",
"237 1276 OFFCURVE",
"245 1367 CURVE",
"305 1362 OFFCURVE",
"360 1360 OFFCURVE",
"420 1360 CURVE"
);
}
);
width = 842;
}
);
unicode = 0074;
},
{
glyphname = u;
lastChange = "2012-10-08 00:19:24 +0000";
layers = (
{
anchors = (
{
name = ogonek;
position = "{722, 24}";
},
{
name = top;
position = "{725, 1108}";
}
);
layerId = "16808965-E153-4B2B-ADB3-00196C646C32";
name = Regular;
paths = (
{
closed = 1;
nodes = (
"272 637 OFFCURVE",
"283 828 OFFCURVE",
"283 1021 CURVE SMOOTH",
"283 1036 OFFCURVE",
"283 1051 OFFCURVE",
"283 1066 CURVE",
"282 1081 OFFCURVE",
"282 1096 OFFCURVE",
"282 1111 CURVE",
"303 1108 OFFCURVE",
"325 1105 OFFCURVE",
"348 1104 CURVE SMOOTH",
"370 1103 OFFCURVE",
"392 1101 OFFCURVE",
"414 1098 CURVE",
"411 933 OFFCURVE",
"403 771 OFFCURVE",
"391 606 CURVE",
"391 601 OFFCURVE",
"391 595 OFFCURVE",
"391 590 CURVE",
"390 584 OFFCURVE",
"390 578 OFFCURVE",
"390 572 CURVE SMOOTH",
"390 507 OFFCURVE",
"397 440 OFFCURVE",
"425 383 CURVE",
"464 315 OFFCURVE",
"529 291 OFFCURVE",
"594 291 CURVE SMOOTH",
"682 291 OFFCURVE",
"772 314 OFFCURVE",
"837 385 CURVE SMOOTH",
"902 457 OFFCURVE",
"933 549 OFFCURVE",
"948 641 CURVE",
"964 794 OFFCURVE",
"987 944 OFFCURVE",
"1014 1096 CURVE",
"1079 1099 OFFCURVE",
"1145 1104 OFFCURVE",
"1210 1111 CURVE",
"1131 744 OFFCURVE",
"1091 380 OFFCURVE",
"1090 12 CURVE",
"1035 17 OFFCURVE",
"981 20 OFFCURVE",
"928 23 CURVE",
"932 88 OFFCURVE",
"938 152 OFFCURVE",
"945 217 CURVE",
"905 154 OFFCURVE",
"850 100 OFFCURVE",
"786 62 CURVE SMOOTH",
"722 24 OFFCURVE",
"650 1 OFFCURVE",
"577 1 CURVE SMOOTH",
"568 1 LINE",
"550 1 LINE SMOOTH",
"498 1 OFFCURVE",
"444 9 OFFCURVE",
"397 29 CURVE SMOOTH",
"350 49 OFFCURVE",
"310 80 OFFCURVE",
"286 127 CURVE",
"255 199 OFFCURVE",
"246 269 OFFCURVE",
"246 338 CURVE SMOOTH",
"246 373 OFFCURVE",
"248 407 OFFCURVE",
"251 442 CURVE SMOOTH"
);
}
);
width = 1369;
}
);
unicode = 0075;
},
{
glyphname = v;
lastChange = "2012-06-10 13:53:25 +0000";
layers = (
{
layerId = "16808965-E153-4B2B-ADB3-00196C646C32";
name = Regular;
paths = (
{
closed = 1;
nodes = (
"115 1107 OFFCURVE",
"143 1105 OFFCURVE",
"172 1102 CURVE SMOOTH",
"200 1099 OFFCURVE",
"228 1097 OFFCURVE",
"257 1096 CURVE",
"312 964 OFFCURVE",
"363 830 OFFCURVE",
"408 695 CURVE SMOOTH",
"453 559 OFFCURVE",
"498 423 OFFCURVE",
"544 286 CURVE",
"613 423 OFFCURVE",
"682 559 OFFCURVE",
"751 695 CURVE SMOOTH",
"819 831 OFFCURVE",
"893 965 OFFCURVE",
"972 1097 CURVE",
"1032 1101 OFFCURVE",
"1088 1105 OFFCURVE",
"1148 1110 CURVE",
"1049 937 OFFCURVE",
"963 757 OFFCURVE",
"883 577 CURVE SMOOTH",
"843 486 OFFCURVE",
"804 395 OFFCURVE",
"766 304 CURVE SMOOTH",
"727 212 OFFCURVE",
"689 121 OFFCURVE",
"650 30 CURVE",
"632 31 OFFCURVE",
"614 31 OFFCURVE",
"596 31 CURVE SMOOTH",
"577 31 OFFCURVE",
"559 31 OFFCURVE",
"541 31 CURVE SMOOTH",
"516 31 OFFCURVE",
"492 31 OFFCURVE",
"468 31 CURVE",
"443 30 OFFCURVE",
"418 30 OFFCURVE",
"393 30 CURVE",
"369 121 OFFCURVE",
"346 212 OFFCURVE",
"323 303 CURVE SMOOTH",
"278 485 OFFCURVE",
"231 666 OFFCURVE",
"176 845 CURVE SMOOTH",
"149 934 OFFCURVE",
"119 1023 OFFCURVE",
"86 1110 CURVE"
);
}
);
width = 1264;
}
);
unicode = 0076;
},
{
glyphname = w;
lastChange = "2012-06-10 13:53:26 +0000";
layers = (
{
anchors = (
{
name = top;
position = "{916, 1108}";
}
);
layerId = "16808965-E153-4B2B-ADB3-00196C646C32";
name = Regular;
paths = (
{
closed = 1;
nodes = (
"217 1106 OFFCURVE",
"270 1103 OFFCURVE",
"325 1100 CURVE",
"412 845 OFFCURVE",
"464 584 OFFCURVE",
"507 316 CURVE",
"550 385 OFFCURVE",
"591 454 OFFCURVE",
"631 523 CURVE SMOOTH",
"671 592 OFFCURVE",
"712 662 OFFCURVE",
"753 732 CURVE",
"805 732 LINE",
"897 732 LINE SMOOTH",
"912 732 OFFCURVE",
"926 732 OFFCURVE",
"940 732 CURVE SMOOTH",
"954 732 OFFCURVE",
"968 732 OFFCURVE",
"983 733 CURVE",
"1039 592 OFFCURVE",
"1095 455 OFFCURVE",
"1155 316 CURVE",
"1247 584 OFFCURVE",
"1343 848 OFFCURVE",
"1478 1101 CURVE",
"1533 1104 OFFCURVE",
"1586 1106 OFFCURVE",
"1642 1110 CURVE",
"1551 938 OFFCURVE",
"1477 759 OFFCURVE",
"1415 577 CURVE SMOOTH",
"1353 395 OFFCURVE",
"1302 209 OFFCURVE",
"1259 24 CURVE",
"1218 25 OFFCURVE",
"1178 26 OFFCURVE",
"1138 27 CURVE SMOOTH",
"1098 28 OFFCURVE",
"1058 29 OFFCURVE",
"1017 30 CURVE",
"954 197 OFFCURVE",
"900 364 OFFCURVE",
"851 535 CURVE",
"767 364 OFFCURVE",
"682 196 OFFCURVE",
"589 29 CURVE",
"550 29 OFFCURVE",
"511 28 OFFCURVE",
"473 27 CURVE SMOOTH",
"434 26 OFFCURVE",
"395 25 OFFCURVE",
"356 24 CURVE",
"341 209 OFFCURVE",
"323 394 OFFCURVE",
"293 576 CURVE SMOOTH",
"263 758 OFFCURVE",
"221 937 OFFCURVE",
"164 1110 CURVE"
);
}
);
width = 1831;
}
);
unicode = 0077;
},
{
glyphname = x;
lastChange = "2012-06-10 13:53:25 +0000";
layers = (
{
layerId = "16808965-E153-4B2B-ADB3-00196C646C32";
name = Regular;
paths = (
{
closed = 1;
nodes = (
"1162 918 OFFCURVE",
"1018 724 OFFCURVE",
"871 525 CURVE",
"999 349 OFFCURVE",
"1125 178 OFFCURVE",
"1262 10 CURVE",
"1173 18 OFFCURVE",
"1084 23 OFFCURVE",
"993 26 CURVE",
"912 153 OFFCURVE",
"836 280 OFFCURVE",
"764 412 CURVE",
"660 280 OFFCURVE",
"558 153 OFFCURVE",
"449 26 CURVE",
"358 23 OFFCURVE",
"270 17 OFFCURVE",
"178 10 CURVE",
"345 183 OFFCURVE",
"506 355 OFFCURVE",
"665 535 CURVE",
"557 730 OFFCURVE",
"448 918 OFFCURVE",
"327 1105 CURVE",
"386 1100 OFFCURVE",
"440 1097 OFFCURVE",
"499 1094 CURVE",
"595 945 OFFCURVE",
"684 795 OFFCURVE",
"772 640 CURVE",
"897 796 OFFCURVE",
"1022 947 OFFCURVE",
"1155 1096 CURVE",
"1211 1099 OFFCURVE",
"1264 1102 OFFCURVE",
"1319 1107 CURVE"
);
}
);
width = 1491;
}
);
unicode = 0078;
},
{
glyphname = y;
lastChange = "2012-06-10 13:53:26 +0000";
layers = (
{
anchors = (
{
name = top;
position = "{663, 1108}";
}
);
layerId = "16808965-E153-4B2B-ADB3-00196C646C32";
name = Regular;
paths = (
{
closed = 1;
nodes = (
"760 -107 OFFCURVE",
"746 -131 OFFCURVE",
"733 -156 CURVE",
"705 -205 OFFCURVE",
"674 -251 OFFCURVE",
"637 -293 CURVE SMOOTH",
"600 -335 OFFCURVE",
"549 -375 OFFCURVE",
"489 -393 CURVE SMOOTH",
"429 -411 OFFCURVE",
"366 -419 OFFCURVE",
"302 -422 CURVE SMOOTH",
"270 -424 OFFCURVE",
"238 -427 OFFCURVE",
"207 -430 CURVE",
"214 -393 OFFCURVE",
"220 -355 OFFCURVE",
"225 -318 CURVE SMOOTH",
"230 -281 OFFCURVE",
"236 -244 OFFCURVE",
"242 -207 CURVE",
"263 -205 OFFCURVE",
"284 -204 OFFCURVE",
"305 -203 CURVE",
"347 -203 OFFCURVE",
"387 -199 OFFCURVE",
"427 -187 CURVE SMOOTH",
"466 -175 OFFCURVE",
"501 -144 OFFCURVE",
"535 -109 CURVE SMOOTH",
"552 -92 OFFCURVE",
"568 -74 OFFCURVE",
"584 -57 CURVE",
"599 -30 OFFCURVE",
"615 -4 OFFCURVE",
"630 22 CURVE SMOOTH",
"645 48 OFFCURVE",
"661 74 OFFCURVE",
"676 101 CURVE",
"551 441 OFFCURVE",
"428 777 OFFCURVE",
"287 1110 CURVE",
"343 1102 OFFCURVE",
"399 1095 OFFCURVE",
"458 1091 CURVE",
"577 875 OFFCURVE",
"691 662 OFFCURVE",
"802 442 CURVE",
"923 662 OFFCURVE",
"1041 877 OFFCURVE",
"1172 1092 CURVE",
"1231 1097 OFFCURVE",
"1289 1103 OFFCURVE",
"1349 1110 CURVE",
"1242 915 OFFCURVE",
"1146 717 OFFCURVE",
"1052 518 CURVE SMOOTH",
"1005 418 OFFCURVE",
"958 318 OFFCURVE",
"912 218 CURVE SMOOTH",
"866 117 OFFCURVE",
"820 17 OFFCURVE",
"773 -83 CURVE"
);
}
);
width = 1325;
}
);
unicode = 0079;
},
{
glyphname = z;
lastChange = "2012-06-10 13:53:26 +0000";
layers = (
{
anchors = (
{
name = top;
position = "{675, 1108}";
}
);
layerId = "16808965-E153-4B2B-ADB3-00196C646C32";
name = Regular;
paths = (
{
closed = 1;
nodes = (
"315 1105 LINE",
"445 1093 OFFCURVE",
"576 1087 OFFCURVE",
"708 1087 CURVE SMOOTH",
"859 1087 OFFCURVE",
"1009 1095 OFFCURVE",
"1161 1110 CURVE",
"1150 1058 OFFCURVE",
"1141 1007 OFFCURVE",
"1132 955 CURVE",
"1017 836 OFFCURVE",
"903 718 OFFCURVE",
"791 601 CURVE SMOOTH",
"678 483 OFFCURVE",
"564 365 OFFCURVE",
"448 248 CURVE",
"520 250 OFFCURVE",
"592 251 OFFCURVE",
"663 251 CURVE SMOOTH",
"794 251 OFFCURVE",
"924 247 OFFCURVE",
"1053 239 CURVE",
"1052 224 OFFCURVE",
"1052 210 OFFCURVE",
"1052 196 CURVE SMOOTH",
"1052 181 OFFCURVE",
"1052 167 OFFCURVE",
"1052 152 CURVE SMOOTH",
"1052 105 OFFCURVE",
"1053 58 OFFCURVE",
"1054 11 CURVE",
"911 26 OFFCURVE",
"769 31 OFFCURVE",
"624 31 CURVE SMOOTH",
"474 31 OFFCURVE",
"324 24 OFFCURVE",
"174 10 CURVE",
"193 94 OFFCURVE",
"205 179 OFFCURVE",
"218 264 CURVE",
"469 508 OFFCURVE",
"722 744 OFFCURVE",
"978 981 CURVE",
"879 977 OFFCURVE",
"784 974 OFFCURVE",
"685 974 CURVE SMOOTH",
"560 974 OFFCURVE",
"438 977 OFFCURVE",
"315 988 CURVE",
"315 1066 LINE"
);
}
);
width = 1350;
}
);
unicode = 007A;
},
{
glyphname = braceleft;
lastChange = "2012-06-10 13:53:25 +0000";
layers = (
{
layerId = "16808965-E153-4B2B-ADB3-00196C646C32";
name = Regular;
paths = (
{
closed = 1;
nodes = (
"667 -179 OFFCURVE",
"665 -209 OFFCURVE",
"663 -240 CURVE SMOOTH",
"661 -271 OFFCURVE",
"660 -301 OFFCURVE",
"659 -332 CURVE",
"632 -327 OFFCURVE",
"602 -323 OFFCURVE",
"569 -318 CURVE SMOOTH",
"504 -310 OFFCURVE",
"437 -297 OFFCURVE",
"376 -273 CURVE SMOOTH",
"345 -262 OFFCURVE",
"319 -246 OFFCURVE",
"296 -226 CURVE",
"248 -170 OFFCURVE",
"239 -97 OFFCURVE",
"239 -21 CURVE SMOOTH",
"239 34 OFFCURVE",
"245 90 OFFCURVE",
"253 146 CURVE SMOOTH",
"260 202 OFFCURVE",
"266 257 OFFCURVE",
"266 313 CURVE SMOOTH",
"266 373 OFFCURVE",
"262 435 OFFCURVE",
"231 486 CURVE",
"211 511 OFFCURVE",
"182 527 OFFCURVE",
"150 536 CURVE SMOOTH",
"118 545 OFFCURVE",
"83 548 OFFCURVE",
"51 549 CURVE SMOOTH",
"45 549 LINE SMOOTH",
"40 549 OFFCURVE",
"35 549 OFFCURVE",
"30 550 CURVE",
"25 550 OFFCURVE",
"19 550 OFFCURVE",
"14 550 CURVE SMOOTH",
"4 550 LINE",
"5 571 OFFCURVE",
"7 591 OFFCURVE",
"10 612 CURVE SMOOTH",
"13 632 OFFCURVE",
"15 652 OFFCURVE",
"16 673 CURVE",
"23 673 OFFCURVE",
"30 673 OFFCURVE",
"37 672 CURVE SMOOTH",
"44 671 OFFCURVE",
"51 670 OFFCURVE",
"58 670 CURVE SMOOTH",
"91 670 OFFCURVE",
"128 673 OFFCURVE",
"163 681 CURVE SMOOTH",
"198 689 OFFCURVE",
"232 703 OFFCURVE",
"260 726 CURVE",
"287 753 OFFCURVE",
"303 785 OFFCURVE",
"314 820 CURVE SMOOTH",
"325 855 OFFCURVE",
"330 891 OFFCURVE",
"334 926 CURVE",
"337 965 OFFCURVE",
"341 1003 OFFCURVE",
"346 1041 CURVE SMOOTH",
"350 1079 OFFCURVE",
"354 1117 OFFCURVE",
"357 1156 CURVE",
"364 1203 OFFCURVE",
"370 1254 OFFCURVE",
"385 1302 CURVE SMOOTH",
"400 1349 OFFCURVE",
"424 1394 OFFCURVE",
"464 1427 CURVE",
"524 1463 OFFCURVE",
"589 1483 OFFCURVE",
"657 1497 CURVE SMOOTH",
"690 1504 OFFCURVE",
"724 1510 OFFCURVE",
"758 1515 CURVE SMOOTH",
"791 1520 OFFCURVE",
"824 1526 OFFCURVE",
"856 1533 CURVE",
"848 1490 OFFCURVE",
"842 1451 OFFCURVE",
"835 1408 CURVE",
"815 1403 OFFCURVE",
"794 1399 OFFCURVE",
"771 1396 CURVE SMOOTH",
"726 1390 OFFCURVE",
"680 1381 OFFCURVE",
"637 1366 CURVE SMOOTH",
"615 1358 OFFCURVE",
"595 1347 OFFCURVE",
"577 1332 CURVE",
"554 1307 OFFCURVE",
"541 1277 OFFCURVE",
"533 1246 CURVE",
"528 1230 OFFCURVE",
"525 1214 OFFCURVE",
"523 1198 CURVE",
"520 1181 OFFCURVE",
"518 1165 OFFCURVE",
"515 1150 CURVE",
"510 1110 OFFCURVE",
"506 1070 OFFCURVE",
"502 1031 CURVE SMOOTH",
"493 952 OFFCURVE",
"485 877 OFFCURVE",
"469 803 CURVE SMOOTH",
"461 766 OFFCURVE",
"446 731 OFFCURVE",
"425 699 CURVE",
"388 650 OFFCURVE",
"328 625 OFFCURVE",
"271 613 CURVE",
"270 595 LINE",
"295 588 OFFCURVE",
"322 579 OFFCURVE",
"346 564 CURVE",
"369 548 OFFCURVE",
"389 528 OFFCURVE",
"400 503 CURVE SMOOTH",
"421 452 OFFCURVE",
"424 399 OFFCURVE",
"424 343 CURVE SMOOTH",
"424 307 LINE",
"424 308 LINE",
"420 268 OFFCURVE",
"416 228 OFFCURVE",
"413 189 CURVE SMOOTH",
"409 149 OFFCURVE",
"405 109 OFFCURVE",
"401 69 CURVE",
"401 18 OFFCURVE",
"404 -36 OFFCURVE",
"435 -77 CURVE",
"435 -76 LINE",
"456 -100 OFFCURVE",
"485 -113 OFFCURVE",
"516 -121 CURVE",
"531 -126 OFFCURVE",
"547 -129 OFFCURVE",
"564 -132 CURVE SMOOTH",
"580 -135 OFFCURVE",
"596 -137 OFFCURVE",
"611 -140 CURVE",
"620 -141 OFFCURVE",
"630 -142 OFFCURVE",
"640 -144 CURVE SMOOTH",
"649 -146 OFFCURVE",
"659 -147 OFFCURVE",
"668 -148 CURVE"
);
}
);
width = 938;
}
);
unicode = 007B;
},
{
glyphname = bar;
lastChange = "2012-06-10 13:53:25 +0000";
layers = (
{
layerId = "16808965-E153-4B2B-ADB3-00196C646C32";
name = Regular;
paths = (
{
closed = 1;
nodes = (
"252 -437 OFFCURVE",
"237 -435 OFFCURVE",
"223 -435 CURVE SMOOTH",
"179 -435 OFFCURVE",
"135 -448 OFFCURVE",
"96 -473 CURVE",
"147 -142 OFFCURVE",
"193 183 OFFCURVE",
"236 514 CURVE",
"259 514 OFFCURVE",
"283 514 OFFCURVE",
"306 514 CURVE SMOOTH",
"329 514 OFFCURVE",
"353 514 OFFCURVE",
"377 515 CURVE",
"340 195 OFFCURVE",
"304 -120 OFFCURVE",
"269 -440 CURVE"
);
},
{
closed = 1;
nodes = (
"267 784 OFFCURVE",
"286 931 OFFCURVE",
"304 1077 CURVE SMOOTH",
"322 1222 OFFCURVE",
"341 1369 OFFCURVE",
"360 1516 CURVE",
"365 1515 OFFCURVE",
"369 1514 OFFCURVE",
"374 1514 CURVE SMOOTH",
"379 1514 OFFCURVE",
"383 1514 OFFCURVE",
"388 1514 CURVE SMOOTH",
"432 1514 OFFCURVE",
"477 1528 OFFCURVE",
"514 1555 CURVE",
"470 1248 OFFCURVE",
"428 946 OFFCURVE",
"388 638 CURVE",
"376 637 OFFCURVE",
"364 636 OFFCURVE",
"353 636 CURVE SMOOTH",
"341 636 OFFCURVE",
"329 636 OFFCURVE",
"318 636 CURVE SMOOTH",
"307 636 OFFCURVE",
"295 636 OFFCURVE",
"283 636 CURVE SMOOTH",
"271 636 OFFCURVE",
"259 636 OFFCURVE",
"248 637 CURVE"
);
}
);
width = 481;
}
);
unicode = 007C;
},
{
glyphname = braceright;
lastChange = "2012-06-10 13:53:25 +0000";
layers = (
{
layerId = "16808965-E153-4B2B-ADB3-00196C646C32";
name = Regular;
paths = (
{
closed = 1;
nodes = (
"153 -186 OFFCURVE",
"173 -184 OFFCURVE",
"195 -181 CURVE",
"239 -177 OFFCURVE",
"284 -168 OFFCURVE",
"328 -151 CURVE SMOOTH",
"350 -143 OFFCURVE",
"370 -132 OFFCURVE",
"387 -118 CURVE",
"411 -93 OFFCURVE",
"425 -61 OFFCURVE",
"434 -29 CURVE SMOOTH",
"442 3 OFFCURVE",
"446 37 OFFCURVE",
"450 69 CURVE",
"457 149 OFFCURVE",
"464 227 OFFCURVE",
"472 307 CURVE SMOOTH",
"476 340 OFFCURVE",
"480 376 OFFCURVE",
"489 412 CURVE SMOOTH",
"497 447 OFFCURVE",
"510 479 OFFCURVE",
"531 510 CURVE SMOOTH",
"566 561 OFFCURVE",
"627 586 OFFCURVE",
"684 601 CURVE",
"686 619 LINE",
"631 630 OFFCURVE",
"575 655 OFFCURVE",
"548 706 CURVE",
"525 746 OFFCURVE",
"522 794 OFFCURVE",
"522 841 CURVE SMOOTH",
"522 904 OFFCURVE",
"528 968 OFFCURVE",
"535 1033 CURVE SMOOTH",
"542 1097 OFFCURVE",
"548 1160 OFFCURVE",
"548 1223 CURVE SMOOTH",
"548 1267 OFFCURVE",
"542 1310 OFFCURVE",
"515 1345 CURVE",
"486 1373 OFFCURVE",
"442 1390 OFFCURVE",
"398 1400 CURVE SMOOTH",
"375 1405 OFFCURVE",
"353 1409 OFFCURVE",
"332 1412 CURVE SMOOTH",
"311 1415 OFFCURVE",
"292 1418 OFFCURVE",
"276 1421 CURVE",
"277 1442 OFFCURVE",
"278 1463 OFFCURVE",
"279 1484 CURVE",
"279 1504 OFFCURVE",
"280 1525 OFFCURVE",
"281 1546 CURVE",
"310 1539 OFFCURVE",
"340 1533 OFFCURVE",
"373 1528 CURVE SMOOTH",
"438 1519 OFFCURVE",
"505 1506 OFFCURVE",
"566 1484 CURVE SMOOTH",
"597 1473 OFFCURVE",
"624 1457 OFFCURVE",
"649 1438 CURVE",
"696 1387 OFFCURVE",
"706 1321 OFFCURVE",
"706 1250 CURVE SMOOTH",
"706 1219 OFFCURVE",
"705 1191 OFFCURVE",
"702 1162 CURVE SMOOTH",
"682 931 LINE SMOOTH",
"680 911 OFFCURVE",
"679 891 OFFCURVE",
"679 870 CURVE SMOOTH",
"679 818 OFFCURVE",
"686 768 OFFCURVE",
"717 727 CURVE",
"740 702 OFFCURVE",
"769 688 OFFCURVE",
"802 681 CURVE",
"834 673 OFFCURVE",
"869 672 OFFCURVE",
"902 672 CURVE SMOOTH",
"910 672 OFFCURVE",
"918 672 OFFCURVE",
"927 673 CURVE SMOOTH",
"935 674 OFFCURVE",
"943 674 OFFCURVE",
"951 673 CURVE",
"941 550 LINE",
"908 550 LINE SMOOTH",
"873 550 OFFCURVE",
"835 550 OFFCURVE",
"798 542 CURVE SMOOTH",
"761 534 OFFCURVE",
"726 520 OFFCURVE",
"697 492 CURVE",
"670 464 OFFCURVE",
"655 430 OFFCURVE",
"644 394 CURVE SMOOTH",
"633 358 OFFCURVE",
"628 321 OFFCURVE",
"624 285 CURVE",
"619 209 OFFCURVE",
"613 132 OFFCURVE",
"606 56 CURVE SMOOTH",
"601 8 OFFCURVE",
"596 -43 OFFCURVE",
"582 -91 CURVE SMOOTH",
"568 -139 OFFCURVE",
"545 -184 OFFCURVE",
"505 -220 CURVE",
"454 -255 OFFCURVE",
"399 -272 OFFCURVE",
"342 -284 CURVE SMOOTH",
"313 -290 OFFCURVE",
"285 -295 OFFCURVE",
"256 -299 CURVE SMOOTH",
"227 -304 OFFCURVE",
"198 -309 OFFCURVE",
"170 -315 CURVE",
"161 -316 OFFCURVE",
"152 -318 OFFCURVE",
"143 -319 CURVE",
"134 -321 OFFCURVE",
"126 -323 OFFCURVE",
"117 -324 CURVE",
"120 -301 OFFCURVE",
"124 -279 OFFCURVE",
"127 -256 CURVE SMOOTH",
"130 -234 OFFCURVE",
"133 -212 OFFCURVE",
"136 -189 CURVE"
);
}
);
width = 911;
}
);
unicode = 007D;
},
{
glyphname = asciitilde;
lastChange = "2012-06-10 13:53:25 +0000";
layers = (
{
layerId = "16808965-E153-4B2B-ADB3-00196C646C32";
name = Regular;
paths = (
{
closed = 1;
nodes = (
"1462 771 OFFCURVE",
"1444 718 OFFCURVE",
"1437 665 CURVE",
"1410 645 OFFCURVE",
"1382 624 OFFCURVE",
"1355 602 CURVE SMOOTH",
"1299 558 OFFCURVE",
"1242 520 OFFCURVE",
"1182 496 CURVE SMOOTH",
"1121 472 OFFCURVE",
"1058 476 OFFCURVE",
"1011 489 CURVE SMOOTH",
"963 502 OFFCURVE",
"919 523 OFFCURVE",
"876 545 CURVE SMOOTH",
"854 556 OFFCURVE",
"831 566 OFFCURVE",
"808 576 CURVE",
"810 576 LINE",
"739 617 OFFCURVE",
"664 654 OFFCURVE",
"579 657 CURVE",
"515 656 OFFCURVE",
"456 627 OFFCURVE",
"403 591 CURVE SMOOTH",
"335 544 OFFCURVE",
"266 499 OFFCURVE",
"197 458 CURVE",
"230 515 OFFCURVE",
"248 576 OFFCURVE",
"252 640 CURVE",
"299 680 OFFCURVE",
"352 714 OFFCURVE",
"408 739 CURVE SMOOTH",
"464 764 OFFCURVE",
"524 779 OFFCURVE",
"584 779 CURVE SMOOTH",
"673 779 OFFCURVE",
"763 757 OFFCURVE",
"844 722 CURVE",
"848 719 OFFCURVE",
"853 717 OFFCURVE",
"858 716 CURVE",
"857 716 LINE",
"865 714 OFFCURVE",
"872 711 OFFCURVE",
"878 708 CURVE",
"877 708 LINE",
"953 677 OFFCURVE",
"1028 647 OFFCURVE",
"1112 647 CURVE SMOOTH",
"1184 647 OFFCURVE",
"1250 671 OFFCURVE",
"1314 703 CURVE SMOOTH",
"1346 719 OFFCURVE",
"1378 737 OFFCURVE",
"1409 756 CURVE SMOOTH",
"1440 775 OFFCURVE",
"1470 793 OFFCURVE",
"1501 810 CURVE",
"1499 813 OFFCURVE",
"1496 815 OFFCURVE",
"1491 818 CURVE"
);
}
);
width = 1640;
}
);
unicode = 007E;
},
{
glyphname = exclamdown;
lastChange = "2012-06-10 13:53:25 +0000";
layers = (
{
layerId = "16808965-E153-4B2B-ADB3-00196C646C32";
name = Regular;
paths = (
{
closed = 1;
nodes = (
"592 1225 LINE",
"555 1214 OFFCURVE",
"518 1207 OFFCURVE",
"479 1207 CURVE SMOOTH",
"444 1207 OFFCURVE",
"410 1213 OFFCURVE",
"377 1224 CURVE",
"380 1267 OFFCURVE",
"383 1309 OFFCURVE",
"386 1351 CURVE SMOOTH",
"389 1393 OFFCURVE",
"392 1435 OFFCURVE",
"395 1478 CURVE",
"427 1462 OFFCURVE",
"463 1454 OFFCURVE",
"502 1454 CURVE SMOOTH",
"542 1454 OFFCURVE",
"582 1461 OFFCURVE",
"619 1480 CURVE"
);
},
{
closed = 1;
nodes = (
"464 29 OFFCURVE",
"423 38 OFFCURVE",
"380 38 CURVE SMOOTH",
"337 38 OFFCURVE",
"295 29 OFFCURVE",
"256 10 CURVE",
"283 225 OFFCURVE",
"307 438 OFFCURVE",
"330 654 CURVE SMOOTH",
"338 711 OFFCURVE",
"346 768 OFFCURVE",
"355 825 CURVE SMOOTH",
"363 882 OFFCURVE",
"371 939 OFFCURVE",
"378 996 CURVE",
"405 992 OFFCURVE",
"432 990 OFFCURVE",
"459 990 CURVE SMOOTH",
"490 990 OFFCURVE",
"521 993 OFFCURVE",
"552 997 CURVE",
"549 940 OFFCURVE",
"547 883 OFFCURVE",
"546 826 CURVE SMOOTH",
"545 769 OFFCURVE",
"543 712 OFFCURVE",
"540 655 CURVE",
"540 656 LINE",
"525 439 OFFCURVE",
"511 226 OFFCURVE",
"500 9 CURVE"
);
}
);
width = 768;
}
);
unicode = 00A1;
},
{
glyphname = cent;
lastChange = "2012-06-10 13:53:25 +0000";
layers = (
{
layerId = "16808965-E153-4B2B-ADB3-00196C646C32";
name = Regular;
paths = (
{
closed = 1;
nodes = (
"493 346 OFFCURVE",
"507 477 OFFCURVE",
"520 607 CURVE SMOOTH",
"533 737 OFFCURVE",
"547 868 OFFCURVE",
"562 999 CURVE",
"478 995 OFFCURVE",
"410 962 OFFCURVE",
"357 912 CURVE SMOOTH",
"304 862 OFFCURVE",
"264 795 OFFCURVE",
"239 723 CURVE SMOOTH",
"214 651 OFFCURVE",
"201 575 OFFCURVE",
"201 507 CURVE SMOOTH",
"201 419 OFFCURVE",
"228 349 OFFCURVE",
"276 298 CURVE SMOOTH",
"323 247 OFFCURVE",
"389 217 OFFCURVE",
"469 206 CURVE",
"471 207 OFFCURVE",
"473 209 OFFCURVE",
"475 211 CURVE SMOOTH",
"476 212 OFFCURVE",
"478 214 OFFCURVE",
"480 215 CURVE"
);
},
{
closed = 1;
nodes = (
"911 1038 OFFCURVE",
"909 1017 OFFCURVE",
"906 997 CURVE SMOOTH",
"903 977 OFFCURVE",
"900 956 OFFCURVE",
"897 935 CURVE",
"820 976 OFFCURVE",
"734 1000 OFFCURVE",
"642 1003 CURVE",
"610 734 OFFCURVE",
"583 467 OFFCURVE",
"556 198 CURVE",
"648 202 OFFCURVE",
"738 223 OFFCURVE",
"825 262 CURVE",
"823 224 OFFCURVE",
"820 186 OFFCURVE",
"816 149 CURVE SMOOTH",
"812 112 OFFCURVE",
"809 74 OFFCURVE",
"808 36 CURVE",
"719 5 OFFCURVE",
"629 -6 OFFCURVE",
"537 -10 CURVE",
"534 -56 OFFCURVE",
"530 -102 OFFCURVE",
"526 -147 CURVE SMOOTH",
"521 -192 OFFCURVE",
"517 -238 OFFCURVE",
"514 -284 CURVE",
"501 -283 OFFCURVE",
"487 -282 OFFCURVE",
"473 -281 CURVE",
"459 -281 OFFCURVE",
"445 -280 OFFCURVE",
"432 -279 CURVE",
"437 -233 OFFCURVE",
"441 -187 OFFCURVE",
"445 -140 CURVE SMOOTH",
"449 -94 OFFCURVE",
"453 -48 OFFCURVE",
"458 -2 CURVE",
"394 5 OFFCURVE",
"327 19 OFFCURVE",
"268 45 CURVE SMOOTH",
"208 71 OFFCURVE",
"155 107 OFFCURVE",
"116 160 CURVE SMOOTH",
"55 244 OFFCURVE",
"35 351 OFFCURVE",
"35 459 CURVE SMOOTH",
"35 536 OFFCURVE",
"43 626 OFFCURVE",
"68 714 CURVE SMOOTH",
"92 801 OFFCURVE",
"133 884 OFFCURVE",
"198 948 CURVE",
"247 1000 OFFCURVE",
"309 1036 OFFCURVE",
"374 1060 CURVE SMOOTH",
"439 1084 OFFCURVE",
"508 1096 OFFCURVE",
"575 1103 CURVE",
"580 1149 OFFCURVE",
"586 1195 OFFCURVE",
"591 1242 CURVE SMOOTH",
"596 1288 OFFCURVE",
"602 1334 OFFCURVE",
"607 1380 CURVE",
"621 1381 OFFCURVE",
"635 1381 OFFCURVE",
"649 1381 CURVE",
"662 1380 OFFCURVE",
"676 1380 OFFCURVE",
"690 1381 CURVE",
"678 1288 OFFCURVE",
"667 1196 OFFCURVE",
"656 1103 CURVE",
"748 1100 OFFCURVE",
"838 1086 OFFCURVE",
"919 1051 CURVE",
"918 1052 OFFCURVE",
"918 1054 OFFCURVE",
"917 1055 CURVE SMOOTH",
"916 1056 OFFCURVE",
"915 1058 OFFCURVE",
"914 1059 CURVE"
);
}
);
width = 987;
}
);
unicode = 00A2;
},
{
glyphname = sterling;
lastChange = "2012-06-10 13:53:25 +0000";
layers = (
{
layerId = "16808965-E153-4B2B-ADB3-00196C646C32";
name = Regular;
paths = (
{
closed = 1;
nodes = (
"1188 1414 OFFCURVE",
"1182 1386 OFFCURVE",
"1177 1359 CURVE",
"1171 1332 OFFCURVE",
"1166 1304 OFFCURVE",
"1161 1276 CURVE",
"1089 1311 OFFCURVE",
"1012 1337 OFFCURVE",
"928 1337 CURVE SMOOTH",
"889 1337 OFFCURVE",
"846 1330 OFFCURVE",
"806 1317 CURVE SMOOTH",
"765 1304 OFFCURVE",
"726 1281 OFFCURVE",
"697 1252 CURVE",
"665 1212 OFFCURVE",
"645 1167 OFFCURVE",
"633 1119 CURVE SMOOTH",
"621 1071 OFFCURVE",
"614 1021 OFFCURVE",
"609 974 CURVE SMOOTH",
"604 938 OFFCURVE",
"599 902 OFFCURVE",
"596 867 CURVE SMOOTH",
"592 831 OFFCURVE",
"588 795 OFFCURVE",
"584 759 CURVE",
"707 756 OFFCURVE",
"827 754 OFFCURVE",
"950 753 CURVE",
"948 736 OFFCURVE",
"946 719 OFFCURVE",
"945 703 CURVE",
"943 687 OFFCURVE",
"941 670 OFFCURVE",
"939 653 CURVE",
"878 654 OFFCURVE",
"817 656 OFFCURVE",
"756 657 CURVE SMOOTH",
"695 658 OFFCURVE",
"634 659 OFFCURVE",
"573 660 CURVE",
"564 587 OFFCURVE",
"556 514 OFFCURVE",
"548 441 CURVE SMOOTH",
"539 368 OFFCURVE",
"530 295 OFFCURVE",
"521 222 CURVE",
"702 221 OFFCURVE",
"880 215 OFFCURVE",
"1059 195 CURVE",
"1056 161 OFFCURVE",
"1055 128 OFFCURVE",
"1054 95 CURVE SMOOTH",
"1053 62 OFFCURVE",
"1052 29 OFFCURVE",
"1051 -4 CURVE",
"870 19 OFFCURVE",
"690 30 OFFCURVE",
"503 30 CURVE SMOOTH",
"362 30 OFFCURVE",
"221 23 OFFCURVE",
"80 10 CURVE",
"95 78 OFFCURVE",
"106 144 OFFCURVE",
"118 212 CURVE",
"194 217 OFFCURVE",
"270 219 OFFCURVE",
"346 222 CURVE",
"367 370 OFFCURVE",
"386 514 OFFCURVE",
"403 662 CURVE",
"340 662 OFFCURVE",
"280 663 OFFCURVE",
"217 664 CURVE",
"229 766 LINE",
"260 765 OFFCURVE",
"291 764 OFFCURVE",
"322 764 CURVE SMOOTH",
"353 763 OFFCURVE",
"384 763 OFFCURVE",
"415 762 CURVE",
"420 802 OFFCURVE",
"424 842 OFFCURVE",
"428 882 CURVE SMOOTH",
"435 962 OFFCURVE",
"442 1032 OFFCURVE",
"454 1096 CURVE SMOOTH",
"465 1159 OFFCURVE",
"485 1221 OFFCURVE",
"517 1277 CURVE SMOOTH",
"532 1305 OFFCURVE",
"552 1331 OFFCURVE",
"576 1355 CURVE",
"624 1399 OFFCURVE",
"684 1428 OFFCURVE",
"748 1448 CURVE SMOOTH",
"811 1467 OFFCURVE",
"877 1474 OFFCURVE",
"936 1474 CURVE SMOOTH",
"1027 1474 OFFCURVE",
"1113 1458 OFFCURVE",
"1197 1434 CURVE",
"1195 1437 OFFCURVE",
"1194 1439 OFFCURVE",
"1193 1442 CURVE"
);
}
);
width = 1317;
}
);
unicode = 00A3;
},
{
glyphname = currency;
lastChange = "2012-06-10 13:53:25 +0000";
layers = (
{
layerId = "16808965-E153-4B2B-ADB3-00196C646C32";
name = Regular;
paths = (
{
closed = 1;
nodes = (
"1130 1042 OFFCURVE",
"1206 1112 OFFCURVE",
"1283 1180 CURVE",
"1296 1165 OFFCURVE",
"1310 1149 OFFCURVE",
"1323 1134 CURVE SMOOTH",
"1336 1118 OFFCURVE",
"1349 1102 OFFCURVE",
"1362 1086 CURVE",
"1323 1050 OFFCURVE",
"1285 1015 OFFCURVE",
"1247 981 CURVE SMOOTH",
"1209 946 OFFCURVE",
"1171 911 OFFCURVE",
"1133 875 CURVE",
"1164 814 OFFCURVE",
"1180 748 OFFCURVE",
"1180 678 CURVE SMOOTH",
"1180 582 OFFCURVE",
"1146 489 OFFCURVE",
"1086 412 CURVE",
"1150 340 OFFCURVE",
"1214 269 OFFCURVE",
"1281 200 CURVE",
"1264 185 OFFCURVE",
"1249 169 OFFCURVE",
"1234 154 CURVE SMOOTH",
"1219 138 OFFCURVE",
"1203 122 OFFCURVE",
"1186 107 CURVE",
"1118 178 OFFCURVE",
"1054 245 OFFCURVE",
"987 317 CURVE",
"916 270 OFFCURVE",
"836 242 OFFCURVE",
"755 242 CURVE SMOOTH",
"672 242 OFFCURVE",
"595 272 OFFCURVE",
"530 313 CURVE",
"491 278 OFFCURVE",
"452 243 OFFCURVE",
"414 208 CURVE SMOOTH",
"375 173 OFFCURVE",
"336 138 OFFCURVE",
"297 103 CURVE",
"283 118 OFFCURVE",
"270 134 OFFCURVE",
"258 151 CURVE",
"245 167 OFFCURVE",
"232 183 OFFCURVE",
"219 198 CURVE",
"296 267 OFFCURVE",
"371 337 OFFCURVE",
"447 408 CURVE",
"418 472 OFFCURVE",
"398 540 OFFCURVE",
"398 612 CURVE SMOOTH",
"398 704 OFFCURVE",
"433 794 OFFCURVE",
"490 870 CURVE",
"458 906 OFFCURVE",
"426 941 OFFCURVE",
"394 976 CURVE SMOOTH",
"362 1011 OFFCURVE",
"330 1046 OFFCURVE",
"298 1082 CURVE",
"315 1097 OFFCURVE",
"332 1113 OFFCURVE",
"347 1129 CURVE SMOOTH",
"362 1144 OFFCURVE",
"378 1160 OFFCURVE",
"395 1175 CURVE",
"428 1140 OFFCURVE",
"460 1105 OFFCURVE",
"493 1071 CURVE SMOOTH",
"526 1036 OFFCURVE",
"558 1001 OFFCURVE",
"591 965 CURVE",
"660 1014 OFFCURVE",
"743 1039 OFFCURVE",
"824 1039 CURVE SMOOTH",
"904 1039 OFFCURVE",
"979 1015 OFFCURVE",
"1043 972 CURVE",
"1045 972 OFFCURVE",
"1047 972 OFFCURVE",
"1049 973 CURVE",
"1050 973 OFFCURVE",
"1052 973 OFFCURVE",
"1054 973 CURVE"
);
},
{
closed = 1;
nodes = (
"1052 647 OFFCURVE",
"1052 651 OFFCURVE",
"1052 656 CURVE SMOOTH",
"1052 661 OFFCURVE",
"1052 666 OFFCURVE",
"1052 671 CURVE SMOOTH",
"1052 740 OFFCURVE",
"1025 800 OFFCURVE",
"982 841 CURVE SMOOTH",
"938 882 OFFCURVE",
"877 906 OFFCURVE",
"809 906 CURVE SMOOTH",
"730 906 OFFCURVE",
"660 872 OFFCURVE",
"609 819 CURVE SMOOTH",
"557 766 OFFCURVE",
"525 692 OFFCURVE",
"525 613 CURVE SMOOTH",
"525 542 OFFCURVE",
"552 483 OFFCURVE",
"596 441 CURVE SMOOTH",
"640 399 OFFCURVE",
"701 374 OFFCURVE",
"769 374 CURVE SMOOTH",
"842 374 OFFCURVE",
"910 405 OFFCURVE",
"961 454 CURVE SMOOTH",
"1012 502 OFFCURVE",
"1046 570 OFFCURVE",
"1051 642 CURVE"
);
}
);
width = 1552;
}
);
unicode = 00A4;
},
{
glyphname = yen;
lastChange = "2012-06-10 13:53:25 +0000";
layers = (
{
layerId = "16808965-E153-4B2B-ADB3-00196C646C32";
name = Regular;
paths = (
{
closed = 1;
nodes = (
"922 435 OFFCURVE",
"794 436 OFFCURVE",
"663 437 CURVE",
"658 304 OFFCURVE",
"655 170 OFFCURVE",
"655 37 CURVE",
"638 38 OFFCURVE",
"621 38 OFFCURVE",
"604 38 CURVE SMOOTH",
"587 38 OFFCURVE",
"570 38 OFFCURVE",
"553 38 CURVE SMOOTH",
"530 38 OFFCURVE",
"507 38 OFFCURVE",
"484 38 CURVE",
"461 37 OFFCURVE",
"437 37 OFFCURVE",
"414 37 CURVE",
"437 170 OFFCURVE",
"459 304 OFFCURVE",
"482 437 CURVE",
"349 437 OFFCURVE",
"219 433 OFFCURVE",
"86 428 CURVE",
"93 475 OFFCURVE",
"98 522 OFFCURVE",
"102 569 CURVE",
"234 572 OFFCURVE",
"363 574 OFFCURVE",
"494 574 CURVE",
"495 584 OFFCURVE",
"496 594 OFFCURVE",
"497 605 CURVE SMOOTH",
"498 615 OFFCURVE",
"499 625 OFFCURVE",
"500 636 CURVE",
"486 662 OFFCURVE",
"471 688 OFFCURVE",
"456 714 CURVE",
"440 739 OFFCURVE",
"425 765 OFFCURVE",
"411 792 CURVE",
"360 792 OFFCURVE",
"309 792 OFFCURVE",
"258 792 CURVE SMOOTH",
"207 792 OFFCURVE",
"156 793 OFFCURVE",
"105 794 CURVE",
"107 811 OFFCURVE",
"108 828 OFFCURVE",
"109 845 CURVE SMOOTH",
"110 862 OFFCURVE",
"111 879 OFFCURVE",
"113 896 CURVE",
"198 893 OFFCURVE",
"281 891 OFFCURVE",
"366 891 CURVE",
"281 1092 OFFCURVE",
"192 1287 OFFCURVE",
"97 1484 CURVE",
"160 1476 OFFCURVE",
"219 1469 OFFCURVE",
"282 1466 CURVE",
"394 1235 OFFCURVE",
"495 1006 OFFCURVE",
"596 770 CURVE",
"737 1006 OFFCURVE",
"879 1238 OFFCURVE",
"1032 1467 CURVE",
"1096 1471 OFFCURVE",
"1157 1477 OFFCURVE",
"1221 1484 CURVE",
"1085 1289 OFFCURVE",
"960 1092 OFFCURVE",
"835 891 CURVE",
"878 892 OFFCURVE",
"921 893 OFFCURVE",
"963 894 CURVE SMOOTH",
"1005 894 OFFCURVE",
"1047 895 OFFCURVE",
"1090 896 CURVE",
"1089 879 OFFCURVE",
"1087 862 OFFCURVE",
"1085 846 CURVE SMOOTH",
"1083 829 OFFCURVE",
"1081 812 OFFCURVE",
"1080 795 CURVE",
"774 792 LINE",
"758 765 OFFCURVE",
"742 739 OFFCURVE",
"726 714 CURVE SMOOTH",
"709 688 OFFCURVE",
"693 662 OFFCURVE",
"677 636 CURVE",
"672 574 LINE",
"803 574 OFFCURVE",
"932 573 OFFCURVE",
"1061 570 CURVE",
"1060 547 OFFCURVE",
"1058 523 OFFCURVE",
"1057 499 CURVE SMOOTH",
"1056 475 OFFCURVE",
"1054 451 OFFCURVE",
"1053 428 CURVE"
);
}
);
width = 1329;
}
);
unicode = 00A5;
},
{
glyphname = brokenbar;
lastChange = "2012-06-10 13:53:25 +0000";
layers = (
{
layerId = "16808965-E153-4B2B-ADB3-00196C646C32";
name = Regular;
paths = (
{
closed = 1;
nodes = (
"462 150 OFFCURVE",
"443 -92 OFFCURVE",
"424 -340 CURVE",
"407 -317 OFFCURVE",
"380 -308 OFFCURVE",
"352 -308 CURVE SMOOTH",
"324 -308 OFFCURVE",
"295 -319 OFFCURVE",
"274 -340 CURVE",
"298 -94 OFFCURVE",
"321 152 OFFCURVE",
"343 398 CURVE",
"370 401 OFFCURVE",
"396 402 OFFCURVE",
"423 402 CURVE SMOOTH",
"443 402 OFFCURVE",
"463 401 OFFCURVE",
"483 398 CURVE"
);
},
{
closed = 1;
nodes = (
"553 1174 OFFCURVE",
"531 931 OFFCURVE",
"508 683 CURVE",
"483 679 OFFCURVE",
"457 676 OFFCURVE",
"432 676 CURVE SMOOTH",
"409 676 OFFCURVE",
"388 677 OFFCURVE",
"368 684 CURVE",
"389 930 OFFCURVE",
"409 1176 OFFCURVE",
"428 1422 CURVE",
"444 1398 OFFCURVE",
"470 1386 OFFCURVE",
"498 1386 CURVE SMOOTH",
"527 1386 OFFCURVE",
"557 1399 OFFCURVE",
"578 1422 CURVE"
);
}
);
width = 713;
}
);
unicode = 00A6;
},
{
glyphname = section;
lastChange = "2012-06-10 13:53:25 +0000";
layers = (
{
layerId = "16808965-E153-4B2B-ADB3-00196C646C32";
name = Regular;
paths = (
{
closed = 1;
nodes = (
"443 955 LINE",
"408 931 OFFCURVE",
"375 904 OFFCURVE",
"349 871 CURVE SMOOTH",
"323 838 OFFCURVE",
"306 801 OFFCURVE",
"306 757 CURVE SMOOTH",
"306 706 OFFCURVE",
"330 663 OFFCURVE",
"367 624 CURVE SMOOTH",
"403 584 OFFCURVE",
"453 550 OFFCURVE",
"505 519 CURVE SMOOTH",
"530 503 OFFCURVE",
"556 488 OFFCURVE",
"581 473 CURVE SMOOTH",
"606 458 OFFCURVE",
"630 444 OFFCURVE",
"652 431 CURVE",
"684 452 OFFCURVE",
"720 481 OFFCURVE",
"748 514 CURVE SMOOTH",
"776 546 OFFCURVE",
"795 585 OFFCURVE",
"795 626 CURVE SMOOTH",
"795 701 OFFCURVE",
"743 764 OFFCURVE",
"675 817 CURVE SMOOTH",
"640 844 OFFCURVE",
"603 868 OFFCURVE",
"563 891 CURVE SMOOTH",
"523 914 OFFCURVE",
"486 935 OFFCURVE",
"453 955 CURVE"
);
},
{
closed = 1;
nodes = (
"924 1448 LINE",
"921 1423 OFFCURVE",
"918 1399 OFFCURVE",
"915 1375 CURVE SMOOTH",
"912 1350 OFFCURVE",
"908 1326 OFFCURVE",
"904 1301 CURVE",
"815 1332 OFFCURVE",
"729 1356 OFFCURVE",
"629 1356 CURVE SMOOTH",
"584 1356 OFFCURVE",
"533 1344 OFFCURVE",
"493 1320 CURVE SMOOTH",
"453 1295 OFFCURVE",
"423 1256 OFFCURVE",
"423 1204 CURVE",
"430 1149 OFFCURVE",
"465 1103 OFFCURVE",
"509 1064 CURVE SMOOTH",
"553 1025 OFFCURVE",
"605 995 OFFCURVE",
"644 974 CURVE",
"674 955 OFFCURVE",
"706 935 OFFCURVE",
"740 915 CURVE SMOOTH",
"807 874 OFFCURVE",
"865 824 OFFCURVE",
"902 760 CURVE SMOOTH",
"920 728 OFFCURVE",
"929 691 OFFCURVE",
"929 650 CURVE SMOOTH",
"929 583 OFFCURVE",
"907 524 OFFCURVE",
"871 473 CURVE SMOOTH",
"835 422 OFFCURVE",
"784 381 OFFCURVE",
"725 352 CURVE",
"784 297 OFFCURVE",
"831 225 OFFCURVE",
"831 141 CURVE SMOOTH",
"831 100 OFFCURVE",
"824 57 OFFCURVE",
"808 18 CURVE SMOOTH",
"791 -22 OFFCURVE",
"764 -57 OFFCURVE",
"725 -82 CURVE",
"685 -113 OFFCURVE",
"638 -129 OFFCURVE",
"590 -140 CURVE SMOOTH",
"542 -151 OFFCURVE",
"492 -153 OFFCURVE",
"445 -153 CURVE SMOOTH",
"345 -153 OFFCURVE",
"250 -138 OFFCURVE",
"154 -119 CURVE",
"158 -87 OFFCURVE",
"162 -55 OFFCURVE",
"167 -24 CURVE SMOOTH",
"171 7 OFFCURVE",
"175 38 OFFCURVE",
"178 70 CURVE",
"265 39 OFFCURVE",
"352 15 OFFCURVE",
"447 15 CURVE SMOOTH",
"492 15 OFFCURVE",
"539 18 OFFCURVE",
"583 31 CURVE SMOOTH",
"644 48 OFFCURVE",
"675 99 OFFCURVE",
"675 147 CURVE",
"667 200 OFFCURVE",
"632 244 OFFCURVE",
"589 281 CURVE SMOOTH",
"545 317 OFFCURVE",
"494 346 OFFCURVE",
"454 369 CURVE",
"455 369 LINE",
"392 406 OFFCURVE",
"321 446 OFFCURVE",
"265 496 CURVE SMOOTH",
"209 546 OFFCURVE",
"169 607 OFFCURVE",
"169 694 CURVE SMOOTH",
"169 759 OFFCURVE",
"189 820 OFFCURVE",
"225 872 CURVE SMOOTH",
"260 923 OFFCURVE",
"311 964 OFFCURVE",
"372 991 CURVE",
"308 1043 OFFCURVE",
"265 1120 OFFCURVE",
"265 1205 CURVE SMOOTH",
"265 1244 OFFCURVE",
"273 1284 OFFCURVE",
"290 1320 CURVE SMOOTH",
"307 1356 OFFCURVE",
"334 1387 OFFCURVE",
"370 1410 CURVE SMOOTH",
"411 1438 OFFCURVE",
"456 1455 OFFCURVE",
"504 1465 CURVE SMOOTH",
"551 1475 OFFCURVE",
"598 1477 OFFCURVE",
"645 1477 CURVE SMOOTH",
"742 1477 OFFCURVE",
"837 1464 OFFCURVE",
"929 1440 CURVE",
"924 1447 LINE"
);
}
);
width = 1116;
}
);
unicode = 00A7;
},
{
glyphname = dieresis;
lastChange = "2012-06-10 13:53:26 +0000";
layers = (
{
anchors = (
{
name = _top;
position = "{592, 1108}";
}
);
layerId = "16808965-E153-4B2B-ADB3-00196C646C32";
name = Regular;
paths = (
{
closed = 1;
nodes = (
"745 1555 OFFCURVE",
"778 1556 OFFCURVE",
"811 1556 CURVE SMOOTH",
"844 1556 OFFCURVE",
"877 1557 OFFCURVE",
"910 1558 CURVE",
"889 1519 OFFCURVE",
"879 1478 OFFCURVE",
"879 1435 CURVE SMOOTH",
"879 1408 OFFCURVE",
"883 1383 OFFCURVE",
"892 1360 CURVE",
"859 1361 OFFCURVE",
"827 1362 OFFCURVE",
"794 1362 CURVE SMOOTH",
"761 1362 OFFCURVE",
"728 1363 OFFCURVE",
"695 1364 CURVE",
"694 1371 OFFCURVE",
"693 1379 OFFCURVE",
"693 1387 CURVE SMOOTH",
"693 1395 OFFCURVE",
"693 1403 OFFCURVE",
"693 1410 CURVE SMOOTH",
"693 1458 OFFCURVE",
"700 1506 OFFCURVE",
"711 1554 CURVE"
);
},
{
closed = 1;
nodes = (
"325 1557 OFFCURVE",
"358 1556 OFFCURVE",
"391 1556 CURVE SMOOTH",
"423 1555 OFFCURVE",
"455 1555 OFFCURVE",
"488 1554 CURVE",
"489 1547 OFFCURVE",
"489 1541 OFFCURVE",
"489 1535 CURVE SMOOTH",
"489 1528 OFFCURVE",
"489 1522 OFFCURVE",
"489 1515 CURVE SMOOTH",
"489 1464 OFFCURVE",
"484 1415 OFFCURVE",
"473 1364 CURVE",
"440 1363 OFFCURVE",
"407 1363 OFFCURVE",
"374 1363 CURVE SMOOTH",
"341 1362 OFFCURVE",
"308 1361 OFFCURVE",
"274 1360 CURVE",
"294 1399 OFFCURVE",
"303 1439 OFFCURVE",
"303 1482 CURVE SMOOTH",
"303 1509 OFFCURVE",
"300 1534 OFFCURVE",
"292 1558 CURVE"
);
}
);
width = 1186;
}
);
unicode = 00A8;
},
{
glyphname = copyright;
lastChange = "2012-06-10 13:53:25 +0000";
layers = (
{
layerId = "16808965-E153-4B2B-ADB3-00196C646C32";
name = Regular;
paths = (
{
closed = 1;
nodes = (
"1008 1446 OFFCURVE",
"1099 1431 OFFCURVE",
"1182 1399 CURVE SMOOTH",
"1265 1366 OFFCURVE",
"1339 1316 OFFCURVE",
"1398 1247 CURVE SMOOTH",
"1498 1134 OFFCURVE",
"1541 983 OFFCURVE",
"1541 826 CURVE SMOOTH",
"1541 722 OFFCURVE",
"1524 612 OFFCURVE",
"1486 511 CURVE SMOOTH",
"1448 410 OFFCURVE",
"1390 314 OFFCURVE",
"1307 238 CURVE",
"1235 167 OFFCURVE",
"1151 117 OFFCURVE",
"1061 85 CURVE SMOOTH",
"971 53 OFFCURVE",
"876 38 OFFCURVE",
"781 38 CURVE SMOOTH",
"690 38 OFFCURVE",
"600 54 OFFCURVE",
"520 87 CURVE SMOOTH",
"439 120 OFFCURVE",
"365 169 OFFCURVE",
"308 236 CURVE SMOOTH",
"208 351 OFFCURVE",
"164 502 OFFCURVE",
"164 659 CURVE SMOOTH",
"164 763 OFFCURVE",
"181 871 OFFCURVE",
"218 973 CURVE SMOOTH",
"255 1075 OFFCURVE",
"313 1170 OFFCURVE",
"397 1246 CURVE",
"466 1315 OFFCURVE",
"550 1365 OFFCURVE",
"639 1398 CURVE SMOOTH",
"728 1430 OFFCURVE",
"823 1446 OFFCURVE",
"916 1446 CURVE SMOOTH"
);
},
{
closed = 1;
nodes = (
"825 1365 OFFCURVE",
"743 1350 OFFCURVE",
"665 1321 CURVE SMOOTH",
"587 1292 OFFCURVE",
"514 1247 OFFCURVE",
"451 1187 CURVE SMOOTH",
"379 1122 OFFCURVE",
"327 1040 OFFCURVE",
"292 952 CURVE SMOOTH",
"256 864 OFFCURVE",
"239 770 OFFCURVE",
"239 679 CURVE SMOOTH",
"239 544 OFFCURVE",
"283 414 OFFCURVE",
"378 323 CURVE",
"499 235 OFFCURVE",
"650 195 OFFCURVE",
"805 195 CURVE SMOOTH",
"961 195 OFFCURVE",
"1118 236 OFFCURVE",
"1255 324 CURVE",
"1332 381 OFFCURVE",
"1385 461 OFFCURVE",
"1418 548 CURVE SMOOTH",
"1451 635 OFFCURVE",
"1464 729 OFFCURVE",
"1464 816 CURVE SMOOTH",
"1464 953 OFFCURVE",
"1423 1088 OFFCURVE",
"1334 1188 CURVE SMOOTH",
"1282 1249 OFFCURVE",
"1216 1293 OFFCURVE",
"1144 1322 CURVE SMOOTH",
"1071 1351 OFFCURVE",
"989 1365 OFFCURVE",
"908 1365 CURVE SMOOTH"
);
},
{
closed = 1;
nodes = (
"1163 1122 LINE",
"1159 1094 OFFCURVE",
"1156 1067 OFFCURVE",
"1154 1042 CURVE",
"1081 1077 OFFCURVE",
"999 1096 OFFCURVE",
"915 1096 CURVE SMOOTH",
"828 1096 OFFCURVE",
"742 1063 OFFCURVE",
"682 995 CURVE SMOOTH",
"615 919 OFFCURVE",
"580 815 OFFCURVE",
"580 720 CURVE SMOOTH",
"580 637 OFFCURVE",
"617 575 OFFCURVE",
"673 533 CURVE SMOOTH",
"728 491 OFFCURVE",
"802 469 OFFCURVE",
"878 469 CURVE SMOOTH",
"954 469 OFFCURVE",
"1032 491 OFFCURVE",
"1105 524 CURVE",
"1104 497 OFFCURVE",
"1102 471 OFFCURVE",
"1100 445 CURVE SMOOTH",
"1097 418 OFFCURVE",
"1095 392 OFFCURVE",
"1094 365 CURVE",
"1010 330 OFFCURVE",
"921 317 OFFCURVE",
"833 317 CURVE SMOOTH",
"777 317 OFFCURVE",
"720 325 OFFCURVE",
"668 342 CURVE SMOOTH",
"616 359 OFFCURVE",
"568 387 OFFCURVE",
"531 428 CURVE SMOOTH",
"468 496 OFFCURVE",
"443 588 OFFCURVE",
"443 683 CURVE SMOOTH",
"443 747 OFFCURVE",
"453 815 OFFCURVE",
"475 880 CURVE SMOOTH",
"497 944 OFFCURVE",
"533 1004 OFFCURVE",
"585 1051 CURVE SMOOTH",
"633 1094 OFFCURVE",
"688 1122 OFFCURVE",
"745 1139 CURVE SMOOTH",
"802 1156 OFFCURVE",
"862 1163 OFFCURVE",
"921 1163 CURVE SMOOTH",
"1006 1163 OFFCURVE",
"1090 1145 OFFCURVE",
"1167 1114 CURVE"
);
}
);
width = 1808;
}
);
unicode = 00A9;
},
{
glyphname = ordfeminine;
lastChange = "2012-06-10 13:53:25 +0000";
layers = (
{
layerId = "16808965-E153-4B2B-ADB3-00196C646C32";
name = Regular;
paths = (
{
closed = 1;
nodes = (
"283 592 OFFCURVE",
"392 597 OFFCURVE",
"501 597 CURVE SMOOTH",
"610 597 OFFCURVE",
"718 592 OFFCURVE",
"825 582 CURVE",
"824 577 OFFCURVE",
"824 572 OFFCURVE",
"824 567 CURVE SMOOTH",
"824 562 OFFCURVE",
"824 557 OFFCURVE",
"824 552 CURVE SMOOTH",
"824 542 OFFCURVE",
"824 532 OFFCURVE",
"825 522 CURVE",
"825 511 OFFCURVE",
"825 501 OFFCURVE",
"825 491 CURVE SMOOTH",
"825 479 LINE",
"712 492 OFFCURVE",
"601 498 OFFCURVE",
"486 498 CURVE SMOOTH",
"377 498 OFFCURVE",
"269 493 OFFCURVE",
"158 482 CURVE",
"165 517 OFFCURVE",
"170 549 OFFCURVE",
"174 584 CURVE"
);
},
{
closed = 1;
nodes = (
"847 1018 OFFCURVE",
"834 873 OFFCURVE",
"827 728 CURVE",
"807 730 OFFCURVE",
"787 731 OFFCURVE",
"767 732 CURVE SMOOTH",
"746 733 OFFCURVE",
"726 734 OFFCURVE",
"705 735 CURVE",
"714 864 LINE",
"679 816 OFFCURVE",
"634 779 OFFCURVE",
"583 755 CURVE SMOOTH",
"531 730 OFFCURVE",
"475 718 OFFCURVE",
"419 718 CURVE SMOOTH",
"359 718 OFFCURVE",
"302 732 OFFCURVE",
"261 764 CURVE SMOOTH",
"220 795 OFFCURVE",
"194 845 OFFCURVE",
"194 917 CURVE SMOOTH",
"194 956 OFFCURVE",
"201 999 OFFCURVE",
"217 1039 CURVE SMOOTH",
"233 1079 OFFCURVE",
"258 1115 OFFCURVE",
"297 1138 CURVE SMOOTH",
"386 1191 OFFCURVE",
"478 1200 OFFCURVE",
"563 1200 CURVE SMOOTH",
"624 1200 OFFCURVE",
"685 1201 OFFCURVE",
"746 1204 CURVE",
"747 1217 LINE",
"748 1221 OFFCURVE",
"748 1225 OFFCURVE",
"748 1230 CURVE SMOOTH",
"748 1234 OFFCURVE",
"748 1238 OFFCURVE",
"748 1243 CURVE SMOOTH",
"748 1315 OFFCURVE",
"713 1353 OFFCURVE",
"669 1374 CURVE SMOOTH",
"625 1394 OFFCURVE",
"571 1397 OFFCURVE",
"531 1398 CURVE",
"446 1397 OFFCURVE",
"362 1376 OFFCURVE",
"278 1347 CURVE",
"279 1364 OFFCURVE",
"280 1382 OFFCURVE",
"280 1399 CURVE SMOOTH",
"280 1416 OFFCURVE",
"280 1434 OFFCURVE",
"281 1451 CURVE",
"373 1478 OFFCURVE",
"467 1490 OFFCURVE",
"560 1490 CURVE SMOOTH",
"601 1490 OFFCURVE",
"645 1488 OFFCURVE",
"686 1480 CURVE SMOOTH",
"727 1471 OFFCURVE",
"766 1455 OFFCURVE",
"799 1430 CURVE",
"852 1378 OFFCURVE",
"867 1309 OFFCURVE",
"867 1241 CURVE SMOOTH",
"867 1214 OFFCURVE",
"865 1190 OFFCURVE",
"862 1165 CURVE SMOOTH"
);
},
{
closed = 1;
nodes = (
"564 1170 OFFCURVE",
"519 1169 OFFCURVE",
"476 1163 CURVE SMOOTH",
"432 1157 OFFCURVE",
"391 1144 OFFCURVE",
"360 1120 CURVE SMOOTH",
"329 1096 OFFCURVE",
"310 1059 OFFCURVE",
"310 1004 CURVE SMOOTH",
"310 964 OFFCURVE",
"329 933 OFFCURVE",
"358 910 CURVE SMOOTH",
"386 887 OFFCURVE",
"423 875 OFFCURVE",
"462 875 CURVE SMOOTH",
"531 875 OFFCURVE",
"597 894 OFFCURVE",
"648 949 CURVE SMOOTH",
"696 1000 OFFCURVE",
"722 1068 OFFCURVE",
"729 1136 CURVE",
"730 1143 OFFCURVE",
"730 1149 OFFCURVE",
"731 1155 CURVE",
"731 1161 OFFCURVE",
"732 1167 OFFCURVE",
"733 1174 CURVE",
"690 1173 OFFCURVE",
"647 1171 OFFCURVE",
"604 1171 CURVE SMOOTH"
);
}
);
width = 1077;
}
);
unicode = 00AA;
},
{
glyphname = guillemotleft;
lastChange = "2012-06-10 13:53:25 +0000";
layers = (
{
layerId = "16808965-E153-4B2B-ADB3-00196C646C32";
name = Regular;
paths = (
{
closed = 1;
nodes = (
"987 948 OFFCURVE",
"976 894 OFFCURVE",
"965 838 CURVE",
"909 794 OFFCURVE",
"854 751 OFFCURVE",
"801 708 CURVE SMOOTH",
"747 665 OFFCURVE",
"692 621 OFFCURVE",
"636 577 CURVE",
"680 530 OFFCURVE",
"723 484 OFFCURVE",
"766 437 CURVE SMOOTH",
"809 390 OFFCURVE",
"852 344 OFFCURVE",
"896 298 CURVE",
"880 230 OFFCURVE",
"867 162 OFFCURVE",
"857 94 CURVE",
"720 230 OFFCURVE",
"590 367 OFFCURVE",
"457 508 CURVE",
"464 526 OFFCURVE",
"472 544 OFFCURVE",
"481 562 CURVE SMOOTH",
"489 579 OFFCURVE",
"497 597 OFFCURVE",
"504 615 CURVE",
"588 680 OFFCURVE",
"671 745 OFFCURVE",
"754 810 CURVE SMOOTH",
"836 875 OFFCURVE",
"919 939 OFFCURVE",
"1002 1004 CURVE"
);
},
{
closed = 1;
nodes = (
"548 841 LINE",
"440 758 OFFCURVE",
"336 676 OFFCURVE",
"229 592 CURVE",
"313 500 OFFCURVE",
"397 412 OFFCURVE",
"484 321 CURVE",
"475 287 OFFCURVE",
"465 254 OFFCURVE",
"455 221 CURVE SMOOTH",
"444 188 OFFCURVE",
"434 155 OFFCURVE",
"425 121 CURVE",
"296 252 OFFCURVE",
"172 383 OFFCURVE",
"51 522 CURVE",
"58 541 OFFCURVE",
"66 559 OFFCURVE",
"75 577 CURVE SMOOTH",
"84 595 OFFCURVE",
"91 613 OFFCURVE",
"97 632 CURVE",
"254 759 OFFCURVE",
"410 879 OFFCURVE",
"571 1000 CURVE"
);
}
);
width = 1239;
}
);
unicode = 00AB;
},
{
glyphname = logicalnot;
lastChange = "2012-06-10 13:53:25 +0000";
layers = (
{
layerId = "16808965-E153-4B2B-ADB3-00196C646C32";
name = Regular;
paths = (
{
closed = 1;
nodes = (
"215 845 OFFCURVE",
"423 842 OFFCURVE",
"635 842 CURVE SMOOTH",
"847 842 OFFCURVE",
"1056 845 OFFCURVE",
"1268 852 CURVE",
"1233 747 OFFCURVE",
"1214 638 OFFCURVE",
"1214 530 CURVE SMOOTH",
"1214 450 OFFCURVE",
"1224 372 OFFCURVE",
"1247 297 CURVE",
"1172 300 OFFCURVE",
"1098 302 OFFCURVE",
"1022 303 CURVE",
"1022 308 OFFCURVE",
"1022 312 OFFCURVE",
"1022 317 CURVE",
"1021 322 OFFCURVE",
"1021 326 OFFCURVE",
"1021 331 CURVE SMOOTH",
"1021 456 OFFCURVE",
"1046 579 OFFCURVE",
"1081 700 CURVE",
"726 689 OFFCURVE",
"379 682 OFFCURVE",
"24 682 CURVE",
"21 741 OFFCURVE",
"15 797 OFFCURVE",
"4 853 CURVE"
);
}
);
width = 1577;
}
);
unicode = 00AC;
},
{
glyphname = sfthyphen;
lastChange = "2012-06-10 13:53:25 +0000";
layers = (
{
layerId = "16808965-E153-4B2B-ADB3-00196C646C32";
name = Regular;
paths = (
{
closed = 1;
nodes = (
"373 631 OFFCURVE",
"460 630 OFFCURVE",
"547 630 CURVE SMOOTH",
"633 630 OFFCURVE",
"720 631 OFFCURVE",
"807 633 CURVE",
"790 605 OFFCURVE",
"782 576 OFFCURVE",
"782 545 CURVE SMOOTH",
"782 524 OFFCURVE",
"786 506 OFFCURVE",
"794 489 CURVE",
"708 491 OFFCURVE",
"622 492 OFFCURVE",
"535 492 CURVE SMOOTH",
"448 492 OFFCURVE",
"361 491 OFFCURVE",
"274 489 CURVE",
"289 516 OFFCURVE",
"297 546 OFFCURVE",
"297 577 CURVE SMOOTH",
"297 597 OFFCURVE",
"294 616 OFFCURVE",
"287 633 CURVE"
);
}
);
width = 1087;
}
);
unicode = 00AD;
},
{
glyphname = registered;
lastChange = "2012-06-10 13:53:25 +0000";
layers = (
{
layerId = "16808965-E153-4B2B-ADB3-00196C646C32";
name = Regular;
paths = (
{
closed = 1;
nodes = (
"745 1365 OFFCURVE",
"580 1316 OFFCURVE",
"452 1201 CURVE SMOOTH",
"381 1141 OFFCURVE",
"330 1067 OFFCURVE",
"295 987 CURVE SMOOTH",
"260 906 OFFCURVE",
"244 818 OFFCURVE",
"244 733 CURVE SMOOTH",
"244 570 OFFCURVE",
"309 441 OFFCURVE",
"413 351 CURVE SMOOTH",
"516 261 OFFCURVE",
"658 211 OFFCURVE",
"810 211 CURVE SMOOTH",
"970 211 OFFCURVE",
"1133 265 OFFCURVE",
"1258 377 CURVE SMOOTH",
"1391 504 OFFCURVE",
"1468 677 OFFCURVE",
"1468 854 CURVE SMOOTH",
"1468 986 OFFCURVE",
"1426 1113 OFFCURVE",
"1337 1202 CURVE SMOOTH",
"1282 1259 OFFCURVE",
"1215 1301 OFFCURVE",
"1142 1327 CURVE SMOOTH",
"1069 1353 OFFCURVE",
"989 1365 OFFCURVE",
"908 1365 CURVE SMOOTH"
);
},
{
closed = 1;
nodes = (
"1008 1446 OFFCURVE",
"1099 1431 OFFCURVE",
"1182 1399 CURVE SMOOTH",
"1265 1366 OFFCURVE",
"1339 1316 OFFCURVE",
"1398 1247 CURVE SMOOTH",
"1498 1134 OFFCURVE",
"1541 983 OFFCURVE",
"1541 826 CURVE SMOOTH",
"1541 722 OFFCURVE",
"1524 612 OFFCURVE",
"1486 511 CURVE SMOOTH",
"1448 410 OFFCURVE",
"1390 314 OFFCURVE",
"1307 238 CURVE",
"1235 167 OFFCURVE",
"1151 117 OFFCURVE",
"1061 85 CURVE SMOOTH",
"971 53 OFFCURVE",
"876 38 OFFCURVE",
"781 38 CURVE SMOOTH",
"690 38 OFFCURVE",
"600 54 OFFCURVE",
"520 87 CURVE SMOOTH",
"439 120 OFFCURVE",
"365 169 OFFCURVE",
"308 236 CURVE SMOOTH",
"208 351 OFFCURVE",
"164 502 OFFCURVE",
"164 659 CURVE SMOOTH",
"164 763 OFFCURVE",
"181 871 OFFCURVE",
"218 973 CURVE SMOOTH",
"255 1075 OFFCURVE",
"313 1170 OFFCURVE",
"397 1246 CURVE",
"466 1315 OFFCURVE",
"550 1365 OFFCURVE",
"639 1398 CURVE SMOOTH",
"728 1430 OFFCURVE",
"823 1446 OFFCURVE",
"916 1446 CURVE SMOOTH"
);
},
{
closed = 1;
nodes = (
"886 1114 OFFCURVE",
"865 1114 OFFCURVE",
"844 1114 CURVE",
"823 1113 OFFCURVE",
"802 1113 OFFCURVE",
"781 1113 CURVE",
"778 1066 OFFCURVE",
"774 1019 OFFCURVE",
"770 972 CURVE SMOOTH",
"765 925 OFFCURVE",
"761 878 OFFCURVE",
"757 830 CURVE",
"799 830 LINE",
"882 830 LINE SMOOTH",
"933 830 OFFCURVE",
"987 832 OFFCURVE",
"1034 863 CURVE SMOOTH",
"1055 876 OFFCURVE",
"1071 899 OFFCURVE",
"1080 923 CURVE",
"1088 947 OFFCURVE",
"1092 972 OFFCURVE",
"1092 995 CURVE SMOOTH",
"1092 1054 OFFCURVE",
"1062 1083 OFFCURVE",
"1024 1098 CURVE SMOOTH",
"986 1113 OFFCURVE",
"939 1113 OFFCURVE",
"907 1114 CURVE SMOOTH"
);
},
{
closed = 1;
nodes = (
"947 1144 OFFCURVE",
"1025 1139 OFFCURVE",
"1093 1102 CURVE",
"1149 1066 OFFCURVE",
"1172 1010 OFFCURVE",
"1172 954 CURVE SMOOTH",
"1172 894 OFFCURVE",
"1149 842 OFFCURVE",
"1112 802 CURVE SMOOTH",
"1075 762 OFFCURVE",
"1023 735 OFFCURVE",
"966 728 CURVE",
"964 713 LINE",
"992 697 OFFCURVE",
"1014 673 OFFCURVE",
"1032 646 CURVE SMOOTH",
"1041 633 OFFCURVE",
"1049 619 OFFCURVE",
"1057 605 CURVE",
"1064 590 OFFCURVE",
"1072 576 OFFCURVE",
"1080 562 CURVE",
"1079 562 LINE",
"1096 528 OFFCURVE",
"1114 494 OFFCURVE",
"1132 461 CURVE SMOOTH",
"1150 428 OFFCURVE",
"1168 394 OFFCURVE",
"1186 360 CURVE",
"1163 361 OFFCURVE",
"1139 361 OFFCURVE",
"1115 362 CURVE",
"1091 362 OFFCURVE",
"1067 362 OFFCURVE",
"1044 363 CURVE",
"1026 396 OFFCURVE",
"1009 428 OFFCURVE",
"992 461 CURVE SMOOTH",
"975 493 OFFCURVE",
"958 526 OFFCURVE",
"940 559 CURVE",
"941 559 LINE",
"933 573 OFFCURVE",
"925 588 OFFCURVE",
"916 604 CURVE SMOOTH",
"898 636 OFFCURVE",
"876 665 OFFCURVE",
"851 686 CURVE",
"838 696 OFFCURVE",
"824 702 OFFCURVE",
"808 705 CURVE",
"797 705 OFFCURVE",
"787 705 OFFCURVE",
"777 705 CURVE SMOOTH",
"767 705 OFFCURVE",
"757 705 OFFCURVE",
"746 704 CURVE",
"741 647 OFFCURVE",
"736 590 OFFCURVE",
"731 534 CURVE SMOOTH",
"726 477 OFFCURVE",
"720 420 OFFCURVE",
"715 363 CURVE",
"690 363 LINE SMOOTH",
"665 363 OFFCURVE",
"639 363 OFFCURVE",
"614 362 CURVE SMOOTH",
"589 361 OFFCURVE",
"563 361 OFFCURVE",
"538 361 CURVE",
"567 625 OFFCURVE",
"590 884 OFFCURVE",
"606 1148 CURVE",
"694 1146 OFFCURVE",
"782 1145 OFFCURVE",
"870 1145 CURVE SMOOTH"
);
}
);
width = 1808;
}
);
unicode = 00AE;
},
{
glyphname = macron;
lastChange = "2012-06-10 13:53:26 +0000";
layers = (
{
anchors = (
{
name = _top;
position = "{568.5, 1108}";
}
);
layerId = "16808965-E153-4B2B-ADB3-00196C646C32";
name = Regular;
paths = (
{
closed = 1;
nodes = (
"381 1514 OFFCURVE",
"477 1513 OFFCURVE",
"574 1513 CURVE SMOOTH",
"669 1513 OFFCURVE",
"766 1514 OFFCURVE",
"863 1516 CURVE",
"846 1493 OFFCURVE",
"838 1468 OFFCURVE",
"838 1440 CURVE SMOOTH",
"838 1421 OFFCURVE",
"841 1403 OFFCURVE",
"852 1388 CURVE",
"755 1389 OFFCURVE",
"659 1390 OFFCURVE",
"563 1390 CURVE SMOOTH",
"467 1390 OFFCURVE",
"370 1389 OFFCURVE",
"274 1388 CURVE",
"290 1411 OFFCURVE",
"298 1436 OFFCURVE",
"298 1463 CURVE SMOOTH",
"298 1483 OFFCURVE",
"294 1501 OFFCURVE",
"285 1516 CURVE"
);
}
);
width = 1147;
}
);
unicode = 00AF;
},
{
glyphname = degree;
lastChange = "2012-06-10 13:53:25 +0000";
layers = (
{
layerId = "16808965-E153-4B2B-ADB3-00196C646C32";
name = Regular;
paths = (
{
closed = 1;
nodes = (
"427 1441 OFFCURVE",
"376 1421 OFFCURVE",
"338 1388 CURVE SMOOTH",
"300 1355 OFFCURVE",
"274 1307 OFFCURVE",
"274 1251 CURVE SMOOTH",
"274 1200 OFFCURVE",
"294 1162 OFFCURVE",
"326 1135 CURVE SMOOTH",
"358 1107 OFFCURVE",
"401 1092 OFFCURVE",
"448 1091 CURVE SMOOTH",
"501 1091 OFFCURVE",
"553 1111 OFFCURVE",
"590 1146 CURVE SMOOTH",
"627 1181 OFFCURVE",
"652 1229 OFFCURVE",
"652 1286 CURVE SMOOTH",
"652 1334 OFFCURVE",
"632 1372 OFFCURVE",
"600 1400 CURVE SMOOTH",
"568 1427 OFFCURVE",
"525 1441 OFFCURVE",
"480 1441 CURVE SMOOTH"
);
},
{
closed = 1;
nodes = (
"561 1499 OFFCURVE",
"628 1473 OFFCURVE",
"674 1427 CURVE SMOOTH",
"720 1381 OFFCURVE",
"747 1313 OFFCURVE",
"747 1233 CURVE SMOOTH",
"747 1189 OFFCURVE",
"739 1144 OFFCURVE",
"723 1101 CURVE SMOOTH",
"707 1058 OFFCURVE",
"682 1019 OFFCURVE",
"649 987 CURVE SMOOTH",
"589 930 OFFCURVE",
"510 907 OFFCURVE",
"431 907 CURVE SMOOTH",
"352 907 OFFCURVE",
"275 927 OFFCURVE",
"226 986 CURVE SMOOTH",
"183 1035 OFFCURVE",
"168 1097 OFFCURVE",
"168 1165 CURVE SMOOTH",
"168 1208 OFFCURVE",
"175 1254 OFFCURVE",
"191 1298 CURVE SMOOTH",
"206 1342 OFFCURVE",
"230 1383 OFFCURVE",
"265 1415 CURVE",
"324 1475 OFFCURVE",
"405 1499 OFFCURVE",
"485 1499 CURVE SMOOTH"
);
}
);
width = 965;
}
);
unicode = 00B0;
},
{
glyphname = plusminus;
lastChange = "2012-06-10 13:53:25 +0000";
layers = (
{
layerId = "16808965-E153-4B2B-ADB3-00196C646C32";
name = Regular;
paths = (
{
closed = 1;
nodes = (
"882 1248 LINE",
"867 1123 OFFCURVE",
"855 1000 OFFCURVE",
"843 875 CURVE",
"1019 876 OFFCURVE",
"1193 878 OFFCURVE",
"1370 885 CURVE",
"1367 860 OFFCURVE",
"1364 835 OFFCURVE",
"1361 811 CURVE SMOOTH",
"1358 786 OFFCURVE",
"1355 761 OFFCURVE",
"1353 736 CURVE",
"1178 733 OFFCURVE",
"1006 732 OFFCURVE",
"831 732 CURVE",
"826 669 OFFCURVE",
"820 608 OFFCURVE",
"815 547 CURVE SMOOTH",
"810 486 OFFCURVE",
"804 424 OFFCURVE",
"799 361 CURVE",
"658 361 LINE",
"670 486 OFFCURVE",
"681 607 OFFCURVE",
"692 732 CURVE",
"517 732 OFFCURVE",
"345 733 OFFCURVE",
"170 737 CURVE",
"174 788 OFFCURVE",
"177 837 OFFCURVE",
"179 886 CURVE",
"354 878 OFFCURVE",
"528 876 OFFCURVE",
"704 875 CURVE",
"709 938 OFFCURVE",
"714 1000 OFFCURVE",
"719 1062 CURVE SMOOTH",
"724 1123 OFFCURVE",
"729 1185 OFFCURVE",
"734 1248 CURVE"
);
},
{
closed = 1;
nodes = (
"310 192 OFFCURVE",
"514 199 OFFCURVE",
"721 199 CURVE SMOOTH",
"922 199 OFFCURVE",
"1123 193 OFFCURVE",
"1323 181 CURVE",
"1324 124 OFFCURVE",
"1326 67 OFFCURVE",
"1330 10 CURVE",
"1123 26 OFFCURVE",
"915 34 OFFCURVE",
"706 34 CURVE SMOOTH",
"493 34 OFFCURVE",
"281 26 OFFCURVE",
"68 10 CURVE",
"81 67 OFFCURVE",
"93 124 OFFCURVE",
"102 181 CURVE"
);
}
);
width = 1419;
}
);
unicode = 00B1;
},
{
glyphname = twosuperior;
lastChange = "2012-06-10 13:53:25 +0000";
layers = (
{
layerId = "16808965-E153-4B2B-ADB3-00196C646C32";
name = Regular;
paths = (
{
closed = 1;
nodes = (
"439 784 OFFCURVE",
"461 785 OFFCURVE",
"483 785 CURVE SMOOTH",
"504 785 OFFCURVE",
"526 785 OFFCURVE",
"548 785 CURVE SMOOTH",
"640 785 OFFCURVE",
"728 782 OFFCURVE",
"819 773 CURVE",
"819 757 OFFCURVE",
"819 741 OFFCURVE",
"819 725 CURVE SMOOTH",
"819 709 OFFCURVE",
"819 693 OFFCURVE",
"820 678 CURVE",
"725 689 OFFCURVE",
"632 694 OFFCURVE",
"536 694 CURVE SMOOTH",
"437 694 OFFCURVE",
"341 689 OFFCURVE",
"242 678 CURVE",
"245 694 OFFCURVE",
"248 710 OFFCURVE",
"251 727 CURVE",
"253 743 OFFCURVE",
"255 759 OFFCURVE",
"258 775 CURVE",
"275 790 OFFCURVE",
"292 805 OFFCURVE",
"309 820 CURVE SMOOTH",
"326 835 OFFCURVE",
"343 849 OFFCURVE",
"360 862 CURVE",
"393 893 OFFCURVE",
"427 923 OFFCURVE",
"462 952 CURVE SMOOTH",
"533 1011 OFFCURVE",
"600 1073 OFFCURVE",
"656 1143 CURVE SMOOTH",
"683 1178 OFFCURVE",
"706 1216 OFFCURVE",
"724 1257 CURVE",
"725 1260 OFFCURVE",
"725 1264 OFFCURVE",
"725 1267 CURVE SMOOTH",
"725 1270 OFFCURVE",
"725 1273 OFFCURVE",
"725 1276 CURVE SMOOTH",
"725 1317 OFFCURVE",
"704 1350 OFFCURVE",
"673 1373 CURVE SMOOTH",
"641 1396 OFFCURVE",
"601 1407 OFFCURVE",
"562 1407 CURVE SMOOTH",
"478 1407 OFFCURVE",
"399 1386 OFFCURVE",
"318 1355 CURVE",
"319 1372 OFFCURVE",
"320 1389 OFFCURVE",
"320 1406 CURVE",
"319 1422 OFFCURVE",
"320 1439 OFFCURVE",
"321 1456 CURVE",
"405 1479 OFFCURVE",
"491 1493 OFFCURVE",
"576 1493 CURVE SMOOTH",
"636 1493 OFFCURVE",
"704 1485 OFFCURVE",
"759 1458 CURVE SMOOTH",
"814 1430 OFFCURVE",
"853 1385 OFFCURVE",
"853 1312 CURVE SMOOTH",
"853 1301 OFFCURVE",
"852 1290 OFFCURVE",
"850 1279 CURVE",
"825 1192 OFFCURVE",
"772 1120 OFFCURVE",
"709 1055 CURVE SMOOTH",
"677 1022 OFFCURVE",
"643 991 OFFCURVE",
"608 962 CURVE SMOOTH",
"573 932 OFFCURVE",
"538 903 OFFCURVE",
"505 874 CURVE",
"474 850 OFFCURVE",
"443 825 OFFCURVE",
"412 800 CURVE",
"415 793 OFFCURVE",
"416 790 OFFCURVE",
"417 783 CURVE"
);
}
);
width = 1010;
}
);
unicode = 00B2;
},
